%TF.GenerationSoftware,KiCad,Pcbnew,7.0.8*%
%TF.CreationDate,2023-10-26T10:36:24-05:00*%
%TF.ProjectId,ESP32_Garage_Door_Controller,45535033-325f-4476-9172-6167655f446f,rev?*%
%TF.SameCoordinates,Original*%
%TF.FileFunction,Paste,Top*%
%TF.FilePolarity,Positive*%
%FSLAX46Y46*%
G04 Gerber Fmt 4.6, Leading zero omitted, Abs format (unit mm)*
G04 Created by KiCad (PCBNEW 7.0.8) date 2023-10-26 10:36:24*
%MOMM*%
%LPD*%
G01*
G04 APERTURE LIST*
G04 Aperture macros list*
%AMRoundRect*
0 Rectangle with rounded corners*
0 $1 Rounding radius*
0 $2 $3 $4 $5 $6 $7 $8 $9 X,Y pos of 4 corners*
0 Add a 4 corners polygon primitive as box body*
4,1,4,$2,$3,$4,$5,$6,$7,$8,$9,$2,$3,0*
0 Add four circle primitives for the rounded corners*
1,1,$1+$1,$2,$3*
1,1,$1+$1,$4,$5*
1,1,$1+$1,$6,$7*
1,1,$1+$1,$8,$9*
0 Add four rect primitives between the rounded corners*
20,1,$1+$1,$2,$3,$4,$5,0*
20,1,$1+$1,$4,$5,$6,$7,0*
20,1,$1+$1,$6,$7,$8,$9,0*
20,1,$1+$1,$8,$9,$2,$3,0*%
G04 Aperture macros list end*
%ADD10RoundRect,0.237500X-0.237500X0.250000X-0.237500X-0.250000X0.237500X-0.250000X0.237500X0.250000X0*%
%ADD11RoundRect,0.237500X-0.250000X-0.237500X0.250000X-0.237500X0.250000X0.237500X-0.250000X0.237500X0*%
%ADD12RoundRect,0.150000X-0.150000X0.587500X-0.150000X-0.587500X0.150000X-0.587500X0.150000X0.587500X0*%
%ADD13RoundRect,0.237500X0.237500X-0.250000X0.237500X0.250000X-0.237500X0.250000X-0.237500X-0.250000X0*%
%ADD14RoundRect,0.250000X-0.475000X0.250000X-0.475000X-0.250000X0.475000X-0.250000X0.475000X0.250000X0*%
%ADD15RoundRect,0.250000X-0.250000X-0.475000X0.250000X-0.475000X0.250000X0.475000X-0.250000X0.475000X0*%
%ADD16R,0.300000X0.450000*%
%ADD17RoundRect,0.175000X-0.425000X0.175000X-0.425000X-0.175000X0.425000X-0.175000X0.425000X0.175000X0*%
%ADD18RoundRect,0.190000X0.410000X-0.190000X0.410000X0.190000X-0.410000X0.190000X-0.410000X-0.190000X0*%
%ADD19RoundRect,0.200000X0.400000X-0.200000X0.400000X0.200000X-0.400000X0.200000X-0.400000X-0.200000X0*%
%ADD20RoundRect,0.175000X0.425000X-0.175000X0.425000X0.175000X-0.425000X0.175000X-0.425000X-0.175000X0*%
%ADD21RoundRect,0.190000X-0.410000X0.190000X-0.410000X-0.190000X0.410000X-0.190000X0.410000X0.190000X0*%
%ADD22RoundRect,0.200000X-0.400000X0.200000X-0.400000X-0.200000X0.400000X-0.200000X0.400000X0.200000X0*%
%ADD23RoundRect,0.250000X-0.425000X0.650000X-0.425000X-0.650000X0.425000X-0.650000X0.425000X0.650000X0*%
%ADD24RoundRect,0.250000X-0.500000X0.650000X-0.500000X-0.650000X0.500000X-0.650000X0.500000X0.650000X0*%
G04 APERTURE END LIST*
D10*
%TO.C,R7*%
X123400000Y-83087500D03*
X123400000Y-84912500D03*
%TD*%
D11*
%TO.C,R1*%
X102087500Y-76000000D03*
X103912500Y-76000000D03*
%TD*%
D12*
%TO.C,Q4*%
X142950000Y-71062500D03*
X141050000Y-71062500D03*
X142000000Y-72937500D03*
%TD*%
D13*
%TO.C,R5*%
X137000000Y-76912500D03*
X137000000Y-75087500D03*
%TD*%
D14*
%TO.C,C1*%
X107442500Y-70250000D03*
X107442500Y-72150000D03*
%TD*%
D12*
%TO.C,Q2*%
X132950000Y-71062500D03*
X131050000Y-71062500D03*
X132000000Y-72937500D03*
%TD*%
D15*
%TO.C,C2*%
X121100000Y-71000000D03*
X123000000Y-71000000D03*
%TD*%
D16*
%TO.C,D2*%
X140700000Y-85662500D03*
X141200000Y-85662500D03*
X141700000Y-85662500D03*
X141700000Y-84262500D03*
X140700000Y-84262500D03*
%TD*%
D11*
%TO.C,R2*%
X102087500Y-74500000D03*
X103912500Y-74500000D03*
%TD*%
D12*
%TO.C,Q3*%
X137950000Y-71062500D03*
X136050000Y-71062500D03*
X137000000Y-72937500D03*
%TD*%
D10*
%TO.C,R8*%
X130600000Y-83087500D03*
X130600000Y-84912500D03*
%TD*%
D12*
%TO.C,Q1*%
X127950000Y-71062500D03*
X126050000Y-71062500D03*
X127000000Y-72937500D03*
%TD*%
D13*
%TO.C,R4*%
X127000000Y-76912500D03*
X127000000Y-75087500D03*
%TD*%
D10*
%TO.C,R11*%
X129000000Y-83087500D03*
X129000000Y-84912500D03*
%TD*%
%TO.C,R12*%
X139250000Y-83137500D03*
X139250000Y-84962500D03*
%TD*%
D16*
%TO.C,D1*%
X126500000Y-85612500D03*
X127000000Y-85612500D03*
X127500000Y-85612500D03*
X127500000Y-84212500D03*
X126500000Y-84212500D03*
%TD*%
D17*
%TO.C,J1*%
X99500000Y-74500000D03*
D18*
X99500000Y-76520000D03*
D19*
X99500000Y-77750000D03*
D20*
X99500000Y-75500000D03*
D21*
X99500000Y-73480000D03*
D22*
X99500000Y-72250000D03*
D23*
X99445000Y-69875000D03*
D24*
X95865000Y-69875000D03*
D23*
X99445000Y-80125000D03*
D24*
X95865000Y-80125000D03*
%TD*%
D10*
%TO.C,R9*%
X137600000Y-83087500D03*
X137600000Y-84912500D03*
%TD*%
%TO.C,R10*%
X125000000Y-83087500D03*
X125000000Y-84912500D03*
%TD*%
D13*
%TO.C,R3*%
X132000000Y-76912500D03*
X132000000Y-75087500D03*
%TD*%
%TO.C,R6*%
X142000000Y-76912500D03*
X142000000Y-75087500D03*
%TD*%
M02*
