M48
; DRILL file {KiCad 7.0.8} date Wed Oct 18 11:28:28 2023
; FORMAT={-:-/ absolute / inch / decimal}
; #@! TF.CreationDate,2023-10-18T11:28:28-05:00
; #@! TF.GenerationSoftware,Kicad,Pcbnew,7.0.8
; #@! TF.FileFunction,Plated,1,2,PTH
FMAT,2
INCH
; #@! TA.AperFunction,Plated,PTH,ViaDrill
T1C0.0197
; #@! TA.AperFunction,Plated,PTH,ComponentDrill
T2C0.0315
; #@! TA.AperFunction,Plated,PTH,ComponentDrill
T3C0.0450
; #@! TA.AperFunction,Plated,PTH,ComponentDrill
T4C0.0472
; #@! TA.AperFunction,Plated,PTH,ComponentDrill
T5C0.1063
%
G90
G05
T1
X4.23Y-2.8929
X4.8031Y-3.2712
X5.0Y-3.0709
X5.189Y-3.2712
X5.1969Y-3.0709
X5.3622Y-3.2712
X5.3937Y-3.0709
X5.5906Y-3.0709
T2
X4.6634Y-2.6595
X4.7634Y-2.6595
X4.8634Y-2.6595
X4.9634Y-2.6595
X5.0634Y-1.8595
X5.0634Y-2.6595
X5.1634Y-1.8595
X5.1634Y-2.6595
X5.2634Y-1.8595
X5.2634Y-2.6595
X5.3634Y-1.8595
X5.3634Y-2.6595
X5.4634Y-1.8595
X5.4634Y-2.6595
X5.5634Y-1.8595
X5.5634Y-2.6595
X5.6634Y-1.8595
X5.6634Y-2.6595
X5.7634Y-1.8595
X5.7634Y-2.6595
X5.8634Y-1.8595
X5.8634Y-2.6595
X5.9634Y-1.8595
X5.9634Y-2.6595
X6.0634Y-1.8595
X6.0634Y-2.6595
X6.1634Y-1.8595
X6.1634Y-2.6595
T3
X6.9882Y-2.6028
X6.9882Y-2.7028
X6.9882Y-3.1028
X6.9882Y-3.3028
T4
X4.9311Y-3.8976
X5.0689Y-3.8976
X5.2067Y-3.8976
X5.3445Y-3.8976
X5.4823Y-3.8976
X5.6201Y-3.8976
X5.7579Y-3.8976
X5.8957Y-3.8976
T5
X3.8976Y-2.4016
X3.8976Y-3.5039
X4.6457Y-3.8976
X6.1811Y-3.8976
X6.9291Y-2.4016
X6.9291Y-3.5039
T0
M30
