%TF.GenerationSoftware,KiCad,Pcbnew,7.0.8*%
%TF.CreationDate,2023-10-18T11:28:30-05:00*%
%TF.ProjectId,ESP32_Garage_Door_Controller,45535033-325f-4476-9172-6167655f446f,rev?*%
%TF.SameCoordinates,Original*%
%TF.FileFunction,Legend,Top*%
%TF.FilePolarity,Positive*%
%FSLAX46Y46*%
G04 Gerber Fmt 4.6, Leading zero omitted, Abs format (unit mm)*
G04 Created by KiCad (PCBNEW 7.0.8) date 2023-10-18 11:28:30*
%MOMM*%
%LPD*%
G01*
G04 APERTURE LIST*
%ADD10C,0.150000*%
%ADD11C,0.200000*%
%ADD12C,0.300000*%
%ADD13C,0.250000*%
%ADD14C,0.152400*%
%ADD15C,0.120000*%
%ADD16C,0.254000*%
G04 APERTURE END LIST*
D10*
X123517500Y-87000000D02*
X127017500Y-87000000D01*
X127017500Y-90500000D01*
X123517500Y-90500000D01*
X123517500Y-87000000D01*
X123517500Y-90500000D02*
X137517500Y-90500000D01*
X137517500Y-94000000D01*
X123517500Y-94000000D01*
X123517500Y-90500000D01*
X127017500Y-87000000D02*
X130517500Y-87000000D01*
X130517500Y-90500000D01*
X127017500Y-90500000D01*
X127017500Y-87000000D01*
X134017500Y-87000000D02*
X137517500Y-87000000D01*
X137517500Y-90500000D01*
X134017500Y-90500000D01*
X134017500Y-87000000D01*
X137517500Y-87000000D02*
X144517500Y-87000000D01*
X144517500Y-94000000D01*
X137517500Y-94000000D01*
X137517500Y-87000000D01*
X130517500Y-87000000D02*
X134017500Y-87000000D01*
X134017500Y-90500000D01*
X130517500Y-90500000D01*
X130517500Y-87000000D01*
X144517500Y-87000000D02*
X151517500Y-87000000D01*
X151517500Y-94000000D01*
X144517500Y-94000000D01*
X144517500Y-87000000D01*
D11*
X145279404Y-90666504D02*
X145755594Y-90666504D01*
X145184166Y-90952219D02*
X145517499Y-89952219D01*
X145517499Y-89952219D02*
X145850832Y-90952219D01*
X146612737Y-90904600D02*
X146517499Y-90952219D01*
X146517499Y-90952219D02*
X146327023Y-90952219D01*
X146327023Y-90952219D02*
X146231785Y-90904600D01*
X146231785Y-90904600D02*
X146184166Y-90856980D01*
X146184166Y-90856980D02*
X146136547Y-90761742D01*
X146136547Y-90761742D02*
X146136547Y-90476028D01*
X146136547Y-90476028D02*
X146184166Y-90380790D01*
X146184166Y-90380790D02*
X146231785Y-90333171D01*
X146231785Y-90333171D02*
X146327023Y-90285552D01*
X146327023Y-90285552D02*
X146517499Y-90285552D01*
X146517499Y-90285552D02*
X146612737Y-90333171D01*
X146898452Y-90285552D02*
X147279404Y-90285552D01*
X147041309Y-89952219D02*
X147041309Y-90809361D01*
X147041309Y-90809361D02*
X147088928Y-90904600D01*
X147088928Y-90904600D02*
X147184166Y-90952219D01*
X147184166Y-90952219D02*
X147279404Y-90952219D01*
X147612738Y-90952219D02*
X147612738Y-90285552D01*
X147612738Y-89952219D02*
X147565119Y-89999838D01*
X147565119Y-89999838D02*
X147612738Y-90047457D01*
X147612738Y-90047457D02*
X147660357Y-89999838D01*
X147660357Y-89999838D02*
X147612738Y-89952219D01*
X147612738Y-89952219D02*
X147612738Y-90047457D01*
X147993690Y-90285552D02*
X148231785Y-90952219D01*
X148231785Y-90952219D02*
X148469880Y-90285552D01*
X149279404Y-90952219D02*
X149279404Y-90428409D01*
X149279404Y-90428409D02*
X149231785Y-90333171D01*
X149231785Y-90333171D02*
X149136547Y-90285552D01*
X149136547Y-90285552D02*
X148946071Y-90285552D01*
X148946071Y-90285552D02*
X148850833Y-90333171D01*
X149279404Y-90904600D02*
X149184166Y-90952219D01*
X149184166Y-90952219D02*
X148946071Y-90952219D01*
X148946071Y-90952219D02*
X148850833Y-90904600D01*
X148850833Y-90904600D02*
X148803214Y-90809361D01*
X148803214Y-90809361D02*
X148803214Y-90714123D01*
X148803214Y-90714123D02*
X148850833Y-90618885D01*
X148850833Y-90618885D02*
X148946071Y-90571266D01*
X148946071Y-90571266D02*
X149184166Y-90571266D01*
X149184166Y-90571266D02*
X149279404Y-90523647D01*
X149612738Y-90285552D02*
X149993690Y-90285552D01*
X149755595Y-89952219D02*
X149755595Y-90809361D01*
X149755595Y-90809361D02*
X149803214Y-90904600D01*
X149803214Y-90904600D02*
X149898452Y-90952219D01*
X149898452Y-90952219D02*
X149993690Y-90952219D01*
X150707976Y-90904600D02*
X150612738Y-90952219D01*
X150612738Y-90952219D02*
X150422262Y-90952219D01*
X150422262Y-90952219D02*
X150327024Y-90904600D01*
X150327024Y-90904600D02*
X150279405Y-90809361D01*
X150279405Y-90809361D02*
X150279405Y-90428409D01*
X150279405Y-90428409D02*
X150327024Y-90333171D01*
X150327024Y-90333171D02*
X150422262Y-90285552D01*
X150422262Y-90285552D02*
X150612738Y-90285552D01*
X150612738Y-90285552D02*
X150707976Y-90333171D01*
X150707976Y-90333171D02*
X150755595Y-90428409D01*
X150755595Y-90428409D02*
X150755595Y-90523647D01*
X150755595Y-90523647D02*
X150279405Y-90618885D01*
D12*
X125041309Y-92112019D02*
X125707976Y-92112019D01*
X125993690Y-93159638D02*
X125041309Y-93159638D01*
X125041309Y-93159638D02*
X125041309Y-91159638D01*
X125041309Y-91159638D02*
X125993690Y-91159638D01*
X126850833Y-91826304D02*
X126850833Y-93159638D01*
X126850833Y-92016780D02*
X126946071Y-91921542D01*
X126946071Y-91921542D02*
X127136547Y-91826304D01*
X127136547Y-91826304D02*
X127422262Y-91826304D01*
X127422262Y-91826304D02*
X127612738Y-91921542D01*
X127612738Y-91921542D02*
X127707976Y-92112019D01*
X127707976Y-92112019D02*
X127707976Y-93159638D01*
X129517500Y-93064400D02*
X129327024Y-93159638D01*
X129327024Y-93159638D02*
X128946071Y-93159638D01*
X128946071Y-93159638D02*
X128755595Y-93064400D01*
X128755595Y-93064400D02*
X128660357Y-92969161D01*
X128660357Y-92969161D02*
X128565119Y-92778685D01*
X128565119Y-92778685D02*
X128565119Y-92207257D01*
X128565119Y-92207257D02*
X128660357Y-92016780D01*
X128660357Y-92016780D02*
X128755595Y-91921542D01*
X128755595Y-91921542D02*
X128946071Y-91826304D01*
X128946071Y-91826304D02*
X129327024Y-91826304D01*
X129327024Y-91826304D02*
X129517500Y-91921542D01*
X130660357Y-93159638D02*
X130469881Y-93064400D01*
X130469881Y-93064400D02*
X130374643Y-92969161D01*
X130374643Y-92969161D02*
X130279405Y-92778685D01*
X130279405Y-92778685D02*
X130279405Y-92207257D01*
X130279405Y-92207257D02*
X130374643Y-92016780D01*
X130374643Y-92016780D02*
X130469881Y-91921542D01*
X130469881Y-91921542D02*
X130660357Y-91826304D01*
X130660357Y-91826304D02*
X130946072Y-91826304D01*
X130946072Y-91826304D02*
X131136548Y-91921542D01*
X131136548Y-91921542D02*
X131231786Y-92016780D01*
X131231786Y-92016780D02*
X131327024Y-92207257D01*
X131327024Y-92207257D02*
X131327024Y-92778685D01*
X131327024Y-92778685D02*
X131231786Y-92969161D01*
X131231786Y-92969161D02*
X131136548Y-93064400D01*
X131136548Y-93064400D02*
X130946072Y-93159638D01*
X130946072Y-93159638D02*
X130660357Y-93159638D01*
X133041310Y-93159638D02*
X133041310Y-91159638D01*
X133041310Y-93064400D02*
X132850834Y-93159638D01*
X132850834Y-93159638D02*
X132469881Y-93159638D01*
X132469881Y-93159638D02*
X132279405Y-93064400D01*
X132279405Y-93064400D02*
X132184167Y-92969161D01*
X132184167Y-92969161D02*
X132088929Y-92778685D01*
X132088929Y-92778685D02*
X132088929Y-92207257D01*
X132088929Y-92207257D02*
X132184167Y-92016780D01*
X132184167Y-92016780D02*
X132279405Y-91921542D01*
X132279405Y-91921542D02*
X132469881Y-91826304D01*
X132469881Y-91826304D02*
X132850834Y-91826304D01*
X132850834Y-91826304D02*
X133041310Y-91921542D01*
X134755596Y-93064400D02*
X134565120Y-93159638D01*
X134565120Y-93159638D02*
X134184167Y-93159638D01*
X134184167Y-93159638D02*
X133993691Y-93064400D01*
X133993691Y-93064400D02*
X133898453Y-92873923D01*
X133898453Y-92873923D02*
X133898453Y-92112019D01*
X133898453Y-92112019D02*
X133993691Y-91921542D01*
X133993691Y-91921542D02*
X134184167Y-91826304D01*
X134184167Y-91826304D02*
X134565120Y-91826304D01*
X134565120Y-91826304D02*
X134755596Y-91921542D01*
X134755596Y-91921542D02*
X134850834Y-92112019D01*
X134850834Y-92112019D02*
X134850834Y-92302495D01*
X134850834Y-92302495D02*
X133898453Y-92492971D01*
X135707977Y-93159638D02*
X135707977Y-91826304D01*
X135707977Y-92207257D02*
X135803215Y-92016780D01*
X135803215Y-92016780D02*
X135898453Y-91921542D01*
X135898453Y-91921542D02*
X136088929Y-91826304D01*
X136088929Y-91826304D02*
X136279406Y-91826304D01*
D11*
X139374643Y-92802219D02*
X139374643Y-91802219D01*
X139850833Y-92135552D02*
X139850833Y-92802219D01*
X139850833Y-92230790D02*
X139898452Y-92183171D01*
X139898452Y-92183171D02*
X139993690Y-92135552D01*
X139993690Y-92135552D02*
X140136547Y-92135552D01*
X140136547Y-92135552D02*
X140231785Y-92183171D01*
X140231785Y-92183171D02*
X140279404Y-92278409D01*
X140279404Y-92278409D02*
X140279404Y-92802219D01*
X140755595Y-92135552D02*
X140755595Y-93135552D01*
X140755595Y-92183171D02*
X140850833Y-92135552D01*
X140850833Y-92135552D02*
X141041309Y-92135552D01*
X141041309Y-92135552D02*
X141136547Y-92183171D01*
X141136547Y-92183171D02*
X141184166Y-92230790D01*
X141184166Y-92230790D02*
X141231785Y-92326028D01*
X141231785Y-92326028D02*
X141231785Y-92611742D01*
X141231785Y-92611742D02*
X141184166Y-92706980D01*
X141184166Y-92706980D02*
X141136547Y-92754600D01*
X141136547Y-92754600D02*
X141041309Y-92802219D01*
X141041309Y-92802219D02*
X140850833Y-92802219D01*
X140850833Y-92802219D02*
X140755595Y-92754600D01*
X142088928Y-92135552D02*
X142088928Y-92802219D01*
X141660357Y-92135552D02*
X141660357Y-92659361D01*
X141660357Y-92659361D02*
X141707976Y-92754600D01*
X141707976Y-92754600D02*
X141803214Y-92802219D01*
X141803214Y-92802219D02*
X141946071Y-92802219D01*
X141946071Y-92802219D02*
X142041309Y-92754600D01*
X142041309Y-92754600D02*
X142088928Y-92706980D01*
X142422262Y-92135552D02*
X142803214Y-92135552D01*
X142565119Y-91802219D02*
X142565119Y-92659361D01*
X142565119Y-92659361D02*
X142612738Y-92754600D01*
X142612738Y-92754600D02*
X142707976Y-92802219D01*
X142707976Y-92802219D02*
X142803214Y-92802219D01*
X128838928Y-88678409D02*
X128981785Y-88726028D01*
X128981785Y-88726028D02*
X129029404Y-88773647D01*
X129029404Y-88773647D02*
X129077023Y-88868885D01*
X129077023Y-88868885D02*
X129077023Y-89011742D01*
X129077023Y-89011742D02*
X129029404Y-89106980D01*
X129029404Y-89106980D02*
X128981785Y-89154600D01*
X128981785Y-89154600D02*
X128886547Y-89202219D01*
X128886547Y-89202219D02*
X128505595Y-89202219D01*
X128505595Y-89202219D02*
X128505595Y-88202219D01*
X128505595Y-88202219D02*
X128838928Y-88202219D01*
X128838928Y-88202219D02*
X128934166Y-88249838D01*
X128934166Y-88249838D02*
X128981785Y-88297457D01*
X128981785Y-88297457D02*
X129029404Y-88392695D01*
X129029404Y-88392695D02*
X129029404Y-88487933D01*
X129029404Y-88487933D02*
X128981785Y-88583171D01*
X128981785Y-88583171D02*
X128934166Y-88630790D01*
X128934166Y-88630790D02*
X128838928Y-88678409D01*
X128838928Y-88678409D02*
X128505595Y-88678409D01*
X146541309Y-89202219D02*
X146541309Y-88202219D01*
X146541309Y-88202219D02*
X146779404Y-88202219D01*
X146779404Y-88202219D02*
X146922261Y-88249838D01*
X146922261Y-88249838D02*
X147017499Y-88345076D01*
X147017499Y-88345076D02*
X147065118Y-88440314D01*
X147065118Y-88440314D02*
X147112737Y-88630790D01*
X147112737Y-88630790D02*
X147112737Y-88773647D01*
X147112737Y-88773647D02*
X147065118Y-88964123D01*
X147065118Y-88964123D02*
X147017499Y-89059361D01*
X147017499Y-89059361D02*
X146922261Y-89154600D01*
X146922261Y-89154600D02*
X146779404Y-89202219D01*
X146779404Y-89202219D02*
X146541309Y-89202219D01*
X147684166Y-89202219D02*
X147588928Y-89154600D01*
X147588928Y-89154600D02*
X147541309Y-89106980D01*
X147541309Y-89106980D02*
X147493690Y-89011742D01*
X147493690Y-89011742D02*
X147493690Y-88726028D01*
X147493690Y-88726028D02*
X147541309Y-88630790D01*
X147541309Y-88630790D02*
X147588928Y-88583171D01*
X147588928Y-88583171D02*
X147684166Y-88535552D01*
X147684166Y-88535552D02*
X147827023Y-88535552D01*
X147827023Y-88535552D02*
X147922261Y-88583171D01*
X147922261Y-88583171D02*
X147969880Y-88630790D01*
X147969880Y-88630790D02*
X148017499Y-88726028D01*
X148017499Y-88726028D02*
X148017499Y-89011742D01*
X148017499Y-89011742D02*
X147969880Y-89106980D01*
X147969880Y-89106980D02*
X147922261Y-89154600D01*
X147922261Y-89154600D02*
X147827023Y-89202219D01*
X147827023Y-89202219D02*
X147684166Y-89202219D01*
X148588928Y-89202219D02*
X148493690Y-89154600D01*
X148493690Y-89154600D02*
X148446071Y-89106980D01*
X148446071Y-89106980D02*
X148398452Y-89011742D01*
X148398452Y-89011742D02*
X148398452Y-88726028D01*
X148398452Y-88726028D02*
X148446071Y-88630790D01*
X148446071Y-88630790D02*
X148493690Y-88583171D01*
X148493690Y-88583171D02*
X148588928Y-88535552D01*
X148588928Y-88535552D02*
X148731785Y-88535552D01*
X148731785Y-88535552D02*
X148827023Y-88583171D01*
X148827023Y-88583171D02*
X148874642Y-88630790D01*
X148874642Y-88630790D02*
X148922261Y-88726028D01*
X148922261Y-88726028D02*
X148922261Y-89011742D01*
X148922261Y-89011742D02*
X148874642Y-89106980D01*
X148874642Y-89106980D02*
X148827023Y-89154600D01*
X148827023Y-89154600D02*
X148731785Y-89202219D01*
X148731785Y-89202219D02*
X148588928Y-89202219D01*
X149350833Y-89202219D02*
X149350833Y-88535552D01*
X149350833Y-88726028D02*
X149398452Y-88630790D01*
X149398452Y-88630790D02*
X149446071Y-88583171D01*
X149446071Y-88583171D02*
X149541309Y-88535552D01*
X149541309Y-88535552D02*
X149636547Y-88535552D01*
X139541309Y-89302219D02*
X139541309Y-88302219D01*
X139541309Y-88302219D02*
X139779404Y-88302219D01*
X139779404Y-88302219D02*
X139922261Y-88349838D01*
X139922261Y-88349838D02*
X140017499Y-88445076D01*
X140017499Y-88445076D02*
X140065118Y-88540314D01*
X140065118Y-88540314D02*
X140112737Y-88730790D01*
X140112737Y-88730790D02*
X140112737Y-88873647D01*
X140112737Y-88873647D02*
X140065118Y-89064123D01*
X140065118Y-89064123D02*
X140017499Y-89159361D01*
X140017499Y-89159361D02*
X139922261Y-89254600D01*
X139922261Y-89254600D02*
X139779404Y-89302219D01*
X139779404Y-89302219D02*
X139541309Y-89302219D01*
X140684166Y-89302219D02*
X140588928Y-89254600D01*
X140588928Y-89254600D02*
X140541309Y-89206980D01*
X140541309Y-89206980D02*
X140493690Y-89111742D01*
X140493690Y-89111742D02*
X140493690Y-88826028D01*
X140493690Y-88826028D02*
X140541309Y-88730790D01*
X140541309Y-88730790D02*
X140588928Y-88683171D01*
X140588928Y-88683171D02*
X140684166Y-88635552D01*
X140684166Y-88635552D02*
X140827023Y-88635552D01*
X140827023Y-88635552D02*
X140922261Y-88683171D01*
X140922261Y-88683171D02*
X140969880Y-88730790D01*
X140969880Y-88730790D02*
X141017499Y-88826028D01*
X141017499Y-88826028D02*
X141017499Y-89111742D01*
X141017499Y-89111742D02*
X140969880Y-89206980D01*
X140969880Y-89206980D02*
X140922261Y-89254600D01*
X140922261Y-89254600D02*
X140827023Y-89302219D01*
X140827023Y-89302219D02*
X140684166Y-89302219D01*
X141588928Y-89302219D02*
X141493690Y-89254600D01*
X141493690Y-89254600D02*
X141446071Y-89206980D01*
X141446071Y-89206980D02*
X141398452Y-89111742D01*
X141398452Y-89111742D02*
X141398452Y-88826028D01*
X141398452Y-88826028D02*
X141446071Y-88730790D01*
X141446071Y-88730790D02*
X141493690Y-88683171D01*
X141493690Y-88683171D02*
X141588928Y-88635552D01*
X141588928Y-88635552D02*
X141731785Y-88635552D01*
X141731785Y-88635552D02*
X141827023Y-88683171D01*
X141827023Y-88683171D02*
X141874642Y-88730790D01*
X141874642Y-88730790D02*
X141922261Y-88826028D01*
X141922261Y-88826028D02*
X141922261Y-89111742D01*
X141922261Y-89111742D02*
X141874642Y-89206980D01*
X141874642Y-89206980D02*
X141827023Y-89254600D01*
X141827023Y-89254600D02*
X141731785Y-89302219D01*
X141731785Y-89302219D02*
X141588928Y-89302219D01*
X142350833Y-89302219D02*
X142350833Y-88635552D01*
X142350833Y-88826028D02*
X142398452Y-88730790D01*
X142398452Y-88730790D02*
X142446071Y-88683171D01*
X142446071Y-88683171D02*
X142541309Y-88635552D01*
X142541309Y-88635552D02*
X142636547Y-88635552D01*
D13*
X106878758Y-90388428D02*
X106378758Y-89674142D01*
X106021615Y-90388428D02*
X106021615Y-88888428D01*
X106021615Y-88888428D02*
X106593044Y-88888428D01*
X106593044Y-88888428D02*
X106735901Y-88959857D01*
X106735901Y-88959857D02*
X106807330Y-89031285D01*
X106807330Y-89031285D02*
X106878758Y-89174142D01*
X106878758Y-89174142D02*
X106878758Y-89388428D01*
X106878758Y-89388428D02*
X106807330Y-89531285D01*
X106807330Y-89531285D02*
X106735901Y-89602714D01*
X106735901Y-89602714D02*
X106593044Y-89674142D01*
X106593044Y-89674142D02*
X106021615Y-89674142D01*
X108093044Y-90317000D02*
X107950187Y-90388428D01*
X107950187Y-90388428D02*
X107664473Y-90388428D01*
X107664473Y-90388428D02*
X107521615Y-90317000D01*
X107521615Y-90317000D02*
X107450187Y-90174142D01*
X107450187Y-90174142D02*
X107450187Y-89602714D01*
X107450187Y-89602714D02*
X107521615Y-89459857D01*
X107521615Y-89459857D02*
X107664473Y-89388428D01*
X107664473Y-89388428D02*
X107950187Y-89388428D01*
X107950187Y-89388428D02*
X108093044Y-89459857D01*
X108093044Y-89459857D02*
X108164473Y-89602714D01*
X108164473Y-89602714D02*
X108164473Y-89745571D01*
X108164473Y-89745571D02*
X107450187Y-89888428D01*
X108664472Y-89388428D02*
X109021615Y-90388428D01*
X109021615Y-90388428D02*
X109378758Y-89388428D01*
X109950186Y-90245571D02*
X110021615Y-90317000D01*
X110021615Y-90317000D02*
X109950186Y-90388428D01*
X109950186Y-90388428D02*
X109878758Y-90317000D01*
X109878758Y-90317000D02*
X109950186Y-90245571D01*
X109950186Y-90245571D02*
X109950186Y-90388428D01*
X109950186Y-89459857D02*
X110021615Y-89531285D01*
X110021615Y-89531285D02*
X109950186Y-89602714D01*
X109950186Y-89602714D02*
X109878758Y-89531285D01*
X109878758Y-89531285D02*
X109950186Y-89459857D01*
X109950186Y-89459857D02*
X109950186Y-89602714D01*
X111735901Y-89959857D02*
X112450187Y-89959857D01*
X111593044Y-90388428D02*
X112093044Y-88888428D01*
X112093044Y-88888428D02*
X112593044Y-90388428D01*
X106807330Y-92803428D02*
X105950187Y-92803428D01*
X106378758Y-92803428D02*
X106378758Y-91303428D01*
X106378758Y-91303428D02*
X106235901Y-91517714D01*
X106235901Y-91517714D02*
X106093044Y-91660571D01*
X106093044Y-91660571D02*
X105950187Y-91732000D01*
X107735901Y-91303428D02*
X107878758Y-91303428D01*
X107878758Y-91303428D02*
X108021615Y-91374857D01*
X108021615Y-91374857D02*
X108093044Y-91446285D01*
X108093044Y-91446285D02*
X108164472Y-91589142D01*
X108164472Y-91589142D02*
X108235901Y-91874857D01*
X108235901Y-91874857D02*
X108235901Y-92232000D01*
X108235901Y-92232000D02*
X108164472Y-92517714D01*
X108164472Y-92517714D02*
X108093044Y-92660571D01*
X108093044Y-92660571D02*
X108021615Y-92732000D01*
X108021615Y-92732000D02*
X107878758Y-92803428D01*
X107878758Y-92803428D02*
X107735901Y-92803428D01*
X107735901Y-92803428D02*
X107593044Y-92732000D01*
X107593044Y-92732000D02*
X107521615Y-92660571D01*
X107521615Y-92660571D02*
X107450186Y-92517714D01*
X107450186Y-92517714D02*
X107378758Y-92232000D01*
X107378758Y-92232000D02*
X107378758Y-91874857D01*
X107378758Y-91874857D02*
X107450186Y-91589142D01*
X107450186Y-91589142D02*
X107521615Y-91446285D01*
X107521615Y-91446285D02*
X107593044Y-91374857D01*
X107593044Y-91374857D02*
X107735901Y-91303428D01*
X108878757Y-92232000D02*
X110021615Y-92232000D01*
X111521615Y-92803428D02*
X110664472Y-92803428D01*
X111093043Y-92803428D02*
X111093043Y-91303428D01*
X111093043Y-91303428D02*
X110950186Y-91517714D01*
X110950186Y-91517714D02*
X110807329Y-91660571D01*
X110807329Y-91660571D02*
X110664472Y-91732000D01*
X112378757Y-91946285D02*
X112235900Y-91874857D01*
X112235900Y-91874857D02*
X112164471Y-91803428D01*
X112164471Y-91803428D02*
X112093043Y-91660571D01*
X112093043Y-91660571D02*
X112093043Y-91589142D01*
X112093043Y-91589142D02*
X112164471Y-91446285D01*
X112164471Y-91446285D02*
X112235900Y-91374857D01*
X112235900Y-91374857D02*
X112378757Y-91303428D01*
X112378757Y-91303428D02*
X112664471Y-91303428D01*
X112664471Y-91303428D02*
X112807329Y-91374857D01*
X112807329Y-91374857D02*
X112878757Y-91446285D01*
X112878757Y-91446285D02*
X112950186Y-91589142D01*
X112950186Y-91589142D02*
X112950186Y-91660571D01*
X112950186Y-91660571D02*
X112878757Y-91803428D01*
X112878757Y-91803428D02*
X112807329Y-91874857D01*
X112807329Y-91874857D02*
X112664471Y-91946285D01*
X112664471Y-91946285D02*
X112378757Y-91946285D01*
X112378757Y-91946285D02*
X112235900Y-92017714D01*
X112235900Y-92017714D02*
X112164471Y-92089142D01*
X112164471Y-92089142D02*
X112093043Y-92232000D01*
X112093043Y-92232000D02*
X112093043Y-92517714D01*
X112093043Y-92517714D02*
X112164471Y-92660571D01*
X112164471Y-92660571D02*
X112235900Y-92732000D01*
X112235900Y-92732000D02*
X112378757Y-92803428D01*
X112378757Y-92803428D02*
X112664471Y-92803428D01*
X112664471Y-92803428D02*
X112807329Y-92732000D01*
X112807329Y-92732000D02*
X112878757Y-92660571D01*
X112878757Y-92660571D02*
X112950186Y-92517714D01*
X112950186Y-92517714D02*
X112950186Y-92232000D01*
X112950186Y-92232000D02*
X112878757Y-92089142D01*
X112878757Y-92089142D02*
X112807329Y-92017714D01*
X112807329Y-92017714D02*
X112664471Y-91946285D01*
X113593042Y-92232000D02*
X114735900Y-92232000D01*
X115378757Y-91446285D02*
X115450185Y-91374857D01*
X115450185Y-91374857D02*
X115593043Y-91303428D01*
X115593043Y-91303428D02*
X115950185Y-91303428D01*
X115950185Y-91303428D02*
X116093043Y-91374857D01*
X116093043Y-91374857D02*
X116164471Y-91446285D01*
X116164471Y-91446285D02*
X116235900Y-91589142D01*
X116235900Y-91589142D02*
X116235900Y-91732000D01*
X116235900Y-91732000D02*
X116164471Y-91946285D01*
X116164471Y-91946285D02*
X115307328Y-92803428D01*
X115307328Y-92803428D02*
X116235900Y-92803428D01*
X117164471Y-91303428D02*
X117307328Y-91303428D01*
X117307328Y-91303428D02*
X117450185Y-91374857D01*
X117450185Y-91374857D02*
X117521614Y-91446285D01*
X117521614Y-91446285D02*
X117593042Y-91589142D01*
X117593042Y-91589142D02*
X117664471Y-91874857D01*
X117664471Y-91874857D02*
X117664471Y-92232000D01*
X117664471Y-92232000D02*
X117593042Y-92517714D01*
X117593042Y-92517714D02*
X117521614Y-92660571D01*
X117521614Y-92660571D02*
X117450185Y-92732000D01*
X117450185Y-92732000D02*
X117307328Y-92803428D01*
X117307328Y-92803428D02*
X117164471Y-92803428D01*
X117164471Y-92803428D02*
X117021614Y-92732000D01*
X117021614Y-92732000D02*
X116950185Y-92660571D01*
X116950185Y-92660571D02*
X116878756Y-92517714D01*
X116878756Y-92517714D02*
X116807328Y-92232000D01*
X116807328Y-92232000D02*
X116807328Y-91874857D01*
X116807328Y-91874857D02*
X116878756Y-91589142D01*
X116878756Y-91589142D02*
X116950185Y-91446285D01*
X116950185Y-91446285D02*
X117021614Y-91374857D01*
X117021614Y-91374857D02*
X117164471Y-91303428D01*
X118235899Y-91446285D02*
X118307327Y-91374857D01*
X118307327Y-91374857D02*
X118450185Y-91303428D01*
X118450185Y-91303428D02*
X118807327Y-91303428D01*
X118807327Y-91303428D02*
X118950185Y-91374857D01*
X118950185Y-91374857D02*
X119021613Y-91446285D01*
X119021613Y-91446285D02*
X119093042Y-91589142D01*
X119093042Y-91589142D02*
X119093042Y-91732000D01*
X119093042Y-91732000D02*
X119021613Y-91946285D01*
X119021613Y-91946285D02*
X118164470Y-92803428D01*
X118164470Y-92803428D02*
X119093042Y-92803428D01*
X119593041Y-91303428D02*
X120521613Y-91303428D01*
X120521613Y-91303428D02*
X120021613Y-91874857D01*
X120021613Y-91874857D02*
X120235898Y-91874857D01*
X120235898Y-91874857D02*
X120378756Y-91946285D01*
X120378756Y-91946285D02*
X120450184Y-92017714D01*
X120450184Y-92017714D02*
X120521613Y-92160571D01*
X120521613Y-92160571D02*
X120521613Y-92517714D01*
X120521613Y-92517714D02*
X120450184Y-92660571D01*
X120450184Y-92660571D02*
X120378756Y-92732000D01*
X120378756Y-92732000D02*
X120235898Y-92803428D01*
X120235898Y-92803428D02*
X119807327Y-92803428D01*
X119807327Y-92803428D02*
X119664470Y-92732000D01*
X119664470Y-92732000D02*
X119593041Y-92660571D01*
D11*
X134434167Y-88302219D02*
X134767500Y-89302219D01*
X134767500Y-89302219D02*
X135100833Y-88302219D01*
X136005595Y-89206980D02*
X135957976Y-89254600D01*
X135957976Y-89254600D02*
X135815119Y-89302219D01*
X135815119Y-89302219D02*
X135719881Y-89302219D01*
X135719881Y-89302219D02*
X135577024Y-89254600D01*
X135577024Y-89254600D02*
X135481786Y-89159361D01*
X135481786Y-89159361D02*
X135434167Y-89064123D01*
X135434167Y-89064123D02*
X135386548Y-88873647D01*
X135386548Y-88873647D02*
X135386548Y-88730790D01*
X135386548Y-88730790D02*
X135434167Y-88540314D01*
X135434167Y-88540314D02*
X135481786Y-88445076D01*
X135481786Y-88445076D02*
X135577024Y-88349838D01*
X135577024Y-88349838D02*
X135719881Y-88302219D01*
X135719881Y-88302219D02*
X135815119Y-88302219D01*
X135815119Y-88302219D02*
X135957976Y-88349838D01*
X135957976Y-88349838D02*
X136005595Y-88397457D01*
X137005595Y-89206980D02*
X136957976Y-89254600D01*
X136957976Y-89254600D02*
X136815119Y-89302219D01*
X136815119Y-89302219D02*
X136719881Y-89302219D01*
X136719881Y-89302219D02*
X136577024Y-89254600D01*
X136577024Y-89254600D02*
X136481786Y-89159361D01*
X136481786Y-89159361D02*
X136434167Y-89064123D01*
X136434167Y-89064123D02*
X136386548Y-88873647D01*
X136386548Y-88873647D02*
X136386548Y-88730790D01*
X136386548Y-88730790D02*
X136434167Y-88540314D01*
X136434167Y-88540314D02*
X136481786Y-88445076D01*
X136481786Y-88445076D02*
X136577024Y-88349838D01*
X136577024Y-88349838D02*
X136719881Y-88302219D01*
X136719881Y-88302219D02*
X136815119Y-88302219D01*
X136815119Y-88302219D02*
X136957976Y-88349838D01*
X136957976Y-88349838D02*
X137005595Y-88397457D01*
X139327023Y-90956980D02*
X139279404Y-91004600D01*
X139279404Y-91004600D02*
X139136547Y-91052219D01*
X139136547Y-91052219D02*
X139041309Y-91052219D01*
X139041309Y-91052219D02*
X138898452Y-91004600D01*
X138898452Y-91004600D02*
X138803214Y-90909361D01*
X138803214Y-90909361D02*
X138755595Y-90814123D01*
X138755595Y-90814123D02*
X138707976Y-90623647D01*
X138707976Y-90623647D02*
X138707976Y-90480790D01*
X138707976Y-90480790D02*
X138755595Y-90290314D01*
X138755595Y-90290314D02*
X138803214Y-90195076D01*
X138803214Y-90195076D02*
X138898452Y-90099838D01*
X138898452Y-90099838D02*
X139041309Y-90052219D01*
X139041309Y-90052219D02*
X139136547Y-90052219D01*
X139136547Y-90052219D02*
X139279404Y-90099838D01*
X139279404Y-90099838D02*
X139327023Y-90147457D01*
X139898452Y-91052219D02*
X139803214Y-91004600D01*
X139803214Y-91004600D02*
X139755595Y-90909361D01*
X139755595Y-90909361D02*
X139755595Y-90052219D01*
X140422262Y-91052219D02*
X140327024Y-91004600D01*
X140327024Y-91004600D02*
X140279405Y-90956980D01*
X140279405Y-90956980D02*
X140231786Y-90861742D01*
X140231786Y-90861742D02*
X140231786Y-90576028D01*
X140231786Y-90576028D02*
X140279405Y-90480790D01*
X140279405Y-90480790D02*
X140327024Y-90433171D01*
X140327024Y-90433171D02*
X140422262Y-90385552D01*
X140422262Y-90385552D02*
X140565119Y-90385552D01*
X140565119Y-90385552D02*
X140660357Y-90433171D01*
X140660357Y-90433171D02*
X140707976Y-90480790D01*
X140707976Y-90480790D02*
X140755595Y-90576028D01*
X140755595Y-90576028D02*
X140755595Y-90861742D01*
X140755595Y-90861742D02*
X140707976Y-90956980D01*
X140707976Y-90956980D02*
X140660357Y-91004600D01*
X140660357Y-91004600D02*
X140565119Y-91052219D01*
X140565119Y-91052219D02*
X140422262Y-91052219D01*
X141136548Y-91004600D02*
X141231786Y-91052219D01*
X141231786Y-91052219D02*
X141422262Y-91052219D01*
X141422262Y-91052219D02*
X141517500Y-91004600D01*
X141517500Y-91004600D02*
X141565119Y-90909361D01*
X141565119Y-90909361D02*
X141565119Y-90861742D01*
X141565119Y-90861742D02*
X141517500Y-90766504D01*
X141517500Y-90766504D02*
X141422262Y-90718885D01*
X141422262Y-90718885D02*
X141279405Y-90718885D01*
X141279405Y-90718885D02*
X141184167Y-90671266D01*
X141184167Y-90671266D02*
X141136548Y-90576028D01*
X141136548Y-90576028D02*
X141136548Y-90528409D01*
X141136548Y-90528409D02*
X141184167Y-90433171D01*
X141184167Y-90433171D02*
X141279405Y-90385552D01*
X141279405Y-90385552D02*
X141422262Y-90385552D01*
X141422262Y-90385552D02*
X141517500Y-90433171D01*
X142374643Y-91004600D02*
X142279405Y-91052219D01*
X142279405Y-91052219D02*
X142088929Y-91052219D01*
X142088929Y-91052219D02*
X141993691Y-91004600D01*
X141993691Y-91004600D02*
X141946072Y-90909361D01*
X141946072Y-90909361D02*
X141946072Y-90528409D01*
X141946072Y-90528409D02*
X141993691Y-90433171D01*
X141993691Y-90433171D02*
X142088929Y-90385552D01*
X142088929Y-90385552D02*
X142279405Y-90385552D01*
X142279405Y-90385552D02*
X142374643Y-90433171D01*
X142374643Y-90433171D02*
X142422262Y-90528409D01*
X142422262Y-90528409D02*
X142422262Y-90623647D01*
X142422262Y-90623647D02*
X141946072Y-90718885D01*
X143279405Y-91052219D02*
X143279405Y-90052219D01*
X143279405Y-91004600D02*
X143184167Y-91052219D01*
X143184167Y-91052219D02*
X142993691Y-91052219D01*
X142993691Y-91052219D02*
X142898453Y-91004600D01*
X142898453Y-91004600D02*
X142850834Y-90956980D01*
X142850834Y-90956980D02*
X142803215Y-90861742D01*
X142803215Y-90861742D02*
X142803215Y-90576028D01*
X142803215Y-90576028D02*
X142850834Y-90480790D01*
X142850834Y-90480790D02*
X142898453Y-90433171D01*
X142898453Y-90433171D02*
X142993691Y-90385552D01*
X142993691Y-90385552D02*
X143184167Y-90385552D01*
X143184167Y-90385552D02*
X143279405Y-90433171D01*
X131505595Y-88349838D02*
X131410357Y-88302219D01*
X131410357Y-88302219D02*
X131267500Y-88302219D01*
X131267500Y-88302219D02*
X131124643Y-88349838D01*
X131124643Y-88349838D02*
X131029405Y-88445076D01*
X131029405Y-88445076D02*
X130981786Y-88540314D01*
X130981786Y-88540314D02*
X130934167Y-88730790D01*
X130934167Y-88730790D02*
X130934167Y-88873647D01*
X130934167Y-88873647D02*
X130981786Y-89064123D01*
X130981786Y-89064123D02*
X131029405Y-89159361D01*
X131029405Y-89159361D02*
X131124643Y-89254600D01*
X131124643Y-89254600D02*
X131267500Y-89302219D01*
X131267500Y-89302219D02*
X131362738Y-89302219D01*
X131362738Y-89302219D02*
X131505595Y-89254600D01*
X131505595Y-89254600D02*
X131553214Y-89206980D01*
X131553214Y-89206980D02*
X131553214Y-88873647D01*
X131553214Y-88873647D02*
X131362738Y-88873647D01*
X131981786Y-89302219D02*
X131981786Y-88302219D01*
X131981786Y-88302219D02*
X132553214Y-89302219D01*
X132553214Y-89302219D02*
X132553214Y-88302219D01*
X133029405Y-89302219D02*
X133029405Y-88302219D01*
X133029405Y-88302219D02*
X133267500Y-88302219D01*
X133267500Y-88302219D02*
X133410357Y-88349838D01*
X133410357Y-88349838D02*
X133505595Y-88445076D01*
X133505595Y-88445076D02*
X133553214Y-88540314D01*
X133553214Y-88540314D02*
X133600833Y-88730790D01*
X133600833Y-88730790D02*
X133600833Y-88873647D01*
X133600833Y-88873647D02*
X133553214Y-89064123D01*
X133553214Y-89064123D02*
X133505595Y-89159361D01*
X133505595Y-89159361D02*
X133410357Y-89254600D01*
X133410357Y-89254600D02*
X133267500Y-89302219D01*
X133267500Y-89302219D02*
X133029405Y-89302219D01*
D12*
X171539638Y-85178572D02*
X169539638Y-85178572D01*
X169539638Y-85178572D02*
X170968209Y-84511905D01*
X170968209Y-84511905D02*
X169539638Y-83845239D01*
X169539638Y-83845239D02*
X171539638Y-83845239D01*
X171539638Y-82892858D02*
X170206304Y-82892858D01*
X169539638Y-82892858D02*
X169634876Y-82988096D01*
X169634876Y-82988096D02*
X169730114Y-82892858D01*
X169730114Y-82892858D02*
X169634876Y-82797620D01*
X169634876Y-82797620D02*
X169539638Y-82892858D01*
X169539638Y-82892858D02*
X169730114Y-82892858D01*
X171539638Y-81940477D02*
X169539638Y-81940477D01*
X170777733Y-81750001D02*
X171539638Y-81178572D01*
X170206304Y-81178572D02*
X170968209Y-81940477D01*
X171444400Y-79559524D02*
X171539638Y-79750000D01*
X171539638Y-79750000D02*
X171539638Y-80130953D01*
X171539638Y-80130953D02*
X171444400Y-80321429D01*
X171444400Y-80321429D02*
X171253923Y-80416667D01*
X171253923Y-80416667D02*
X170492019Y-80416667D01*
X170492019Y-80416667D02*
X170301542Y-80321429D01*
X170301542Y-80321429D02*
X170206304Y-80130953D01*
X170206304Y-80130953D02*
X170206304Y-79750000D01*
X170206304Y-79750000D02*
X170301542Y-79559524D01*
X170301542Y-79559524D02*
X170492019Y-79464286D01*
X170492019Y-79464286D02*
X170682495Y-79464286D01*
X170682495Y-79464286D02*
X170872971Y-80416667D01*
X171539638Y-76130952D02*
X171539638Y-77083333D01*
X171539638Y-77083333D02*
X169539638Y-77083333D01*
X171539638Y-74607142D02*
X170492019Y-74607142D01*
X170492019Y-74607142D02*
X170301542Y-74702380D01*
X170301542Y-74702380D02*
X170206304Y-74892856D01*
X170206304Y-74892856D02*
X170206304Y-75273809D01*
X170206304Y-75273809D02*
X170301542Y-75464285D01*
X171444400Y-74607142D02*
X171539638Y-74797618D01*
X171539638Y-74797618D02*
X171539638Y-75273809D01*
X171539638Y-75273809D02*
X171444400Y-75464285D01*
X171444400Y-75464285D02*
X171253923Y-75559523D01*
X171253923Y-75559523D02*
X171063447Y-75559523D01*
X171063447Y-75559523D02*
X170872971Y-75464285D01*
X170872971Y-75464285D02*
X170777733Y-75273809D01*
X170777733Y-75273809D02*
X170777733Y-74797618D01*
X170777733Y-74797618D02*
X170682495Y-74607142D01*
X170206304Y-73845237D02*
X171539638Y-73464285D01*
X171539638Y-73464285D02*
X170587257Y-73083332D01*
X170587257Y-73083332D02*
X171539638Y-72702380D01*
X171539638Y-72702380D02*
X170206304Y-72321428D01*
X171539638Y-71559523D02*
X170206304Y-71559523D01*
X170587257Y-71559523D02*
X170396780Y-71464285D01*
X170396780Y-71464285D02*
X170301542Y-71369047D01*
X170301542Y-71369047D02*
X170206304Y-71178571D01*
X170206304Y-71178571D02*
X170206304Y-70988094D01*
X171444400Y-69559523D02*
X171539638Y-69749999D01*
X171539638Y-69749999D02*
X171539638Y-70130952D01*
X171539638Y-70130952D02*
X171444400Y-70321428D01*
X171444400Y-70321428D02*
X171253923Y-70416666D01*
X171253923Y-70416666D02*
X170492019Y-70416666D01*
X170492019Y-70416666D02*
X170301542Y-70321428D01*
X170301542Y-70321428D02*
X170206304Y-70130952D01*
X170206304Y-70130952D02*
X170206304Y-69749999D01*
X170206304Y-69749999D02*
X170301542Y-69559523D01*
X170301542Y-69559523D02*
X170492019Y-69464285D01*
X170492019Y-69464285D02*
X170682495Y-69464285D01*
X170682495Y-69464285D02*
X170872971Y-70416666D01*
X170206304Y-68607142D02*
X171539638Y-68607142D01*
X170396780Y-68607142D02*
X170301542Y-68511904D01*
X170301542Y-68511904D02*
X170206304Y-68321428D01*
X170206304Y-68321428D02*
X170206304Y-68035713D01*
X170206304Y-68035713D02*
X170301542Y-67845237D01*
X170301542Y-67845237D02*
X170492019Y-67749999D01*
X170492019Y-67749999D02*
X171539638Y-67749999D01*
X171444400Y-65940475D02*
X171539638Y-66130951D01*
X171539638Y-66130951D02*
X171539638Y-66511904D01*
X171539638Y-66511904D02*
X171444400Y-66702380D01*
X171444400Y-66702380D02*
X171349161Y-66797618D01*
X171349161Y-66797618D02*
X171158685Y-66892856D01*
X171158685Y-66892856D02*
X170587257Y-66892856D01*
X170587257Y-66892856D02*
X170396780Y-66797618D01*
X170396780Y-66797618D02*
X170301542Y-66702380D01*
X170301542Y-66702380D02*
X170206304Y-66511904D01*
X170206304Y-66511904D02*
X170206304Y-66130951D01*
X170206304Y-66130951D02*
X170301542Y-65940475D01*
X171444400Y-64321427D02*
X171539638Y-64511903D01*
X171539638Y-64511903D02*
X171539638Y-64892856D01*
X171539638Y-64892856D02*
X171444400Y-65083332D01*
X171444400Y-65083332D02*
X171253923Y-65178570D01*
X171253923Y-65178570D02*
X170492019Y-65178570D01*
X170492019Y-65178570D02*
X170301542Y-65083332D01*
X170301542Y-65083332D02*
X170206304Y-64892856D01*
X170206304Y-64892856D02*
X170206304Y-64511903D01*
X170206304Y-64511903D02*
X170301542Y-64321427D01*
X170301542Y-64321427D02*
X170492019Y-64226189D01*
X170492019Y-64226189D02*
X170682495Y-64226189D01*
X170682495Y-64226189D02*
X170872971Y-65178570D01*
D11*
X145993690Y-91702219D02*
X146184166Y-91702219D01*
X146184166Y-91702219D02*
X146279404Y-91749838D01*
X146279404Y-91749838D02*
X146374642Y-91845076D01*
X146374642Y-91845076D02*
X146422261Y-92035552D01*
X146422261Y-92035552D02*
X146422261Y-92368885D01*
X146422261Y-92368885D02*
X146374642Y-92559361D01*
X146374642Y-92559361D02*
X146279404Y-92654600D01*
X146279404Y-92654600D02*
X146184166Y-92702219D01*
X146184166Y-92702219D02*
X145993690Y-92702219D01*
X145993690Y-92702219D02*
X145898452Y-92654600D01*
X145898452Y-92654600D02*
X145803214Y-92559361D01*
X145803214Y-92559361D02*
X145755595Y-92368885D01*
X145755595Y-92368885D02*
X145755595Y-92035552D01*
X145755595Y-92035552D02*
X145803214Y-91845076D01*
X145803214Y-91845076D02*
X145898452Y-91749838D01*
X145898452Y-91749838D02*
X145993690Y-91702219D01*
X147279404Y-92035552D02*
X147279404Y-92702219D01*
X146850833Y-92035552D02*
X146850833Y-92559361D01*
X146850833Y-92559361D02*
X146898452Y-92654600D01*
X146898452Y-92654600D02*
X146993690Y-92702219D01*
X146993690Y-92702219D02*
X147136547Y-92702219D01*
X147136547Y-92702219D02*
X147231785Y-92654600D01*
X147231785Y-92654600D02*
X147279404Y-92606980D01*
X147612738Y-92035552D02*
X147993690Y-92035552D01*
X147755595Y-91702219D02*
X147755595Y-92559361D01*
X147755595Y-92559361D02*
X147803214Y-92654600D01*
X147803214Y-92654600D02*
X147898452Y-92702219D01*
X147898452Y-92702219D02*
X147993690Y-92702219D01*
X148327024Y-92035552D02*
X148327024Y-93035552D01*
X148327024Y-92083171D02*
X148422262Y-92035552D01*
X148422262Y-92035552D02*
X148612738Y-92035552D01*
X148612738Y-92035552D02*
X148707976Y-92083171D01*
X148707976Y-92083171D02*
X148755595Y-92130790D01*
X148755595Y-92130790D02*
X148803214Y-92226028D01*
X148803214Y-92226028D02*
X148803214Y-92511742D01*
X148803214Y-92511742D02*
X148755595Y-92606980D01*
X148755595Y-92606980D02*
X148707976Y-92654600D01*
X148707976Y-92654600D02*
X148612738Y-92702219D01*
X148612738Y-92702219D02*
X148422262Y-92702219D01*
X148422262Y-92702219D02*
X148327024Y-92654600D01*
X149660357Y-92035552D02*
X149660357Y-92702219D01*
X149231786Y-92035552D02*
X149231786Y-92559361D01*
X149231786Y-92559361D02*
X149279405Y-92654600D01*
X149279405Y-92654600D02*
X149374643Y-92702219D01*
X149374643Y-92702219D02*
X149517500Y-92702219D01*
X149517500Y-92702219D02*
X149612738Y-92654600D01*
X149612738Y-92654600D02*
X149660357Y-92606980D01*
X149993691Y-92035552D02*
X150374643Y-92035552D01*
X150136548Y-91702219D02*
X150136548Y-92559361D01*
X150136548Y-92559361D02*
X150184167Y-92654600D01*
X150184167Y-92654600D02*
X150279405Y-92702219D01*
X150279405Y-92702219D02*
X150374643Y-92702219D01*
X125029405Y-88916504D02*
X125505595Y-88916504D01*
X124934167Y-89202219D02*
X125267500Y-88202219D01*
X125267500Y-88202219D02*
X125600833Y-89202219D01*
D12*
X165834876Y-90797619D02*
X165739638Y-90988095D01*
X165739638Y-90988095D02*
X165739638Y-91273809D01*
X165739638Y-91273809D02*
X165834876Y-91559524D01*
X165834876Y-91559524D02*
X166025352Y-91750000D01*
X166025352Y-91750000D02*
X166215828Y-91845238D01*
X166215828Y-91845238D02*
X166596780Y-91940476D01*
X166596780Y-91940476D02*
X166882495Y-91940476D01*
X166882495Y-91940476D02*
X167263447Y-91845238D01*
X167263447Y-91845238D02*
X167453923Y-91750000D01*
X167453923Y-91750000D02*
X167644400Y-91559524D01*
X167644400Y-91559524D02*
X167739638Y-91273809D01*
X167739638Y-91273809D02*
X167739638Y-91083333D01*
X167739638Y-91083333D02*
X167644400Y-90797619D01*
X167644400Y-90797619D02*
X167549161Y-90702381D01*
X167549161Y-90702381D02*
X166882495Y-90702381D01*
X166882495Y-90702381D02*
X166882495Y-91083333D01*
X167739638Y-88988095D02*
X166692019Y-88988095D01*
X166692019Y-88988095D02*
X166501542Y-89083333D01*
X166501542Y-89083333D02*
X166406304Y-89273809D01*
X166406304Y-89273809D02*
X166406304Y-89654762D01*
X166406304Y-89654762D02*
X166501542Y-89845238D01*
X167644400Y-88988095D02*
X167739638Y-89178571D01*
X167739638Y-89178571D02*
X167739638Y-89654762D01*
X167739638Y-89654762D02*
X167644400Y-89845238D01*
X167644400Y-89845238D02*
X167453923Y-89940476D01*
X167453923Y-89940476D02*
X167263447Y-89940476D01*
X167263447Y-89940476D02*
X167072971Y-89845238D01*
X167072971Y-89845238D02*
X166977733Y-89654762D01*
X166977733Y-89654762D02*
X166977733Y-89178571D01*
X166977733Y-89178571D02*
X166882495Y-88988095D01*
X167739638Y-88035714D02*
X166406304Y-88035714D01*
X166787257Y-88035714D02*
X166596780Y-87940476D01*
X166596780Y-87940476D02*
X166501542Y-87845238D01*
X166501542Y-87845238D02*
X166406304Y-87654762D01*
X166406304Y-87654762D02*
X166406304Y-87464285D01*
X167739638Y-85940476D02*
X166692019Y-85940476D01*
X166692019Y-85940476D02*
X166501542Y-86035714D01*
X166501542Y-86035714D02*
X166406304Y-86226190D01*
X166406304Y-86226190D02*
X166406304Y-86607143D01*
X166406304Y-86607143D02*
X166501542Y-86797619D01*
X167644400Y-85940476D02*
X167739638Y-86130952D01*
X167739638Y-86130952D02*
X167739638Y-86607143D01*
X167739638Y-86607143D02*
X167644400Y-86797619D01*
X167644400Y-86797619D02*
X167453923Y-86892857D01*
X167453923Y-86892857D02*
X167263447Y-86892857D01*
X167263447Y-86892857D02*
X167072971Y-86797619D01*
X167072971Y-86797619D02*
X166977733Y-86607143D01*
X166977733Y-86607143D02*
X166977733Y-86130952D01*
X166977733Y-86130952D02*
X166882495Y-85940476D01*
X166406304Y-84130952D02*
X168025352Y-84130952D01*
X168025352Y-84130952D02*
X168215828Y-84226190D01*
X168215828Y-84226190D02*
X168311066Y-84321428D01*
X168311066Y-84321428D02*
X168406304Y-84511905D01*
X168406304Y-84511905D02*
X168406304Y-84797619D01*
X168406304Y-84797619D02*
X168311066Y-84988095D01*
X167644400Y-84130952D02*
X167739638Y-84321428D01*
X167739638Y-84321428D02*
X167739638Y-84702381D01*
X167739638Y-84702381D02*
X167644400Y-84892857D01*
X167644400Y-84892857D02*
X167549161Y-84988095D01*
X167549161Y-84988095D02*
X167358685Y-85083333D01*
X167358685Y-85083333D02*
X166787257Y-85083333D01*
X166787257Y-85083333D02*
X166596780Y-84988095D01*
X166596780Y-84988095D02*
X166501542Y-84892857D01*
X166501542Y-84892857D02*
X166406304Y-84702381D01*
X166406304Y-84702381D02*
X166406304Y-84321428D01*
X166406304Y-84321428D02*
X166501542Y-84130952D01*
X167644400Y-82416666D02*
X167739638Y-82607142D01*
X167739638Y-82607142D02*
X167739638Y-82988095D01*
X167739638Y-82988095D02*
X167644400Y-83178571D01*
X167644400Y-83178571D02*
X167453923Y-83273809D01*
X167453923Y-83273809D02*
X166692019Y-83273809D01*
X166692019Y-83273809D02*
X166501542Y-83178571D01*
X166501542Y-83178571D02*
X166406304Y-82988095D01*
X166406304Y-82988095D02*
X166406304Y-82607142D01*
X166406304Y-82607142D02*
X166501542Y-82416666D01*
X166501542Y-82416666D02*
X166692019Y-82321428D01*
X166692019Y-82321428D02*
X166882495Y-82321428D01*
X166882495Y-82321428D02*
X167072971Y-83273809D01*
X167739638Y-79940475D02*
X165739638Y-79940475D01*
X165739638Y-79940475D02*
X165739638Y-79464285D01*
X165739638Y-79464285D02*
X165834876Y-79178570D01*
X165834876Y-79178570D02*
X166025352Y-78988094D01*
X166025352Y-78988094D02*
X166215828Y-78892856D01*
X166215828Y-78892856D02*
X166596780Y-78797618D01*
X166596780Y-78797618D02*
X166882495Y-78797618D01*
X166882495Y-78797618D02*
X167263447Y-78892856D01*
X167263447Y-78892856D02*
X167453923Y-78988094D01*
X167453923Y-78988094D02*
X167644400Y-79178570D01*
X167644400Y-79178570D02*
X167739638Y-79464285D01*
X167739638Y-79464285D02*
X167739638Y-79940475D01*
X167739638Y-77654761D02*
X167644400Y-77845237D01*
X167644400Y-77845237D02*
X167549161Y-77940475D01*
X167549161Y-77940475D02*
X167358685Y-78035713D01*
X167358685Y-78035713D02*
X166787257Y-78035713D01*
X166787257Y-78035713D02*
X166596780Y-77940475D01*
X166596780Y-77940475D02*
X166501542Y-77845237D01*
X166501542Y-77845237D02*
X166406304Y-77654761D01*
X166406304Y-77654761D02*
X166406304Y-77369046D01*
X166406304Y-77369046D02*
X166501542Y-77178570D01*
X166501542Y-77178570D02*
X166596780Y-77083332D01*
X166596780Y-77083332D02*
X166787257Y-76988094D01*
X166787257Y-76988094D02*
X167358685Y-76988094D01*
X167358685Y-76988094D02*
X167549161Y-77083332D01*
X167549161Y-77083332D02*
X167644400Y-77178570D01*
X167644400Y-77178570D02*
X167739638Y-77369046D01*
X167739638Y-77369046D02*
X167739638Y-77654761D01*
X167739638Y-75845237D02*
X167644400Y-76035713D01*
X167644400Y-76035713D02*
X167549161Y-76130951D01*
X167549161Y-76130951D02*
X167358685Y-76226189D01*
X167358685Y-76226189D02*
X166787257Y-76226189D01*
X166787257Y-76226189D02*
X166596780Y-76130951D01*
X166596780Y-76130951D02*
X166501542Y-76035713D01*
X166501542Y-76035713D02*
X166406304Y-75845237D01*
X166406304Y-75845237D02*
X166406304Y-75559522D01*
X166406304Y-75559522D02*
X166501542Y-75369046D01*
X166501542Y-75369046D02*
X166596780Y-75273808D01*
X166596780Y-75273808D02*
X166787257Y-75178570D01*
X166787257Y-75178570D02*
X167358685Y-75178570D01*
X167358685Y-75178570D02*
X167549161Y-75273808D01*
X167549161Y-75273808D02*
X167644400Y-75369046D01*
X167644400Y-75369046D02*
X167739638Y-75559522D01*
X167739638Y-75559522D02*
X167739638Y-75845237D01*
X167739638Y-74321427D02*
X166406304Y-74321427D01*
X166787257Y-74321427D02*
X166596780Y-74226189D01*
X166596780Y-74226189D02*
X166501542Y-74130951D01*
X166501542Y-74130951D02*
X166406304Y-73940475D01*
X166406304Y-73940475D02*
X166406304Y-73749998D01*
X167549161Y-70416665D02*
X167644400Y-70511903D01*
X167644400Y-70511903D02*
X167739638Y-70797617D01*
X167739638Y-70797617D02*
X167739638Y-70988093D01*
X167739638Y-70988093D02*
X167644400Y-71273808D01*
X167644400Y-71273808D02*
X167453923Y-71464284D01*
X167453923Y-71464284D02*
X167263447Y-71559522D01*
X167263447Y-71559522D02*
X166882495Y-71654760D01*
X166882495Y-71654760D02*
X166596780Y-71654760D01*
X166596780Y-71654760D02*
X166215828Y-71559522D01*
X166215828Y-71559522D02*
X166025352Y-71464284D01*
X166025352Y-71464284D02*
X165834876Y-71273808D01*
X165834876Y-71273808D02*
X165739638Y-70988093D01*
X165739638Y-70988093D02*
X165739638Y-70797617D01*
X165739638Y-70797617D02*
X165834876Y-70511903D01*
X165834876Y-70511903D02*
X165930114Y-70416665D01*
X167739638Y-69273808D02*
X167644400Y-69464284D01*
X167644400Y-69464284D02*
X167549161Y-69559522D01*
X167549161Y-69559522D02*
X167358685Y-69654760D01*
X167358685Y-69654760D02*
X166787257Y-69654760D01*
X166787257Y-69654760D02*
X166596780Y-69559522D01*
X166596780Y-69559522D02*
X166501542Y-69464284D01*
X166501542Y-69464284D02*
X166406304Y-69273808D01*
X166406304Y-69273808D02*
X166406304Y-68988093D01*
X166406304Y-68988093D02*
X166501542Y-68797617D01*
X166501542Y-68797617D02*
X166596780Y-68702379D01*
X166596780Y-68702379D02*
X166787257Y-68607141D01*
X166787257Y-68607141D02*
X167358685Y-68607141D01*
X167358685Y-68607141D02*
X167549161Y-68702379D01*
X167549161Y-68702379D02*
X167644400Y-68797617D01*
X167644400Y-68797617D02*
X167739638Y-68988093D01*
X167739638Y-68988093D02*
X167739638Y-69273808D01*
X166406304Y-67749998D02*
X167739638Y-67749998D01*
X166596780Y-67749998D02*
X166501542Y-67654760D01*
X166501542Y-67654760D02*
X166406304Y-67464284D01*
X166406304Y-67464284D02*
X166406304Y-67178569D01*
X166406304Y-67178569D02*
X166501542Y-66988093D01*
X166501542Y-66988093D02*
X166692019Y-66892855D01*
X166692019Y-66892855D02*
X167739638Y-66892855D01*
X166406304Y-66226188D02*
X166406304Y-65464284D01*
X165739638Y-65940474D02*
X167453923Y-65940474D01*
X167453923Y-65940474D02*
X167644400Y-65845236D01*
X167644400Y-65845236D02*
X167739638Y-65654760D01*
X167739638Y-65654760D02*
X167739638Y-65464284D01*
X167739638Y-64797617D02*
X166406304Y-64797617D01*
X166787257Y-64797617D02*
X166596780Y-64702379D01*
X166596780Y-64702379D02*
X166501542Y-64607141D01*
X166501542Y-64607141D02*
X166406304Y-64416665D01*
X166406304Y-64416665D02*
X166406304Y-64226188D01*
X167739638Y-63273808D02*
X167644400Y-63464284D01*
X167644400Y-63464284D02*
X167549161Y-63559522D01*
X167549161Y-63559522D02*
X167358685Y-63654760D01*
X167358685Y-63654760D02*
X166787257Y-63654760D01*
X166787257Y-63654760D02*
X166596780Y-63559522D01*
X166596780Y-63559522D02*
X166501542Y-63464284D01*
X166501542Y-63464284D02*
X166406304Y-63273808D01*
X166406304Y-63273808D02*
X166406304Y-62988093D01*
X166406304Y-62988093D02*
X166501542Y-62797617D01*
X166501542Y-62797617D02*
X166596780Y-62702379D01*
X166596780Y-62702379D02*
X166787257Y-62607141D01*
X166787257Y-62607141D02*
X167358685Y-62607141D01*
X167358685Y-62607141D02*
X167549161Y-62702379D01*
X167549161Y-62702379D02*
X167644400Y-62797617D01*
X167644400Y-62797617D02*
X167739638Y-62988093D01*
X167739638Y-62988093D02*
X167739638Y-63273808D01*
X167739638Y-61464284D02*
X167644400Y-61654760D01*
X167644400Y-61654760D02*
X167453923Y-61749998D01*
X167453923Y-61749998D02*
X165739638Y-61749998D01*
X167739638Y-60416665D02*
X167644400Y-60607141D01*
X167644400Y-60607141D02*
X167453923Y-60702379D01*
X167453923Y-60702379D02*
X165739638Y-60702379D01*
X167644400Y-58892855D02*
X167739638Y-59083331D01*
X167739638Y-59083331D02*
X167739638Y-59464284D01*
X167739638Y-59464284D02*
X167644400Y-59654760D01*
X167644400Y-59654760D02*
X167453923Y-59749998D01*
X167453923Y-59749998D02*
X166692019Y-59749998D01*
X166692019Y-59749998D02*
X166501542Y-59654760D01*
X166501542Y-59654760D02*
X166406304Y-59464284D01*
X166406304Y-59464284D02*
X166406304Y-59083331D01*
X166406304Y-59083331D02*
X166501542Y-58892855D01*
X166501542Y-58892855D02*
X166692019Y-58797617D01*
X166692019Y-58797617D02*
X166882495Y-58797617D01*
X166882495Y-58797617D02*
X167072971Y-59749998D01*
X167739638Y-57940474D02*
X166406304Y-57940474D01*
X166787257Y-57940474D02*
X166596780Y-57845236D01*
X166596780Y-57845236D02*
X166501542Y-57749998D01*
X166501542Y-57749998D02*
X166406304Y-57559522D01*
X166406304Y-57559522D02*
X166406304Y-57369045D01*
D10*
X139654819Y-81491792D02*
X139178628Y-81825125D01*
X139654819Y-82063220D02*
X138654819Y-82063220D01*
X138654819Y-82063220D02*
X138654819Y-81682268D01*
X138654819Y-81682268D02*
X138702438Y-81587030D01*
X138702438Y-81587030D02*
X138750057Y-81539411D01*
X138750057Y-81539411D02*
X138845295Y-81491792D01*
X138845295Y-81491792D02*
X138988152Y-81491792D01*
X138988152Y-81491792D02*
X139083390Y-81539411D01*
X139083390Y-81539411D02*
X139131009Y-81587030D01*
X139131009Y-81587030D02*
X139178628Y-81682268D01*
X139178628Y-81682268D02*
X139178628Y-82063220D01*
X139654819Y-80539411D02*
X139654819Y-81110839D01*
X139654819Y-80825125D02*
X138654819Y-80825125D01*
X138654819Y-80825125D02*
X138797676Y-80920363D01*
X138797676Y-80920363D02*
X138892914Y-81015601D01*
X138892914Y-81015601D02*
X138940533Y-81110839D01*
X138750057Y-80158458D02*
X138702438Y-80110839D01*
X138702438Y-80110839D02*
X138654819Y-80015601D01*
X138654819Y-80015601D02*
X138654819Y-79777506D01*
X138654819Y-79777506D02*
X138702438Y-79682268D01*
X138702438Y-79682268D02*
X138750057Y-79634649D01*
X138750057Y-79634649D02*
X138845295Y-79587030D01*
X138845295Y-79587030D02*
X138940533Y-79587030D01*
X138940533Y-79587030D02*
X139083390Y-79634649D01*
X139083390Y-79634649D02*
X139654819Y-80206077D01*
X139654819Y-80206077D02*
X139654819Y-79587030D01*
X129504819Y-81441792D02*
X129028628Y-81775125D01*
X129504819Y-82013220D02*
X128504819Y-82013220D01*
X128504819Y-82013220D02*
X128504819Y-81632268D01*
X128504819Y-81632268D02*
X128552438Y-81537030D01*
X128552438Y-81537030D02*
X128600057Y-81489411D01*
X128600057Y-81489411D02*
X128695295Y-81441792D01*
X128695295Y-81441792D02*
X128838152Y-81441792D01*
X128838152Y-81441792D02*
X128933390Y-81489411D01*
X128933390Y-81489411D02*
X128981009Y-81537030D01*
X128981009Y-81537030D02*
X129028628Y-81632268D01*
X129028628Y-81632268D02*
X129028628Y-82013220D01*
X129504819Y-80489411D02*
X129504819Y-81060839D01*
X129504819Y-80775125D02*
X128504819Y-80775125D01*
X128504819Y-80775125D02*
X128647676Y-80870363D01*
X128647676Y-80870363D02*
X128742914Y-80965601D01*
X128742914Y-80965601D02*
X128790533Y-81060839D01*
X129504819Y-79537030D02*
X129504819Y-80108458D01*
X129504819Y-79822744D02*
X128504819Y-79822744D01*
X128504819Y-79822744D02*
X128647676Y-79917982D01*
X128647676Y-79917982D02*
X128742914Y-80013220D01*
X128742914Y-80013220D02*
X128790533Y-80108458D01*
X125404819Y-81491792D02*
X124928628Y-81825125D01*
X125404819Y-82063220D02*
X124404819Y-82063220D01*
X124404819Y-82063220D02*
X124404819Y-81682268D01*
X124404819Y-81682268D02*
X124452438Y-81587030D01*
X124452438Y-81587030D02*
X124500057Y-81539411D01*
X124500057Y-81539411D02*
X124595295Y-81491792D01*
X124595295Y-81491792D02*
X124738152Y-81491792D01*
X124738152Y-81491792D02*
X124833390Y-81539411D01*
X124833390Y-81539411D02*
X124881009Y-81587030D01*
X124881009Y-81587030D02*
X124928628Y-81682268D01*
X124928628Y-81682268D02*
X124928628Y-82063220D01*
X125404819Y-80539411D02*
X125404819Y-81110839D01*
X125404819Y-80825125D02*
X124404819Y-80825125D01*
X124404819Y-80825125D02*
X124547676Y-80920363D01*
X124547676Y-80920363D02*
X124642914Y-81015601D01*
X124642914Y-81015601D02*
X124690533Y-81110839D01*
X124404819Y-79920363D02*
X124404819Y-79825125D01*
X124404819Y-79825125D02*
X124452438Y-79729887D01*
X124452438Y-79729887D02*
X124500057Y-79682268D01*
X124500057Y-79682268D02*
X124595295Y-79634649D01*
X124595295Y-79634649D02*
X124785771Y-79587030D01*
X124785771Y-79587030D02*
X125023866Y-79587030D01*
X125023866Y-79587030D02*
X125214342Y-79634649D01*
X125214342Y-79634649D02*
X125309580Y-79682268D01*
X125309580Y-79682268D02*
X125357200Y-79729887D01*
X125357200Y-79729887D02*
X125404819Y-79825125D01*
X125404819Y-79825125D02*
X125404819Y-79920363D01*
X125404819Y-79920363D02*
X125357200Y-80015601D01*
X125357200Y-80015601D02*
X125309580Y-80063220D01*
X125309580Y-80063220D02*
X125214342Y-80110839D01*
X125214342Y-80110839D02*
X125023866Y-80158458D01*
X125023866Y-80158458D02*
X124785771Y-80158458D01*
X124785771Y-80158458D02*
X124595295Y-80110839D01*
X124595295Y-80110839D02*
X124500057Y-80063220D01*
X124500057Y-80063220D02*
X124452438Y-80015601D01*
X124452438Y-80015601D02*
X124404819Y-79920363D01*
X141654819Y-83525720D02*
X140654819Y-83525720D01*
X140654819Y-83525720D02*
X140654819Y-83287625D01*
X140654819Y-83287625D02*
X140702438Y-83144768D01*
X140702438Y-83144768D02*
X140797676Y-83049530D01*
X140797676Y-83049530D02*
X140892914Y-83001911D01*
X140892914Y-83001911D02*
X141083390Y-82954292D01*
X141083390Y-82954292D02*
X141226247Y-82954292D01*
X141226247Y-82954292D02*
X141416723Y-83001911D01*
X141416723Y-83001911D02*
X141511961Y-83049530D01*
X141511961Y-83049530D02*
X141607200Y-83144768D01*
X141607200Y-83144768D02*
X141654819Y-83287625D01*
X141654819Y-83287625D02*
X141654819Y-83525720D01*
X140750057Y-82573339D02*
X140702438Y-82525720D01*
X140702438Y-82525720D02*
X140654819Y-82430482D01*
X140654819Y-82430482D02*
X140654819Y-82192387D01*
X140654819Y-82192387D02*
X140702438Y-82097149D01*
X140702438Y-82097149D02*
X140750057Y-82049530D01*
X140750057Y-82049530D02*
X140845295Y-82001911D01*
X140845295Y-82001911D02*
X140940533Y-82001911D01*
X140940533Y-82001911D02*
X141083390Y-82049530D01*
X141083390Y-82049530D02*
X141654819Y-82620958D01*
X141654819Y-82620958D02*
X141654819Y-82001911D01*
X127454819Y-83375720D02*
X126454819Y-83375720D01*
X126454819Y-83375720D02*
X126454819Y-83137625D01*
X126454819Y-83137625D02*
X126502438Y-82994768D01*
X126502438Y-82994768D02*
X126597676Y-82899530D01*
X126597676Y-82899530D02*
X126692914Y-82851911D01*
X126692914Y-82851911D02*
X126883390Y-82804292D01*
X126883390Y-82804292D02*
X127026247Y-82804292D01*
X127026247Y-82804292D02*
X127216723Y-82851911D01*
X127216723Y-82851911D02*
X127311961Y-82899530D01*
X127311961Y-82899530D02*
X127407200Y-82994768D01*
X127407200Y-82994768D02*
X127454819Y-83137625D01*
X127454819Y-83137625D02*
X127454819Y-83375720D01*
X127454819Y-81851911D02*
X127454819Y-82423339D01*
X127454819Y-82137625D02*
X126454819Y-82137625D01*
X126454819Y-82137625D02*
X126597676Y-82232863D01*
X126597676Y-82232863D02*
X126692914Y-82328101D01*
X126692914Y-82328101D02*
X126740533Y-82423339D01*
X109285714Y-49169104D02*
X109761904Y-49169104D01*
X109190476Y-49454819D02*
X109523809Y-48454819D01*
X109523809Y-48454819D02*
X109857142Y-49454819D01*
X110714285Y-49454819D02*
X110142857Y-49454819D01*
X110428571Y-49454819D02*
X110428571Y-48454819D01*
X110428571Y-48454819D02*
X110333333Y-48597676D01*
X110333333Y-48597676D02*
X110238095Y-48692914D01*
X110238095Y-48692914D02*
X110142857Y-48740533D01*
X123854819Y-81491792D02*
X123378628Y-81825125D01*
X123854819Y-82063220D02*
X122854819Y-82063220D01*
X122854819Y-82063220D02*
X122854819Y-81682268D01*
X122854819Y-81682268D02*
X122902438Y-81587030D01*
X122902438Y-81587030D02*
X122950057Y-81539411D01*
X122950057Y-81539411D02*
X123045295Y-81491792D01*
X123045295Y-81491792D02*
X123188152Y-81491792D01*
X123188152Y-81491792D02*
X123283390Y-81539411D01*
X123283390Y-81539411D02*
X123331009Y-81587030D01*
X123331009Y-81587030D02*
X123378628Y-81682268D01*
X123378628Y-81682268D02*
X123378628Y-82063220D01*
X122854819Y-81158458D02*
X122854819Y-80491792D01*
X122854819Y-80491792D02*
X123854819Y-80920363D01*
X105658207Y-76454819D02*
X105324874Y-75978628D01*
X105086779Y-76454819D02*
X105086779Y-75454819D01*
X105086779Y-75454819D02*
X105467731Y-75454819D01*
X105467731Y-75454819D02*
X105562969Y-75502438D01*
X105562969Y-75502438D02*
X105610588Y-75550057D01*
X105610588Y-75550057D02*
X105658207Y-75645295D01*
X105658207Y-75645295D02*
X105658207Y-75788152D01*
X105658207Y-75788152D02*
X105610588Y-75883390D01*
X105610588Y-75883390D02*
X105562969Y-75931009D01*
X105562969Y-75931009D02*
X105467731Y-75978628D01*
X105467731Y-75978628D02*
X105086779Y-75978628D01*
X106610588Y-76454819D02*
X106039160Y-76454819D01*
X106324874Y-76454819D02*
X106324874Y-75454819D01*
X106324874Y-75454819D02*
X106229636Y-75597676D01*
X106229636Y-75597676D02*
X106134398Y-75692914D01*
X106134398Y-75692914D02*
X106039160Y-75740533D01*
X143753445Y-74050057D02*
X143658207Y-74002438D01*
X143658207Y-74002438D02*
X143562969Y-73907200D01*
X143562969Y-73907200D02*
X143420112Y-73764342D01*
X143420112Y-73764342D02*
X143324874Y-73716723D01*
X143324874Y-73716723D02*
X143229636Y-73716723D01*
X143277255Y-73954819D02*
X143182017Y-73907200D01*
X143182017Y-73907200D02*
X143086779Y-73811961D01*
X143086779Y-73811961D02*
X143039160Y-73621485D01*
X143039160Y-73621485D02*
X143039160Y-73288152D01*
X143039160Y-73288152D02*
X143086779Y-73097676D01*
X143086779Y-73097676D02*
X143182017Y-73002438D01*
X143182017Y-73002438D02*
X143277255Y-72954819D01*
X143277255Y-72954819D02*
X143467731Y-72954819D01*
X143467731Y-72954819D02*
X143562969Y-73002438D01*
X143562969Y-73002438D02*
X143658207Y-73097676D01*
X143658207Y-73097676D02*
X143705826Y-73288152D01*
X143705826Y-73288152D02*
X143705826Y-73621485D01*
X143705826Y-73621485D02*
X143658207Y-73811961D01*
X143658207Y-73811961D02*
X143562969Y-73907200D01*
X143562969Y-73907200D02*
X143467731Y-73954819D01*
X143467731Y-73954819D02*
X143277255Y-73954819D01*
X144562969Y-73288152D02*
X144562969Y-73954819D01*
X144324874Y-72907200D02*
X144086779Y-73621485D01*
X144086779Y-73621485D02*
X144705826Y-73621485D01*
X138854819Y-76166666D02*
X138378628Y-76499999D01*
X138854819Y-76738094D02*
X137854819Y-76738094D01*
X137854819Y-76738094D02*
X137854819Y-76357142D01*
X137854819Y-76357142D02*
X137902438Y-76261904D01*
X137902438Y-76261904D02*
X137950057Y-76214285D01*
X137950057Y-76214285D02*
X138045295Y-76166666D01*
X138045295Y-76166666D02*
X138188152Y-76166666D01*
X138188152Y-76166666D02*
X138283390Y-76214285D01*
X138283390Y-76214285D02*
X138331009Y-76261904D01*
X138331009Y-76261904D02*
X138378628Y-76357142D01*
X138378628Y-76357142D02*
X138378628Y-76738094D01*
X137854819Y-75261904D02*
X137854819Y-75738094D01*
X137854819Y-75738094D02*
X138331009Y-75785713D01*
X138331009Y-75785713D02*
X138283390Y-75738094D01*
X138283390Y-75738094D02*
X138235771Y-75642856D01*
X138235771Y-75642856D02*
X138235771Y-75404761D01*
X138235771Y-75404761D02*
X138283390Y-75309523D01*
X138283390Y-75309523D02*
X138331009Y-75261904D01*
X138331009Y-75261904D02*
X138426247Y-75214285D01*
X138426247Y-75214285D02*
X138664342Y-75214285D01*
X138664342Y-75214285D02*
X138759580Y-75261904D01*
X138759580Y-75261904D02*
X138807200Y-75309523D01*
X138807200Y-75309523D02*
X138854819Y-75404761D01*
X138854819Y-75404761D02*
X138854819Y-75642856D01*
X138854819Y-75642856D02*
X138807200Y-75738094D01*
X138807200Y-75738094D02*
X138759580Y-75785713D01*
X107802080Y-68441792D02*
X107849700Y-68489411D01*
X107849700Y-68489411D02*
X107897319Y-68632268D01*
X107897319Y-68632268D02*
X107897319Y-68727506D01*
X107897319Y-68727506D02*
X107849700Y-68870363D01*
X107849700Y-68870363D02*
X107754461Y-68965601D01*
X107754461Y-68965601D02*
X107659223Y-69013220D01*
X107659223Y-69013220D02*
X107468747Y-69060839D01*
X107468747Y-69060839D02*
X107325890Y-69060839D01*
X107325890Y-69060839D02*
X107135414Y-69013220D01*
X107135414Y-69013220D02*
X107040176Y-68965601D01*
X107040176Y-68965601D02*
X106944938Y-68870363D01*
X106944938Y-68870363D02*
X106897319Y-68727506D01*
X106897319Y-68727506D02*
X106897319Y-68632268D01*
X106897319Y-68632268D02*
X106944938Y-68489411D01*
X106944938Y-68489411D02*
X106992557Y-68441792D01*
X107897319Y-67489411D02*
X107897319Y-68060839D01*
X107897319Y-67775125D02*
X106897319Y-67775125D01*
X106897319Y-67775125D02*
X107040176Y-67870363D01*
X107040176Y-67870363D02*
X107135414Y-67965601D01*
X107135414Y-67965601D02*
X107183033Y-68060839D01*
X133753445Y-74050057D02*
X133658207Y-74002438D01*
X133658207Y-74002438D02*
X133562969Y-73907200D01*
X133562969Y-73907200D02*
X133420112Y-73764342D01*
X133420112Y-73764342D02*
X133324874Y-73716723D01*
X133324874Y-73716723D02*
X133229636Y-73716723D01*
X133277255Y-73954819D02*
X133182017Y-73907200D01*
X133182017Y-73907200D02*
X133086779Y-73811961D01*
X133086779Y-73811961D02*
X133039160Y-73621485D01*
X133039160Y-73621485D02*
X133039160Y-73288152D01*
X133039160Y-73288152D02*
X133086779Y-73097676D01*
X133086779Y-73097676D02*
X133182017Y-73002438D01*
X133182017Y-73002438D02*
X133277255Y-72954819D01*
X133277255Y-72954819D02*
X133467731Y-72954819D01*
X133467731Y-72954819D02*
X133562969Y-73002438D01*
X133562969Y-73002438D02*
X133658207Y-73097676D01*
X133658207Y-73097676D02*
X133705826Y-73288152D01*
X133705826Y-73288152D02*
X133705826Y-73621485D01*
X133705826Y-73621485D02*
X133658207Y-73811961D01*
X133658207Y-73811961D02*
X133562969Y-73907200D01*
X133562969Y-73907200D02*
X133467731Y-73954819D01*
X133467731Y-73954819D02*
X133277255Y-73954819D01*
X134086779Y-73050057D02*
X134134398Y-73002438D01*
X134134398Y-73002438D02*
X134229636Y-72954819D01*
X134229636Y-72954819D02*
X134467731Y-72954819D01*
X134467731Y-72954819D02*
X134562969Y-73002438D01*
X134562969Y-73002438D02*
X134610588Y-73050057D01*
X134610588Y-73050057D02*
X134658207Y-73145295D01*
X134658207Y-73145295D02*
X134658207Y-73240533D01*
X134658207Y-73240533D02*
X134610588Y-73383390D01*
X134610588Y-73383390D02*
X134039160Y-73954819D01*
X134039160Y-73954819D02*
X134658207Y-73954819D01*
X118758458Y-71359580D02*
X118710839Y-71407200D01*
X118710839Y-71407200D02*
X118567982Y-71454819D01*
X118567982Y-71454819D02*
X118472744Y-71454819D01*
X118472744Y-71454819D02*
X118329887Y-71407200D01*
X118329887Y-71407200D02*
X118234649Y-71311961D01*
X118234649Y-71311961D02*
X118187030Y-71216723D01*
X118187030Y-71216723D02*
X118139411Y-71026247D01*
X118139411Y-71026247D02*
X118139411Y-70883390D01*
X118139411Y-70883390D02*
X118187030Y-70692914D01*
X118187030Y-70692914D02*
X118234649Y-70597676D01*
X118234649Y-70597676D02*
X118329887Y-70502438D01*
X118329887Y-70502438D02*
X118472744Y-70454819D01*
X118472744Y-70454819D02*
X118567982Y-70454819D01*
X118567982Y-70454819D02*
X118710839Y-70502438D01*
X118710839Y-70502438D02*
X118758458Y-70550057D01*
X119139411Y-70550057D02*
X119187030Y-70502438D01*
X119187030Y-70502438D02*
X119282268Y-70454819D01*
X119282268Y-70454819D02*
X119520363Y-70454819D01*
X119520363Y-70454819D02*
X119615601Y-70502438D01*
X119615601Y-70502438D02*
X119663220Y-70550057D01*
X119663220Y-70550057D02*
X119710839Y-70645295D01*
X119710839Y-70645295D02*
X119710839Y-70740533D01*
X119710839Y-70740533D02*
X119663220Y-70883390D01*
X119663220Y-70883390D02*
X119091792Y-71454819D01*
X119091792Y-71454819D02*
X119710839Y-71454819D01*
X153666666Y-94454819D02*
X153666666Y-95169104D01*
X153666666Y-95169104D02*
X153619047Y-95311961D01*
X153619047Y-95311961D02*
X153523809Y-95407200D01*
X153523809Y-95407200D02*
X153380952Y-95454819D01*
X153380952Y-95454819D02*
X153285714Y-95454819D01*
X154095238Y-94550057D02*
X154142857Y-94502438D01*
X154142857Y-94502438D02*
X154238095Y-94454819D01*
X154238095Y-94454819D02*
X154476190Y-94454819D01*
X154476190Y-94454819D02*
X154571428Y-94502438D01*
X154571428Y-94502438D02*
X154619047Y-94550057D01*
X154619047Y-94550057D02*
X154666666Y-94645295D01*
X154666666Y-94645295D02*
X154666666Y-94740533D01*
X154666666Y-94740533D02*
X154619047Y-94883390D01*
X154619047Y-94883390D02*
X154047619Y-95454819D01*
X154047619Y-95454819D02*
X154666666Y-95454819D01*
X105658207Y-74954819D02*
X105324874Y-74478628D01*
X105086779Y-74954819D02*
X105086779Y-73954819D01*
X105086779Y-73954819D02*
X105467731Y-73954819D01*
X105467731Y-73954819D02*
X105562969Y-74002438D01*
X105562969Y-74002438D02*
X105610588Y-74050057D01*
X105610588Y-74050057D02*
X105658207Y-74145295D01*
X105658207Y-74145295D02*
X105658207Y-74288152D01*
X105658207Y-74288152D02*
X105610588Y-74383390D01*
X105610588Y-74383390D02*
X105562969Y-74431009D01*
X105562969Y-74431009D02*
X105467731Y-74478628D01*
X105467731Y-74478628D02*
X105086779Y-74478628D01*
X106039160Y-74050057D02*
X106086779Y-74002438D01*
X106086779Y-74002438D02*
X106182017Y-73954819D01*
X106182017Y-73954819D02*
X106420112Y-73954819D01*
X106420112Y-73954819D02*
X106515350Y-74002438D01*
X106515350Y-74002438D02*
X106562969Y-74050057D01*
X106562969Y-74050057D02*
X106610588Y-74145295D01*
X106610588Y-74145295D02*
X106610588Y-74240533D01*
X106610588Y-74240533D02*
X106562969Y-74383390D01*
X106562969Y-74383390D02*
X105991541Y-74954819D01*
X105991541Y-74954819D02*
X106610588Y-74954819D01*
X138753445Y-74050057D02*
X138658207Y-74002438D01*
X138658207Y-74002438D02*
X138562969Y-73907200D01*
X138562969Y-73907200D02*
X138420112Y-73764342D01*
X138420112Y-73764342D02*
X138324874Y-73716723D01*
X138324874Y-73716723D02*
X138229636Y-73716723D01*
X138277255Y-73954819D02*
X138182017Y-73907200D01*
X138182017Y-73907200D02*
X138086779Y-73811961D01*
X138086779Y-73811961D02*
X138039160Y-73621485D01*
X138039160Y-73621485D02*
X138039160Y-73288152D01*
X138039160Y-73288152D02*
X138086779Y-73097676D01*
X138086779Y-73097676D02*
X138182017Y-73002438D01*
X138182017Y-73002438D02*
X138277255Y-72954819D01*
X138277255Y-72954819D02*
X138467731Y-72954819D01*
X138467731Y-72954819D02*
X138562969Y-73002438D01*
X138562969Y-73002438D02*
X138658207Y-73097676D01*
X138658207Y-73097676D02*
X138705826Y-73288152D01*
X138705826Y-73288152D02*
X138705826Y-73621485D01*
X138705826Y-73621485D02*
X138658207Y-73811961D01*
X138658207Y-73811961D02*
X138562969Y-73907200D01*
X138562969Y-73907200D02*
X138467731Y-73954819D01*
X138467731Y-73954819D02*
X138277255Y-73954819D01*
X139039160Y-72954819D02*
X139658207Y-72954819D01*
X139658207Y-72954819D02*
X139324874Y-73335771D01*
X139324874Y-73335771D02*
X139467731Y-73335771D01*
X139467731Y-73335771D02*
X139562969Y-73383390D01*
X139562969Y-73383390D02*
X139610588Y-73431009D01*
X139610588Y-73431009D02*
X139658207Y-73526247D01*
X139658207Y-73526247D02*
X139658207Y-73764342D01*
X139658207Y-73764342D02*
X139610588Y-73859580D01*
X139610588Y-73859580D02*
X139562969Y-73907200D01*
X139562969Y-73907200D02*
X139467731Y-73954819D01*
X139467731Y-73954819D02*
X139182017Y-73954819D01*
X139182017Y-73954819D02*
X139086779Y-73907200D01*
X139086779Y-73907200D02*
X139039160Y-73859580D01*
D14*
X175212095Y-66580570D02*
X174728286Y-66919237D01*
X175212095Y-67161142D02*
X174196095Y-67161142D01*
X174196095Y-67161142D02*
X174196095Y-66774094D01*
X174196095Y-66774094D02*
X174244476Y-66677332D01*
X174244476Y-66677332D02*
X174292857Y-66628951D01*
X174292857Y-66628951D02*
X174389619Y-66580570D01*
X174389619Y-66580570D02*
X174534762Y-66580570D01*
X174534762Y-66580570D02*
X174631524Y-66628951D01*
X174631524Y-66628951D02*
X174679905Y-66677332D01*
X174679905Y-66677332D02*
X174728286Y-66774094D01*
X174728286Y-66774094D02*
X174728286Y-67161142D01*
X175212095Y-65661332D02*
X175212095Y-66145142D01*
X175212095Y-66145142D02*
X174196095Y-66145142D01*
X175212095Y-64790475D02*
X175212095Y-65371047D01*
X175212095Y-65080761D02*
X174196095Y-65080761D01*
X174196095Y-65080761D02*
X174341238Y-65177523D01*
X174341238Y-65177523D02*
X174438000Y-65274285D01*
X174438000Y-65274285D02*
X174486381Y-65371047D01*
D10*
X131054819Y-81491792D02*
X130578628Y-81825125D01*
X131054819Y-82063220D02*
X130054819Y-82063220D01*
X130054819Y-82063220D02*
X130054819Y-81682268D01*
X130054819Y-81682268D02*
X130102438Y-81587030D01*
X130102438Y-81587030D02*
X130150057Y-81539411D01*
X130150057Y-81539411D02*
X130245295Y-81491792D01*
X130245295Y-81491792D02*
X130388152Y-81491792D01*
X130388152Y-81491792D02*
X130483390Y-81539411D01*
X130483390Y-81539411D02*
X130531009Y-81587030D01*
X130531009Y-81587030D02*
X130578628Y-81682268D01*
X130578628Y-81682268D02*
X130578628Y-82063220D01*
X130483390Y-80920363D02*
X130435771Y-81015601D01*
X130435771Y-81015601D02*
X130388152Y-81063220D01*
X130388152Y-81063220D02*
X130292914Y-81110839D01*
X130292914Y-81110839D02*
X130245295Y-81110839D01*
X130245295Y-81110839D02*
X130150057Y-81063220D01*
X130150057Y-81063220D02*
X130102438Y-81015601D01*
X130102438Y-81015601D02*
X130054819Y-80920363D01*
X130054819Y-80920363D02*
X130054819Y-80729887D01*
X130054819Y-80729887D02*
X130102438Y-80634649D01*
X130102438Y-80634649D02*
X130150057Y-80587030D01*
X130150057Y-80587030D02*
X130245295Y-80539411D01*
X130245295Y-80539411D02*
X130292914Y-80539411D01*
X130292914Y-80539411D02*
X130388152Y-80587030D01*
X130388152Y-80587030D02*
X130435771Y-80634649D01*
X130435771Y-80634649D02*
X130483390Y-80729887D01*
X130483390Y-80729887D02*
X130483390Y-80920363D01*
X130483390Y-80920363D02*
X130531009Y-81015601D01*
X130531009Y-81015601D02*
X130578628Y-81063220D01*
X130578628Y-81063220D02*
X130673866Y-81110839D01*
X130673866Y-81110839D02*
X130864342Y-81110839D01*
X130864342Y-81110839D02*
X130959580Y-81063220D01*
X130959580Y-81063220D02*
X131007200Y-81015601D01*
X131007200Y-81015601D02*
X131054819Y-80920363D01*
X131054819Y-80920363D02*
X131054819Y-80729887D01*
X131054819Y-80729887D02*
X131007200Y-80634649D01*
X131007200Y-80634649D02*
X130959580Y-80587030D01*
X130959580Y-80587030D02*
X130864342Y-80539411D01*
X130864342Y-80539411D02*
X130673866Y-80539411D01*
X130673866Y-80539411D02*
X130578628Y-80587030D01*
X130578628Y-80587030D02*
X130531009Y-80634649D01*
X130531009Y-80634649D02*
X130483390Y-80729887D01*
X128753445Y-74050057D02*
X128658207Y-74002438D01*
X128658207Y-74002438D02*
X128562969Y-73907200D01*
X128562969Y-73907200D02*
X128420112Y-73764342D01*
X128420112Y-73764342D02*
X128324874Y-73716723D01*
X128324874Y-73716723D02*
X128229636Y-73716723D01*
X128277255Y-73954819D02*
X128182017Y-73907200D01*
X128182017Y-73907200D02*
X128086779Y-73811961D01*
X128086779Y-73811961D02*
X128039160Y-73621485D01*
X128039160Y-73621485D02*
X128039160Y-73288152D01*
X128039160Y-73288152D02*
X128086779Y-73097676D01*
X128086779Y-73097676D02*
X128182017Y-73002438D01*
X128182017Y-73002438D02*
X128277255Y-72954819D01*
X128277255Y-72954819D02*
X128467731Y-72954819D01*
X128467731Y-72954819D02*
X128562969Y-73002438D01*
X128562969Y-73002438D02*
X128658207Y-73097676D01*
X128658207Y-73097676D02*
X128705826Y-73288152D01*
X128705826Y-73288152D02*
X128705826Y-73621485D01*
X128705826Y-73621485D02*
X128658207Y-73811961D01*
X128658207Y-73811961D02*
X128562969Y-73907200D01*
X128562969Y-73907200D02*
X128467731Y-73954819D01*
X128467731Y-73954819D02*
X128277255Y-73954819D01*
X129658207Y-73954819D02*
X129086779Y-73954819D01*
X129372493Y-73954819D02*
X129372493Y-72954819D01*
X129372493Y-72954819D02*
X129277255Y-73097676D01*
X129277255Y-73097676D02*
X129182017Y-73192914D01*
X129182017Y-73192914D02*
X129086779Y-73240533D01*
X128854819Y-76166666D02*
X128378628Y-76499999D01*
X128854819Y-76738094D02*
X127854819Y-76738094D01*
X127854819Y-76738094D02*
X127854819Y-76357142D01*
X127854819Y-76357142D02*
X127902438Y-76261904D01*
X127902438Y-76261904D02*
X127950057Y-76214285D01*
X127950057Y-76214285D02*
X128045295Y-76166666D01*
X128045295Y-76166666D02*
X128188152Y-76166666D01*
X128188152Y-76166666D02*
X128283390Y-76214285D01*
X128283390Y-76214285D02*
X128331009Y-76261904D01*
X128331009Y-76261904D02*
X128378628Y-76357142D01*
X128378628Y-76357142D02*
X128378628Y-76738094D01*
X128188152Y-75309523D02*
X128854819Y-75309523D01*
X127807200Y-75547618D02*
X128521485Y-75785713D01*
X128521485Y-75785713D02*
X128521485Y-75166666D01*
X101666666Y-69454819D02*
X101666666Y-70169104D01*
X101666666Y-70169104D02*
X101619047Y-70311961D01*
X101619047Y-70311961D02*
X101523809Y-70407200D01*
X101523809Y-70407200D02*
X101380952Y-70454819D01*
X101380952Y-70454819D02*
X101285714Y-70454819D01*
X102666666Y-70454819D02*
X102095238Y-70454819D01*
X102380952Y-70454819D02*
X102380952Y-69454819D01*
X102380952Y-69454819D02*
X102285714Y-69597676D01*
X102285714Y-69597676D02*
X102190476Y-69692914D01*
X102190476Y-69692914D02*
X102095238Y-69740533D01*
X138054819Y-81491792D02*
X137578628Y-81825125D01*
X138054819Y-82063220D02*
X137054819Y-82063220D01*
X137054819Y-82063220D02*
X137054819Y-81682268D01*
X137054819Y-81682268D02*
X137102438Y-81587030D01*
X137102438Y-81587030D02*
X137150057Y-81539411D01*
X137150057Y-81539411D02*
X137245295Y-81491792D01*
X137245295Y-81491792D02*
X137388152Y-81491792D01*
X137388152Y-81491792D02*
X137483390Y-81539411D01*
X137483390Y-81539411D02*
X137531009Y-81587030D01*
X137531009Y-81587030D02*
X137578628Y-81682268D01*
X137578628Y-81682268D02*
X137578628Y-82063220D01*
X138054819Y-81015601D02*
X138054819Y-80825125D01*
X138054819Y-80825125D02*
X138007200Y-80729887D01*
X138007200Y-80729887D02*
X137959580Y-80682268D01*
X137959580Y-80682268D02*
X137816723Y-80587030D01*
X137816723Y-80587030D02*
X137626247Y-80539411D01*
X137626247Y-80539411D02*
X137245295Y-80539411D01*
X137245295Y-80539411D02*
X137150057Y-80587030D01*
X137150057Y-80587030D02*
X137102438Y-80634649D01*
X137102438Y-80634649D02*
X137054819Y-80729887D01*
X137054819Y-80729887D02*
X137054819Y-80920363D01*
X137054819Y-80920363D02*
X137102438Y-81015601D01*
X137102438Y-81015601D02*
X137150057Y-81063220D01*
X137150057Y-81063220D02*
X137245295Y-81110839D01*
X137245295Y-81110839D02*
X137483390Y-81110839D01*
X137483390Y-81110839D02*
X137578628Y-81063220D01*
X137578628Y-81063220D02*
X137626247Y-81015601D01*
X137626247Y-81015601D02*
X137673866Y-80920363D01*
X137673866Y-80920363D02*
X137673866Y-80729887D01*
X137673866Y-80729887D02*
X137626247Y-80634649D01*
X137626247Y-80634649D02*
X137578628Y-80587030D01*
X137578628Y-80587030D02*
X137483390Y-80539411D01*
X133854819Y-76166666D02*
X133378628Y-76499999D01*
X133854819Y-76738094D02*
X132854819Y-76738094D01*
X132854819Y-76738094D02*
X132854819Y-76357142D01*
X132854819Y-76357142D02*
X132902438Y-76261904D01*
X132902438Y-76261904D02*
X132950057Y-76214285D01*
X132950057Y-76214285D02*
X133045295Y-76166666D01*
X133045295Y-76166666D02*
X133188152Y-76166666D01*
X133188152Y-76166666D02*
X133283390Y-76214285D01*
X133283390Y-76214285D02*
X133331009Y-76261904D01*
X133331009Y-76261904D02*
X133378628Y-76357142D01*
X133378628Y-76357142D02*
X133378628Y-76738094D01*
X132854819Y-75833332D02*
X132854819Y-75214285D01*
X132854819Y-75214285D02*
X133235771Y-75547618D01*
X133235771Y-75547618D02*
X133235771Y-75404761D01*
X133235771Y-75404761D02*
X133283390Y-75309523D01*
X133283390Y-75309523D02*
X133331009Y-75261904D01*
X133331009Y-75261904D02*
X133426247Y-75214285D01*
X133426247Y-75214285D02*
X133664342Y-75214285D01*
X133664342Y-75214285D02*
X133759580Y-75261904D01*
X133759580Y-75261904D02*
X133807200Y-75309523D01*
X133807200Y-75309523D02*
X133854819Y-75404761D01*
X133854819Y-75404761D02*
X133854819Y-75690475D01*
X133854819Y-75690475D02*
X133807200Y-75785713D01*
X133807200Y-75785713D02*
X133759580Y-75833332D01*
X143854819Y-76166666D02*
X143378628Y-76499999D01*
X143854819Y-76738094D02*
X142854819Y-76738094D01*
X142854819Y-76738094D02*
X142854819Y-76357142D01*
X142854819Y-76357142D02*
X142902438Y-76261904D01*
X142902438Y-76261904D02*
X142950057Y-76214285D01*
X142950057Y-76214285D02*
X143045295Y-76166666D01*
X143045295Y-76166666D02*
X143188152Y-76166666D01*
X143188152Y-76166666D02*
X143283390Y-76214285D01*
X143283390Y-76214285D02*
X143331009Y-76261904D01*
X143331009Y-76261904D02*
X143378628Y-76357142D01*
X143378628Y-76357142D02*
X143378628Y-76738094D01*
X142854819Y-75309523D02*
X142854819Y-75499999D01*
X142854819Y-75499999D02*
X142902438Y-75595237D01*
X142902438Y-75595237D02*
X142950057Y-75642856D01*
X142950057Y-75642856D02*
X143092914Y-75738094D01*
X143092914Y-75738094D02*
X143283390Y-75785713D01*
X143283390Y-75785713D02*
X143664342Y-75785713D01*
X143664342Y-75785713D02*
X143759580Y-75738094D01*
X143759580Y-75738094D02*
X143807200Y-75690475D01*
X143807200Y-75690475D02*
X143854819Y-75595237D01*
X143854819Y-75595237D02*
X143854819Y-75404761D01*
X143854819Y-75404761D02*
X143807200Y-75309523D01*
X143807200Y-75309523D02*
X143759580Y-75261904D01*
X143759580Y-75261904D02*
X143664342Y-75214285D01*
X143664342Y-75214285D02*
X143426247Y-75214285D01*
X143426247Y-75214285D02*
X143331009Y-75261904D01*
X143331009Y-75261904D02*
X143283390Y-75309523D01*
X143283390Y-75309523D02*
X143235771Y-75404761D01*
X143235771Y-75404761D02*
X143235771Y-75595237D01*
X143235771Y-75595237D02*
X143283390Y-75690475D01*
X143283390Y-75690475D02*
X143331009Y-75738094D01*
X143331009Y-75738094D02*
X143426247Y-75785713D01*
D15*
%TO.C,R12*%
X138727500Y-83795276D02*
X138727500Y-84304724D01*
X139772500Y-83795276D02*
X139772500Y-84304724D01*
%TO.C,R11*%
X129522500Y-83745276D02*
X129522500Y-84254724D01*
X128477500Y-83745276D02*
X128477500Y-84254724D01*
%TO.C,R10*%
X125522500Y-83745276D02*
X125522500Y-84254724D01*
X124477500Y-83745276D02*
X124477500Y-84254724D01*
%TO.C,D2*%
X140300000Y-85862500D02*
X140300000Y-84312500D01*
X142100000Y-84312500D02*
X142100000Y-85612500D01*
%TO.C,D1*%
X126100000Y-85812500D02*
X126100000Y-84262500D01*
X127900000Y-84262500D02*
X127900000Y-85562500D01*
%TO.C,A1*%
X119450000Y-69252500D02*
X117450000Y-69252500D01*
X114640000Y-68932500D02*
X160360000Y-68932500D01*
X111990000Y-48502500D02*
X111990000Y-66282500D01*
X163010000Y-48502500D02*
X163010000Y-66282500D01*
X114640000Y-45852500D02*
X160360000Y-45852500D01*
X111990000Y-66282500D02*
G75*
G03*
X114640000Y-68932500I2650000J0D01*
G01*
X160360000Y-68932500D02*
G75*
G03*
X163010000Y-66282500I0J2650000D01*
G01*
X114640000Y-45852500D02*
G75*
G03*
X111990000Y-48502500I0J-2650000D01*
G01*
X163010000Y-48502500D02*
G75*
G03*
X160360000Y-45852500I-2650000J0D01*
G01*
%TO.C,R7*%
X123922500Y-83745276D02*
X123922500Y-84254724D01*
X122877500Y-83745276D02*
X122877500Y-84254724D01*
%TO.C,R1*%
X102745276Y-75477500D02*
X103254724Y-75477500D01*
X102745276Y-76522500D02*
X103254724Y-76522500D01*
%TO.C,Q4*%
X143560000Y-72000000D02*
X143560000Y-70325000D01*
X143560000Y-72000000D02*
X143560000Y-72650000D01*
X140440000Y-72000000D02*
X140440000Y-71350000D01*
X140440000Y-72000000D02*
X140440000Y-72650000D01*
%TO.C,R5*%
X136477500Y-76254724D02*
X136477500Y-75745276D01*
X137522500Y-76254724D02*
X137522500Y-75745276D01*
%TO.C,C1*%
X108177500Y-70938748D02*
X108177500Y-71461252D01*
X106707500Y-70938748D02*
X106707500Y-71461252D01*
%TO.C,Q2*%
X133560000Y-72000000D02*
X133560000Y-70325000D01*
X133560000Y-72000000D02*
X133560000Y-72650000D01*
X130440000Y-72000000D02*
X130440000Y-71350000D01*
X130440000Y-72000000D02*
X130440000Y-72650000D01*
%TO.C,C2*%
X121788748Y-70265000D02*
X122311252Y-70265000D01*
X121788748Y-71735000D02*
X122311252Y-71735000D01*
%TO.C,J2*%
X122300000Y-94250000D02*
X124300000Y-94250000D01*
X122300000Y-95500000D02*
X122300000Y-94250000D01*
X122690000Y-94640000D02*
X122690000Y-102110000D01*
X122690000Y-102110000D02*
X152310000Y-102110000D01*
X123750000Y-95600000D02*
X126750000Y-95600000D01*
X123750000Y-96950000D02*
X124500000Y-96950000D01*
X123750000Y-101250000D02*
X123750000Y-96950000D01*
X124000000Y-96600000D02*
X123750000Y-95600000D01*
X124500000Y-96600000D02*
X124000000Y-96600000D01*
X124500000Y-96950000D02*
X124500000Y-96600000D01*
X124500000Y-101250000D02*
X123750000Y-101250000D01*
X126000000Y-96600000D02*
X126000000Y-96950000D01*
X126000000Y-96950000D02*
X126750000Y-96950000D01*
X126500000Y-96600000D02*
X126000000Y-96600000D01*
X126750000Y-95600000D02*
X126500000Y-96600000D01*
X126750000Y-96950000D02*
X126750000Y-101250000D01*
X126750000Y-101250000D02*
X126000000Y-101250000D01*
X127250000Y-95600000D02*
X130250000Y-95600000D01*
X127250000Y-96950000D02*
X128000000Y-96950000D01*
X127250000Y-101250000D02*
X127250000Y-96950000D01*
X127500000Y-96600000D02*
X127250000Y-95600000D01*
X128000000Y-96600000D02*
X127500000Y-96600000D01*
X128000000Y-96950000D02*
X128000000Y-96600000D01*
X128000000Y-101250000D02*
X127250000Y-101250000D01*
X129500000Y-96600000D02*
X129500000Y-96950000D01*
X129500000Y-96950000D02*
X130250000Y-96950000D01*
X130000000Y-96600000D02*
X129500000Y-96600000D01*
X130250000Y-95600000D02*
X130000000Y-96600000D01*
X130250000Y-96950000D02*
X130250000Y-101250000D01*
X130250000Y-101250000D02*
X129500000Y-101250000D01*
X130750000Y-95600000D02*
X133750000Y-95600000D01*
X130750000Y-96950000D02*
X131500000Y-96950000D01*
X130750000Y-101250000D02*
X130750000Y-96950000D01*
X131000000Y-96600000D02*
X130750000Y-95600000D01*
X131500000Y-96600000D02*
X131000000Y-96600000D01*
X131500000Y-96950000D02*
X131500000Y-96600000D01*
X131500000Y-101250000D02*
X130750000Y-101250000D01*
X133000000Y-96600000D02*
X133000000Y-96950000D01*
X133000000Y-96950000D02*
X133750000Y-96950000D01*
X133500000Y-96600000D02*
X133000000Y-96600000D01*
X133750000Y-95600000D02*
X133500000Y-96600000D01*
X133750000Y-96950000D02*
X133750000Y-101250000D01*
X133750000Y-101250000D02*
X133000000Y-101250000D01*
X134250000Y-95600000D02*
X137250000Y-95600000D01*
X134250000Y-96950000D02*
X135000000Y-96950000D01*
X134250000Y-101250000D02*
X134250000Y-96950000D01*
X134500000Y-96600000D02*
X134250000Y-95600000D01*
X135000000Y-96600000D02*
X134500000Y-96600000D01*
X135000000Y-96950000D02*
X135000000Y-96600000D01*
X135000000Y-101250000D02*
X134250000Y-101250000D01*
X136500000Y-96600000D02*
X136500000Y-96950000D01*
X136500000Y-96950000D02*
X137250000Y-96950000D01*
X137000000Y-96600000D02*
X136500000Y-96600000D01*
X137250000Y-95600000D02*
X137000000Y-96600000D01*
X137250000Y-96950000D02*
X137250000Y-101250000D01*
X137250000Y-101250000D02*
X136500000Y-101250000D01*
X137750000Y-95600000D02*
X140750000Y-95600000D01*
X137750000Y-96950000D02*
X138500000Y-96950000D01*
X137750000Y-101250000D02*
X137750000Y-96950000D01*
X138000000Y-96600000D02*
X137750000Y-95600000D01*
X138500000Y-96600000D02*
X138000000Y-96600000D01*
X138500000Y-96950000D02*
X138500000Y-96600000D01*
X138500000Y-101250000D02*
X137750000Y-101250000D01*
X140000000Y-96600000D02*
X140000000Y-96950000D01*
X140000000Y-96950000D02*
X140750000Y-96950000D01*
X140500000Y-96600000D02*
X140000000Y-96600000D01*
X140750000Y-95600000D02*
X140500000Y-96600000D01*
X140750000Y-96950000D02*
X140750000Y-101250000D01*
X140750000Y-101250000D02*
X140000000Y-101250000D01*
X141250000Y-95600000D02*
X144250000Y-95600000D01*
X141250000Y-96950000D02*
X142000000Y-96950000D01*
X141250000Y-101250000D02*
X141250000Y-96950000D01*
X141500000Y-96600000D02*
X141250000Y-95600000D01*
X142000000Y-96600000D02*
X141500000Y-96600000D01*
X142000000Y-96950000D02*
X142000000Y-96600000D01*
X142000000Y-101250000D02*
X141250000Y-101250000D01*
X143500000Y-96600000D02*
X143500000Y-96950000D01*
X143500000Y-96950000D02*
X144250000Y-96950000D01*
X144000000Y-96600000D02*
X143500000Y-96600000D01*
X144250000Y-95600000D02*
X144000000Y-96600000D01*
X144250000Y-96950000D02*
X144250000Y-101250000D01*
X144250000Y-101250000D02*
X143500000Y-101250000D01*
X144750000Y-95600000D02*
X147750000Y-95600000D01*
X144750000Y-96950000D02*
X145500000Y-96950000D01*
X144750000Y-101250000D02*
X144750000Y-96950000D01*
X145000000Y-96600000D02*
X144750000Y-95600000D01*
X145500000Y-96600000D02*
X145000000Y-96600000D01*
X145500000Y-96950000D02*
X145500000Y-96600000D01*
X145500000Y-101250000D02*
X144750000Y-101250000D01*
X147000000Y-96600000D02*
X147000000Y-96950000D01*
X147000000Y-96950000D02*
X147750000Y-96950000D01*
X147500000Y-96600000D02*
X147000000Y-96600000D01*
X147750000Y-95600000D02*
X147500000Y-96600000D01*
X147750000Y-96950000D02*
X147750000Y-101250000D01*
X147750000Y-101250000D02*
X147000000Y-101250000D01*
X148250000Y-95600000D02*
X151250000Y-95600000D01*
X148250000Y-96950000D02*
X149000000Y-96950000D01*
X148250000Y-101250000D02*
X148250000Y-96950000D01*
X148500000Y-96600000D02*
X148250000Y-95600000D01*
X149000000Y-96600000D02*
X148500000Y-96600000D01*
X149000000Y-96950000D02*
X149000000Y-96600000D01*
X149000000Y-101250000D02*
X148250000Y-101250000D01*
X150500000Y-96600000D02*
X150500000Y-96950000D01*
X150500000Y-96950000D02*
X151250000Y-96950000D01*
X151000000Y-96600000D02*
X150500000Y-96600000D01*
X151250000Y-95600000D02*
X151000000Y-96600000D01*
X151250000Y-96950000D02*
X151250000Y-101250000D01*
X151250000Y-101250000D02*
X150500000Y-101250000D01*
X152310000Y-94640000D02*
X122690000Y-94640000D01*
X152310000Y-102110000D02*
X152310000Y-94640000D01*
X125999647Y-101249845D02*
G75*
G03*
X124500000Y-101250000I-749647J-1700155D01*
G01*
X129499647Y-101249845D02*
G75*
G03*
X128000000Y-101250000I-749647J-1700155D01*
G01*
X132999647Y-101249845D02*
G75*
G03*
X131500000Y-101250000I-749647J-1700155D01*
G01*
X136499647Y-101249845D02*
G75*
G03*
X135000000Y-101250000I-749647J-1700155D01*
G01*
X139999647Y-101249845D02*
G75*
G03*
X138500000Y-101250000I-749647J-1700155D01*
G01*
X143499647Y-101249845D02*
G75*
G03*
X142000000Y-101250000I-749647J-1700155D01*
G01*
X146999647Y-101249845D02*
G75*
G03*
X145500000Y-101250000I-749647J-1700155D01*
G01*
X150499647Y-101249845D02*
G75*
G03*
X149000000Y-101250000I-749647J-1700155D01*
G01*
%TO.C,R2*%
X102745276Y-73977500D02*
X103254724Y-73977500D01*
X102745276Y-75022500D02*
X103254724Y-75022500D01*
%TO.C,Q3*%
X138560000Y-72000000D02*
X138560000Y-70325000D01*
X138560000Y-72000000D02*
X138560000Y-72650000D01*
X135440000Y-72000000D02*
X135440000Y-71350000D01*
X135440000Y-72000000D02*
X135440000Y-72650000D01*
D16*
%TO.C,RL1*%
X179024000Y-64459000D02*
X175722000Y-64459000D01*
X175722000Y-64459000D02*
X175722000Y-85541000D01*
X179024000Y-85541000D02*
X179024000Y-64459000D01*
X175722000Y-85541000D02*
X179024000Y-85541000D01*
D15*
%TO.C,R8*%
X130077500Y-83745276D02*
X130077500Y-84254724D01*
X131122500Y-83745276D02*
X131122500Y-84254724D01*
%TO.C,Q1*%
X128560000Y-72000000D02*
X128560000Y-70325000D01*
X128560000Y-72000000D02*
X128560000Y-72650000D01*
X125440000Y-72000000D02*
X125440000Y-71350000D01*
X125440000Y-72000000D02*
X125440000Y-72650000D01*
%TO.C,R4*%
X126477500Y-76254724D02*
X126477500Y-75745276D01*
X127522500Y-76254724D02*
X127522500Y-75745276D01*
%TO.C,J1*%
X98507500Y-70400000D02*
X96877500Y-70400000D01*
X98507500Y-79600000D02*
X96877500Y-79600000D01*
%TO.C,R9*%
X137077500Y-83745276D02*
X137077500Y-84254724D01*
X138122500Y-83745276D02*
X138122500Y-84254724D01*
%TO.C,R3*%
X131477500Y-76254724D02*
X131477500Y-75745276D01*
X132522500Y-76254724D02*
X132522500Y-75745276D01*
%TO.C,R6*%
X141477500Y-76254724D02*
X141477500Y-75745276D01*
X142522500Y-76254724D02*
X142522500Y-75745276D01*
%TD*%
M02*
