%TF.GenerationSoftware,KiCad,Pcbnew,7.0.8*%
%TF.CreationDate,2023-10-18T11:28:30-05:00*%
%TF.ProjectId,ESP32_Garage_Door_Controller,45535033-325f-4476-9172-6167655f446f,rev?*%
%TF.SameCoordinates,Original*%
%TF.FileFunction,Soldermask,Bot*%
%TF.FilePolarity,Negative*%
%FSLAX46Y46*%
G04 Gerber Fmt 4.6, Leading zero omitted, Abs format (unit mm)*
G04 Created by KiCad (PCBNEW 7.0.8) date 2023-10-18 11:28:30*
%MOMM*%
%LPD*%
G01*
G04 APERTURE LIST*
G04 APERTURE END LIST*
G36*
X118293684Y-96769249D02*
G01*
X118582343Y-96826667D01*
X118861038Y-96921271D01*
X119125000Y-97051443D01*
X119369713Y-97214955D01*
X119590990Y-97409010D01*
X119785045Y-97630287D01*
X119948557Y-97875000D01*
X120078729Y-98138962D01*
X120173333Y-98417657D01*
X120230751Y-98706316D01*
X120250000Y-99000000D01*
X120230751Y-99293684D01*
X120173333Y-99582343D01*
X120078729Y-99861038D01*
X119948557Y-100125000D01*
X119785045Y-100369713D01*
X119590990Y-100590990D01*
X119369713Y-100785045D01*
X119125000Y-100948557D01*
X118861038Y-101078729D01*
X118582343Y-101173333D01*
X118293684Y-101230751D01*
X118000000Y-101250000D01*
X117706316Y-101230751D01*
X117417657Y-101173333D01*
X117138962Y-101078729D01*
X116875000Y-100948557D01*
X116630287Y-100785045D01*
X116409010Y-100590990D01*
X116214955Y-100369713D01*
X116051443Y-100125000D01*
X115921271Y-99861038D01*
X115826667Y-99582343D01*
X115769249Y-99293684D01*
X115750000Y-99000000D01*
X115769249Y-98706316D01*
X115826667Y-98417657D01*
X115921271Y-98138962D01*
X116051443Y-97875000D01*
X116214955Y-97630287D01*
X116409010Y-97409010D01*
X116630287Y-97214955D01*
X116875000Y-97051443D01*
X117138962Y-96921271D01*
X117417657Y-96826667D01*
X117706316Y-96769249D01*
X118000000Y-96750000D01*
X118293684Y-96769249D01*
G37*
G36*
X157293684Y-96769249D02*
G01*
X157582343Y-96826667D01*
X157861038Y-96921271D01*
X158125000Y-97051443D01*
X158369713Y-97214955D01*
X158590990Y-97409010D01*
X158785045Y-97630287D01*
X158948557Y-97875000D01*
X159078729Y-98138962D01*
X159173333Y-98417657D01*
X159230751Y-98706316D01*
X159250000Y-99000000D01*
X159230751Y-99293684D01*
X159173333Y-99582343D01*
X159078729Y-99861038D01*
X158948557Y-100125000D01*
X158785045Y-100369713D01*
X158590990Y-100590990D01*
X158369713Y-100785045D01*
X158125000Y-100948557D01*
X157861038Y-101078729D01*
X157582343Y-101173333D01*
X157293684Y-101230751D01*
X157000000Y-101250000D01*
X156706316Y-101230751D01*
X156417657Y-101173333D01*
X156138962Y-101078729D01*
X155875000Y-100948557D01*
X155630287Y-100785045D01*
X155409010Y-100590990D01*
X155214955Y-100369713D01*
X155051443Y-100125000D01*
X154921271Y-99861038D01*
X154826667Y-99582343D01*
X154769249Y-99293684D01*
X154750000Y-99000000D01*
X154769249Y-98706316D01*
X154826667Y-98417657D01*
X154921271Y-98138962D01*
X155051443Y-97875000D01*
X155214955Y-97630287D01*
X155409010Y-97409010D01*
X155630287Y-97214955D01*
X155875000Y-97051443D01*
X156138962Y-96921271D01*
X156417657Y-96826667D01*
X156706316Y-96769249D01*
X157000000Y-96750000D01*
X157293684Y-96769249D01*
G37*
G36*
X125904116Y-97200818D02*
G01*
X125955379Y-97206766D01*
X125972892Y-97214499D01*
X125995671Y-97219030D01*
X126020057Y-97235324D01*
X126040788Y-97244478D01*
X126054946Y-97258636D01*
X126076777Y-97273223D01*
X126091363Y-97295053D01*
X126105521Y-97309211D01*
X126114673Y-97329939D01*
X126130970Y-97354329D01*
X126135501Y-97377109D01*
X126143233Y-97394620D01*
X126149178Y-97445872D01*
X126150000Y-97450000D01*
X126150000Y-100550000D01*
X126149178Y-100554128D01*
X126143233Y-100605379D01*
X126135501Y-100622888D01*
X126130970Y-100645671D01*
X126114672Y-100670062D01*
X126105521Y-100690788D01*
X126091365Y-100704943D01*
X126076777Y-100726777D01*
X126054943Y-100741365D01*
X126040788Y-100755521D01*
X126020062Y-100764672D01*
X125995671Y-100780970D01*
X125972888Y-100785501D01*
X125955379Y-100793233D01*
X125904129Y-100799178D01*
X125900000Y-100800000D01*
X124600000Y-100800000D01*
X124595873Y-100799179D01*
X124544620Y-100793233D01*
X124527109Y-100785501D01*
X124504329Y-100780970D01*
X124479939Y-100764673D01*
X124459211Y-100755521D01*
X124445053Y-100741363D01*
X124423223Y-100726777D01*
X124408636Y-100704946D01*
X124394478Y-100690788D01*
X124385324Y-100670057D01*
X124369030Y-100645671D01*
X124364499Y-100622892D01*
X124356766Y-100605379D01*
X124350818Y-100554117D01*
X124350000Y-100550000D01*
X124350000Y-97450000D01*
X124350818Y-97445885D01*
X124356766Y-97394620D01*
X124364499Y-97377105D01*
X124369030Y-97354329D01*
X124385323Y-97329944D01*
X124394478Y-97309211D01*
X124408638Y-97295050D01*
X124423223Y-97273223D01*
X124445050Y-97258638D01*
X124459211Y-97244478D01*
X124479944Y-97235323D01*
X124504329Y-97219030D01*
X124527105Y-97214499D01*
X124544620Y-97206766D01*
X124595884Y-97200818D01*
X124600000Y-97200000D01*
X125900000Y-97200000D01*
X125904116Y-97200818D01*
G37*
G36*
X128773716Y-97204930D02*
G01*
X128844076Y-97204930D01*
X128866123Y-97209616D01*
X128886247Y-97210637D01*
X128956494Y-97228825D01*
X129028115Y-97244049D01*
X129045937Y-97251984D01*
X129062479Y-97256267D01*
X129130512Y-97289639D01*
X129200000Y-97320577D01*
X129213336Y-97330266D01*
X129225930Y-97336444D01*
X129288488Y-97384867D01*
X129352218Y-97431170D01*
X129361214Y-97441161D01*
X129369890Y-97447877D01*
X129423717Y-97510577D01*
X129478115Y-97570993D01*
X129483317Y-97580003D01*
X129488471Y-97586007D01*
X129530464Y-97661664D01*
X129572191Y-97733937D01*
X129574467Y-97740942D01*
X129576822Y-97745185D01*
X129604241Y-97832577D01*
X129630333Y-97912879D01*
X129630784Y-97917178D01*
X129631320Y-97918884D01*
X129641935Y-98023273D01*
X129650000Y-98100000D01*
X129650000Y-99900000D01*
X129649873Y-99901204D01*
X129645382Y-99989756D01*
X129635525Y-100037719D01*
X129630333Y-100087121D01*
X129616837Y-100128656D01*
X129608475Y-100169348D01*
X129588464Y-100215977D01*
X129572191Y-100266063D01*
X129551859Y-100301277D01*
X129536683Y-100336644D01*
X129505938Y-100380814D01*
X129478115Y-100429007D01*
X129452917Y-100456991D01*
X129432683Y-100486063D01*
X129391450Y-100525257D01*
X129352218Y-100568830D01*
X129324193Y-100589191D01*
X129300733Y-100611492D01*
X129249823Y-100643224D01*
X129200000Y-100679423D01*
X129171114Y-100692283D01*
X129146240Y-100707788D01*
X129087076Y-100729699D01*
X129028115Y-100755951D01*
X129000140Y-100761897D01*
X128975519Y-100771016D01*
X128910068Y-100781042D01*
X128844076Y-100795070D01*
X128818504Y-100795070D01*
X128795573Y-100798583D01*
X128726303Y-100795070D01*
X128655924Y-100795070D01*
X128633870Y-100790382D01*
X128613752Y-100789362D01*
X128543521Y-100771177D01*
X128471885Y-100755951D01*
X128454058Y-100748014D01*
X128437520Y-100743732D01*
X128369498Y-100710365D01*
X128300000Y-100679423D01*
X128286661Y-100669731D01*
X128274069Y-100663555D01*
X128211516Y-100615135D01*
X128147782Y-100568830D01*
X128138784Y-100558837D01*
X128130109Y-100552122D01*
X128076279Y-100489418D01*
X128021885Y-100429007D01*
X128016682Y-100419996D01*
X128011528Y-100413992D01*
X127969524Y-100338315D01*
X127927809Y-100266063D01*
X127925533Y-100259059D01*
X127923177Y-100254814D01*
X127895738Y-100167360D01*
X127869667Y-100087121D01*
X127869215Y-100082824D01*
X127868679Y-100081115D01*
X127858054Y-99976630D01*
X127850000Y-99900000D01*
X127850000Y-98100000D01*
X127850126Y-98098796D01*
X127854617Y-98010243D01*
X127864476Y-97962268D01*
X127869667Y-97912879D01*
X127883159Y-97871353D01*
X127891524Y-97830651D01*
X127911539Y-97784008D01*
X127927809Y-97733937D01*
X127948134Y-97698732D01*
X127963316Y-97663355D01*
X127994069Y-97619171D01*
X128021885Y-97570993D01*
X128047075Y-97543016D01*
X128067316Y-97513936D01*
X128108561Y-97474728D01*
X128147782Y-97431170D01*
X128175798Y-97410814D01*
X128199266Y-97388507D01*
X128250192Y-97356764D01*
X128300000Y-97320577D01*
X128328876Y-97307720D01*
X128353759Y-97292211D01*
X128412942Y-97270292D01*
X128471885Y-97244049D01*
X128499850Y-97238104D01*
X128524480Y-97228983D01*
X128589950Y-97218953D01*
X128655924Y-97204930D01*
X128681488Y-97204930D01*
X128704426Y-97201416D01*
X128773716Y-97204930D01*
G37*
G36*
X132273716Y-97204930D02*
G01*
X132344076Y-97204930D01*
X132366123Y-97209616D01*
X132386247Y-97210637D01*
X132456494Y-97228825D01*
X132528115Y-97244049D01*
X132545937Y-97251984D01*
X132562479Y-97256267D01*
X132630512Y-97289639D01*
X132700000Y-97320577D01*
X132713336Y-97330266D01*
X132725930Y-97336444D01*
X132788488Y-97384867D01*
X132852218Y-97431170D01*
X132861214Y-97441161D01*
X132869890Y-97447877D01*
X132923717Y-97510577D01*
X132978115Y-97570993D01*
X132983317Y-97580003D01*
X132988471Y-97586007D01*
X133030464Y-97661664D01*
X133072191Y-97733937D01*
X133074467Y-97740942D01*
X133076822Y-97745185D01*
X133104241Y-97832577D01*
X133130333Y-97912879D01*
X133130784Y-97917178D01*
X133131320Y-97918884D01*
X133141935Y-98023273D01*
X133150000Y-98100000D01*
X133150000Y-99900000D01*
X133149873Y-99901204D01*
X133145382Y-99989756D01*
X133135525Y-100037719D01*
X133130333Y-100087121D01*
X133116837Y-100128656D01*
X133108475Y-100169348D01*
X133088464Y-100215977D01*
X133072191Y-100266063D01*
X133051859Y-100301277D01*
X133036683Y-100336644D01*
X133005938Y-100380814D01*
X132978115Y-100429007D01*
X132952917Y-100456991D01*
X132932683Y-100486063D01*
X132891450Y-100525257D01*
X132852218Y-100568830D01*
X132824193Y-100589191D01*
X132800733Y-100611492D01*
X132749823Y-100643224D01*
X132700000Y-100679423D01*
X132671114Y-100692283D01*
X132646240Y-100707788D01*
X132587076Y-100729699D01*
X132528115Y-100755951D01*
X132500140Y-100761897D01*
X132475519Y-100771016D01*
X132410068Y-100781042D01*
X132344076Y-100795070D01*
X132318504Y-100795070D01*
X132295573Y-100798583D01*
X132226303Y-100795070D01*
X132155924Y-100795070D01*
X132133870Y-100790382D01*
X132113752Y-100789362D01*
X132043521Y-100771177D01*
X131971885Y-100755951D01*
X131954058Y-100748014D01*
X131937520Y-100743732D01*
X131869498Y-100710365D01*
X131800000Y-100679423D01*
X131786661Y-100669731D01*
X131774069Y-100663555D01*
X131711516Y-100615135D01*
X131647782Y-100568830D01*
X131638784Y-100558837D01*
X131630109Y-100552122D01*
X131576279Y-100489418D01*
X131521885Y-100429007D01*
X131516682Y-100419996D01*
X131511528Y-100413992D01*
X131469524Y-100338315D01*
X131427809Y-100266063D01*
X131425533Y-100259059D01*
X131423177Y-100254814D01*
X131395738Y-100167360D01*
X131369667Y-100087121D01*
X131369215Y-100082824D01*
X131368679Y-100081115D01*
X131358054Y-99976630D01*
X131350000Y-99900000D01*
X131350000Y-98100000D01*
X131350126Y-98098796D01*
X131354617Y-98010243D01*
X131364476Y-97962268D01*
X131369667Y-97912879D01*
X131383159Y-97871353D01*
X131391524Y-97830651D01*
X131411539Y-97784008D01*
X131427809Y-97733937D01*
X131448134Y-97698732D01*
X131463316Y-97663355D01*
X131494069Y-97619171D01*
X131521885Y-97570993D01*
X131547075Y-97543016D01*
X131567316Y-97513936D01*
X131608561Y-97474728D01*
X131647782Y-97431170D01*
X131675798Y-97410814D01*
X131699266Y-97388507D01*
X131750192Y-97356764D01*
X131800000Y-97320577D01*
X131828876Y-97307720D01*
X131853759Y-97292211D01*
X131912942Y-97270292D01*
X131971885Y-97244049D01*
X131999850Y-97238104D01*
X132024480Y-97228983D01*
X132089950Y-97218953D01*
X132155924Y-97204930D01*
X132181488Y-97204930D01*
X132204426Y-97201416D01*
X132273716Y-97204930D01*
G37*
G36*
X135773716Y-97204930D02*
G01*
X135844076Y-97204930D01*
X135866123Y-97209616D01*
X135886247Y-97210637D01*
X135956494Y-97228825D01*
X136028115Y-97244049D01*
X136045937Y-97251984D01*
X136062479Y-97256267D01*
X136130512Y-97289639D01*
X136200000Y-97320577D01*
X136213336Y-97330266D01*
X136225930Y-97336444D01*
X136288488Y-97384867D01*
X136352218Y-97431170D01*
X136361214Y-97441161D01*
X136369890Y-97447877D01*
X136423717Y-97510577D01*
X136478115Y-97570993D01*
X136483317Y-97580003D01*
X136488471Y-97586007D01*
X136530464Y-97661664D01*
X136572191Y-97733937D01*
X136574467Y-97740942D01*
X136576822Y-97745185D01*
X136604241Y-97832577D01*
X136630333Y-97912879D01*
X136630784Y-97917178D01*
X136631320Y-97918884D01*
X136641935Y-98023273D01*
X136650000Y-98100000D01*
X136650000Y-99900000D01*
X136649873Y-99901204D01*
X136645382Y-99989756D01*
X136635525Y-100037719D01*
X136630333Y-100087121D01*
X136616837Y-100128656D01*
X136608475Y-100169348D01*
X136588464Y-100215977D01*
X136572191Y-100266063D01*
X136551859Y-100301277D01*
X136536683Y-100336644D01*
X136505938Y-100380814D01*
X136478115Y-100429007D01*
X136452917Y-100456991D01*
X136432683Y-100486063D01*
X136391450Y-100525257D01*
X136352218Y-100568830D01*
X136324193Y-100589191D01*
X136300733Y-100611492D01*
X136249823Y-100643224D01*
X136200000Y-100679423D01*
X136171114Y-100692283D01*
X136146240Y-100707788D01*
X136087076Y-100729699D01*
X136028115Y-100755951D01*
X136000140Y-100761897D01*
X135975519Y-100771016D01*
X135910068Y-100781042D01*
X135844076Y-100795070D01*
X135818504Y-100795070D01*
X135795573Y-100798583D01*
X135726303Y-100795070D01*
X135655924Y-100795070D01*
X135633870Y-100790382D01*
X135613752Y-100789362D01*
X135543521Y-100771177D01*
X135471885Y-100755951D01*
X135454058Y-100748014D01*
X135437520Y-100743732D01*
X135369498Y-100710365D01*
X135300000Y-100679423D01*
X135286661Y-100669731D01*
X135274069Y-100663555D01*
X135211516Y-100615135D01*
X135147782Y-100568830D01*
X135138784Y-100558837D01*
X135130109Y-100552122D01*
X135076279Y-100489418D01*
X135021885Y-100429007D01*
X135016682Y-100419996D01*
X135011528Y-100413992D01*
X134969524Y-100338315D01*
X134927809Y-100266063D01*
X134925533Y-100259059D01*
X134923177Y-100254814D01*
X134895738Y-100167360D01*
X134869667Y-100087121D01*
X134869215Y-100082824D01*
X134868679Y-100081115D01*
X134858054Y-99976630D01*
X134850000Y-99900000D01*
X134850000Y-98100000D01*
X134850126Y-98098796D01*
X134854617Y-98010243D01*
X134864476Y-97962268D01*
X134869667Y-97912879D01*
X134883159Y-97871353D01*
X134891524Y-97830651D01*
X134911539Y-97784008D01*
X134927809Y-97733937D01*
X134948134Y-97698732D01*
X134963316Y-97663355D01*
X134994069Y-97619171D01*
X135021885Y-97570993D01*
X135047075Y-97543016D01*
X135067316Y-97513936D01*
X135108561Y-97474728D01*
X135147782Y-97431170D01*
X135175798Y-97410814D01*
X135199266Y-97388507D01*
X135250192Y-97356764D01*
X135300000Y-97320577D01*
X135328876Y-97307720D01*
X135353759Y-97292211D01*
X135412942Y-97270292D01*
X135471885Y-97244049D01*
X135499850Y-97238104D01*
X135524480Y-97228983D01*
X135589950Y-97218953D01*
X135655924Y-97204930D01*
X135681488Y-97204930D01*
X135704426Y-97201416D01*
X135773716Y-97204930D01*
G37*
G36*
X139273716Y-97204930D02*
G01*
X139344076Y-97204930D01*
X139366123Y-97209616D01*
X139386247Y-97210637D01*
X139456494Y-97228825D01*
X139528115Y-97244049D01*
X139545937Y-97251984D01*
X139562479Y-97256267D01*
X139630512Y-97289639D01*
X139700000Y-97320577D01*
X139713336Y-97330266D01*
X139725930Y-97336444D01*
X139788488Y-97384867D01*
X139852218Y-97431170D01*
X139861214Y-97441161D01*
X139869890Y-97447877D01*
X139923717Y-97510577D01*
X139978115Y-97570993D01*
X139983317Y-97580003D01*
X139988471Y-97586007D01*
X140030464Y-97661664D01*
X140072191Y-97733937D01*
X140074467Y-97740942D01*
X140076822Y-97745185D01*
X140104241Y-97832577D01*
X140130333Y-97912879D01*
X140130784Y-97917178D01*
X140131320Y-97918884D01*
X140141935Y-98023273D01*
X140150000Y-98100000D01*
X140150000Y-99900000D01*
X140149873Y-99901204D01*
X140145382Y-99989756D01*
X140135525Y-100037719D01*
X140130333Y-100087121D01*
X140116837Y-100128656D01*
X140108475Y-100169348D01*
X140088464Y-100215977D01*
X140072191Y-100266063D01*
X140051859Y-100301277D01*
X140036683Y-100336644D01*
X140005938Y-100380814D01*
X139978115Y-100429007D01*
X139952917Y-100456991D01*
X139932683Y-100486063D01*
X139891450Y-100525257D01*
X139852218Y-100568830D01*
X139824193Y-100589191D01*
X139800733Y-100611492D01*
X139749823Y-100643224D01*
X139700000Y-100679423D01*
X139671114Y-100692283D01*
X139646240Y-100707788D01*
X139587076Y-100729699D01*
X139528115Y-100755951D01*
X139500140Y-100761897D01*
X139475519Y-100771016D01*
X139410068Y-100781042D01*
X139344076Y-100795070D01*
X139318504Y-100795070D01*
X139295573Y-100798583D01*
X139226303Y-100795070D01*
X139155924Y-100795070D01*
X139133870Y-100790382D01*
X139113752Y-100789362D01*
X139043521Y-100771177D01*
X138971885Y-100755951D01*
X138954058Y-100748014D01*
X138937520Y-100743732D01*
X138869498Y-100710365D01*
X138800000Y-100679423D01*
X138786661Y-100669731D01*
X138774069Y-100663555D01*
X138711516Y-100615135D01*
X138647782Y-100568830D01*
X138638784Y-100558837D01*
X138630109Y-100552122D01*
X138576279Y-100489418D01*
X138521885Y-100429007D01*
X138516682Y-100419996D01*
X138511528Y-100413992D01*
X138469524Y-100338315D01*
X138427809Y-100266063D01*
X138425533Y-100259059D01*
X138423177Y-100254814D01*
X138395738Y-100167360D01*
X138369667Y-100087121D01*
X138369215Y-100082824D01*
X138368679Y-100081115D01*
X138358054Y-99976630D01*
X138350000Y-99900000D01*
X138350000Y-98100000D01*
X138350126Y-98098796D01*
X138354617Y-98010243D01*
X138364476Y-97962268D01*
X138369667Y-97912879D01*
X138383159Y-97871353D01*
X138391524Y-97830651D01*
X138411539Y-97784008D01*
X138427809Y-97733937D01*
X138448134Y-97698732D01*
X138463316Y-97663355D01*
X138494069Y-97619171D01*
X138521885Y-97570993D01*
X138547075Y-97543016D01*
X138567316Y-97513936D01*
X138608561Y-97474728D01*
X138647782Y-97431170D01*
X138675798Y-97410814D01*
X138699266Y-97388507D01*
X138750192Y-97356764D01*
X138800000Y-97320577D01*
X138828876Y-97307720D01*
X138853759Y-97292211D01*
X138912942Y-97270292D01*
X138971885Y-97244049D01*
X138999850Y-97238104D01*
X139024480Y-97228983D01*
X139089950Y-97218953D01*
X139155924Y-97204930D01*
X139181488Y-97204930D01*
X139204426Y-97201416D01*
X139273716Y-97204930D01*
G37*
G36*
X142773716Y-97204930D02*
G01*
X142844076Y-97204930D01*
X142866123Y-97209616D01*
X142886247Y-97210637D01*
X142956494Y-97228825D01*
X143028115Y-97244049D01*
X143045937Y-97251984D01*
X143062479Y-97256267D01*
X143130512Y-97289639D01*
X143200000Y-97320577D01*
X143213336Y-97330266D01*
X143225930Y-97336444D01*
X143288488Y-97384867D01*
X143352218Y-97431170D01*
X143361214Y-97441161D01*
X143369890Y-97447877D01*
X143423717Y-97510577D01*
X143478115Y-97570993D01*
X143483317Y-97580003D01*
X143488471Y-97586007D01*
X143530464Y-97661664D01*
X143572191Y-97733937D01*
X143574467Y-97740942D01*
X143576822Y-97745185D01*
X143604241Y-97832577D01*
X143630333Y-97912879D01*
X143630784Y-97917178D01*
X143631320Y-97918884D01*
X143641935Y-98023273D01*
X143650000Y-98100000D01*
X143650000Y-99900000D01*
X143649873Y-99901204D01*
X143645382Y-99989756D01*
X143635525Y-100037719D01*
X143630333Y-100087121D01*
X143616837Y-100128656D01*
X143608475Y-100169348D01*
X143588464Y-100215977D01*
X143572191Y-100266063D01*
X143551859Y-100301277D01*
X143536683Y-100336644D01*
X143505938Y-100380814D01*
X143478115Y-100429007D01*
X143452917Y-100456991D01*
X143432683Y-100486063D01*
X143391450Y-100525257D01*
X143352218Y-100568830D01*
X143324193Y-100589191D01*
X143300733Y-100611492D01*
X143249823Y-100643224D01*
X143200000Y-100679423D01*
X143171114Y-100692283D01*
X143146240Y-100707788D01*
X143087076Y-100729699D01*
X143028115Y-100755951D01*
X143000140Y-100761897D01*
X142975519Y-100771016D01*
X142910068Y-100781042D01*
X142844076Y-100795070D01*
X142818504Y-100795070D01*
X142795573Y-100798583D01*
X142726303Y-100795070D01*
X142655924Y-100795070D01*
X142633870Y-100790382D01*
X142613752Y-100789362D01*
X142543521Y-100771177D01*
X142471885Y-100755951D01*
X142454058Y-100748014D01*
X142437520Y-100743732D01*
X142369498Y-100710365D01*
X142300000Y-100679423D01*
X142286661Y-100669731D01*
X142274069Y-100663555D01*
X142211516Y-100615135D01*
X142147782Y-100568830D01*
X142138784Y-100558837D01*
X142130109Y-100552122D01*
X142076279Y-100489418D01*
X142021885Y-100429007D01*
X142016682Y-100419996D01*
X142011528Y-100413992D01*
X141969524Y-100338315D01*
X141927809Y-100266063D01*
X141925533Y-100259059D01*
X141923177Y-100254814D01*
X141895738Y-100167360D01*
X141869667Y-100087121D01*
X141869215Y-100082824D01*
X141868679Y-100081115D01*
X141858054Y-99976630D01*
X141850000Y-99900000D01*
X141850000Y-98100000D01*
X141850126Y-98098796D01*
X141854617Y-98010243D01*
X141864476Y-97962268D01*
X141869667Y-97912879D01*
X141883159Y-97871353D01*
X141891524Y-97830651D01*
X141911539Y-97784008D01*
X141927809Y-97733937D01*
X141948134Y-97698732D01*
X141963316Y-97663355D01*
X141994069Y-97619171D01*
X142021885Y-97570993D01*
X142047075Y-97543016D01*
X142067316Y-97513936D01*
X142108561Y-97474728D01*
X142147782Y-97431170D01*
X142175798Y-97410814D01*
X142199266Y-97388507D01*
X142250192Y-97356764D01*
X142300000Y-97320577D01*
X142328876Y-97307720D01*
X142353759Y-97292211D01*
X142412942Y-97270292D01*
X142471885Y-97244049D01*
X142499850Y-97238104D01*
X142524480Y-97228983D01*
X142589950Y-97218953D01*
X142655924Y-97204930D01*
X142681488Y-97204930D01*
X142704426Y-97201416D01*
X142773716Y-97204930D01*
G37*
G36*
X146273716Y-97204930D02*
G01*
X146344076Y-97204930D01*
X146366123Y-97209616D01*
X146386247Y-97210637D01*
X146456494Y-97228825D01*
X146528115Y-97244049D01*
X146545937Y-97251984D01*
X146562479Y-97256267D01*
X146630512Y-97289639D01*
X146700000Y-97320577D01*
X146713336Y-97330266D01*
X146725930Y-97336444D01*
X146788488Y-97384867D01*
X146852218Y-97431170D01*
X146861214Y-97441161D01*
X146869890Y-97447877D01*
X146923717Y-97510577D01*
X146978115Y-97570993D01*
X146983317Y-97580003D01*
X146988471Y-97586007D01*
X147030464Y-97661664D01*
X147072191Y-97733937D01*
X147074467Y-97740942D01*
X147076822Y-97745185D01*
X147104241Y-97832577D01*
X147130333Y-97912879D01*
X147130784Y-97917178D01*
X147131320Y-97918884D01*
X147141935Y-98023273D01*
X147150000Y-98100000D01*
X147150000Y-99900000D01*
X147149873Y-99901204D01*
X147145382Y-99989756D01*
X147135525Y-100037719D01*
X147130333Y-100087121D01*
X147116837Y-100128656D01*
X147108475Y-100169348D01*
X147088464Y-100215977D01*
X147072191Y-100266063D01*
X147051859Y-100301277D01*
X147036683Y-100336644D01*
X147005938Y-100380814D01*
X146978115Y-100429007D01*
X146952917Y-100456991D01*
X146932683Y-100486063D01*
X146891450Y-100525257D01*
X146852218Y-100568830D01*
X146824193Y-100589191D01*
X146800733Y-100611492D01*
X146749823Y-100643224D01*
X146700000Y-100679423D01*
X146671114Y-100692283D01*
X146646240Y-100707788D01*
X146587076Y-100729699D01*
X146528115Y-100755951D01*
X146500140Y-100761897D01*
X146475519Y-100771016D01*
X146410068Y-100781042D01*
X146344076Y-100795070D01*
X146318504Y-100795070D01*
X146295573Y-100798583D01*
X146226303Y-100795070D01*
X146155924Y-100795070D01*
X146133870Y-100790382D01*
X146113752Y-100789362D01*
X146043521Y-100771177D01*
X145971885Y-100755951D01*
X145954058Y-100748014D01*
X145937520Y-100743732D01*
X145869498Y-100710365D01*
X145800000Y-100679423D01*
X145786661Y-100669731D01*
X145774069Y-100663555D01*
X145711516Y-100615135D01*
X145647782Y-100568830D01*
X145638784Y-100558837D01*
X145630109Y-100552122D01*
X145576279Y-100489418D01*
X145521885Y-100429007D01*
X145516682Y-100419996D01*
X145511528Y-100413992D01*
X145469524Y-100338315D01*
X145427809Y-100266063D01*
X145425533Y-100259059D01*
X145423177Y-100254814D01*
X145395738Y-100167360D01*
X145369667Y-100087121D01*
X145369215Y-100082824D01*
X145368679Y-100081115D01*
X145358054Y-99976630D01*
X145350000Y-99900000D01*
X145350000Y-98100000D01*
X145350126Y-98098796D01*
X145354617Y-98010243D01*
X145364476Y-97962268D01*
X145369667Y-97912879D01*
X145383159Y-97871353D01*
X145391524Y-97830651D01*
X145411539Y-97784008D01*
X145427809Y-97733937D01*
X145448134Y-97698732D01*
X145463316Y-97663355D01*
X145494069Y-97619171D01*
X145521885Y-97570993D01*
X145547075Y-97543016D01*
X145567316Y-97513936D01*
X145608561Y-97474728D01*
X145647782Y-97431170D01*
X145675798Y-97410814D01*
X145699266Y-97388507D01*
X145750192Y-97356764D01*
X145800000Y-97320577D01*
X145828876Y-97307720D01*
X145853759Y-97292211D01*
X145912942Y-97270292D01*
X145971885Y-97244049D01*
X145999850Y-97238104D01*
X146024480Y-97228983D01*
X146089950Y-97218953D01*
X146155924Y-97204930D01*
X146181488Y-97204930D01*
X146204426Y-97201416D01*
X146273716Y-97204930D01*
G37*
G36*
X149773716Y-97204930D02*
G01*
X149844076Y-97204930D01*
X149866123Y-97209616D01*
X149886247Y-97210637D01*
X149956494Y-97228825D01*
X150028115Y-97244049D01*
X150045937Y-97251984D01*
X150062479Y-97256267D01*
X150130512Y-97289639D01*
X150200000Y-97320577D01*
X150213336Y-97330266D01*
X150225930Y-97336444D01*
X150288488Y-97384867D01*
X150352218Y-97431170D01*
X150361214Y-97441161D01*
X150369890Y-97447877D01*
X150423717Y-97510577D01*
X150478115Y-97570993D01*
X150483317Y-97580003D01*
X150488471Y-97586007D01*
X150530464Y-97661664D01*
X150572191Y-97733937D01*
X150574467Y-97740942D01*
X150576822Y-97745185D01*
X150604241Y-97832577D01*
X150630333Y-97912879D01*
X150630784Y-97917178D01*
X150631320Y-97918884D01*
X150641935Y-98023273D01*
X150650000Y-98100000D01*
X150650000Y-99900000D01*
X150649873Y-99901204D01*
X150645382Y-99989756D01*
X150635525Y-100037719D01*
X150630333Y-100087121D01*
X150616837Y-100128656D01*
X150608475Y-100169348D01*
X150588464Y-100215977D01*
X150572191Y-100266063D01*
X150551859Y-100301277D01*
X150536683Y-100336644D01*
X150505938Y-100380814D01*
X150478115Y-100429007D01*
X150452917Y-100456991D01*
X150432683Y-100486063D01*
X150391450Y-100525257D01*
X150352218Y-100568830D01*
X150324193Y-100589191D01*
X150300733Y-100611492D01*
X150249823Y-100643224D01*
X150200000Y-100679423D01*
X150171114Y-100692283D01*
X150146240Y-100707788D01*
X150087076Y-100729699D01*
X150028115Y-100755951D01*
X150000140Y-100761897D01*
X149975519Y-100771016D01*
X149910068Y-100781042D01*
X149844076Y-100795070D01*
X149818504Y-100795070D01*
X149795573Y-100798583D01*
X149726303Y-100795070D01*
X149655924Y-100795070D01*
X149633870Y-100790382D01*
X149613752Y-100789362D01*
X149543521Y-100771177D01*
X149471885Y-100755951D01*
X149454058Y-100748014D01*
X149437520Y-100743732D01*
X149369498Y-100710365D01*
X149300000Y-100679423D01*
X149286661Y-100669731D01*
X149274069Y-100663555D01*
X149211516Y-100615135D01*
X149147782Y-100568830D01*
X149138784Y-100558837D01*
X149130109Y-100552122D01*
X149076279Y-100489418D01*
X149021885Y-100429007D01*
X149016682Y-100419996D01*
X149011528Y-100413992D01*
X148969524Y-100338315D01*
X148927809Y-100266063D01*
X148925533Y-100259059D01*
X148923177Y-100254814D01*
X148895738Y-100167360D01*
X148869667Y-100087121D01*
X148869215Y-100082824D01*
X148868679Y-100081115D01*
X148858054Y-99976630D01*
X148850000Y-99900000D01*
X148850000Y-98100000D01*
X148850126Y-98098796D01*
X148854617Y-98010243D01*
X148864476Y-97962268D01*
X148869667Y-97912879D01*
X148883159Y-97871353D01*
X148891524Y-97830651D01*
X148911539Y-97784008D01*
X148927809Y-97733937D01*
X148948134Y-97698732D01*
X148963316Y-97663355D01*
X148994069Y-97619171D01*
X149021885Y-97570993D01*
X149047075Y-97543016D01*
X149067316Y-97513936D01*
X149108561Y-97474728D01*
X149147782Y-97431170D01*
X149175798Y-97410814D01*
X149199266Y-97388507D01*
X149250192Y-97356764D01*
X149300000Y-97320577D01*
X149328876Y-97307720D01*
X149353759Y-97292211D01*
X149412942Y-97270292D01*
X149471885Y-97244049D01*
X149499850Y-97238104D01*
X149524480Y-97228983D01*
X149589950Y-97218953D01*
X149655924Y-97204930D01*
X149681488Y-97204930D01*
X149704426Y-97201416D01*
X149773716Y-97204930D01*
G37*
G36*
X99293684Y-86769249D02*
G01*
X99582343Y-86826667D01*
X99861038Y-86921271D01*
X100125000Y-87051443D01*
X100369713Y-87214955D01*
X100590990Y-87409010D01*
X100785045Y-87630287D01*
X100948557Y-87875000D01*
X101078729Y-88138962D01*
X101173333Y-88417657D01*
X101230751Y-88706316D01*
X101250000Y-89000000D01*
X101230751Y-89293684D01*
X101173333Y-89582343D01*
X101078729Y-89861038D01*
X100948557Y-90125000D01*
X100785045Y-90369713D01*
X100590990Y-90590990D01*
X100369713Y-90785045D01*
X100125000Y-90948557D01*
X99861038Y-91078729D01*
X99582343Y-91173333D01*
X99293684Y-91230751D01*
X99000000Y-91250000D01*
X98706316Y-91230751D01*
X98417657Y-91173333D01*
X98138962Y-91078729D01*
X97875000Y-90948557D01*
X97630287Y-90785045D01*
X97409010Y-90590990D01*
X97214955Y-90369713D01*
X97051443Y-90125000D01*
X96921271Y-89861038D01*
X96826667Y-89582343D01*
X96769249Y-89293684D01*
X96750000Y-89000000D01*
X96769249Y-88706316D01*
X96826667Y-88417657D01*
X96921271Y-88138962D01*
X97051443Y-87875000D01*
X97214955Y-87630287D01*
X97409010Y-87409010D01*
X97630287Y-87214955D01*
X97875000Y-87051443D01*
X98138962Y-86921271D01*
X98417657Y-86826667D01*
X98706316Y-86769249D01*
X99000000Y-86750000D01*
X99293684Y-86769249D01*
G37*
G36*
X176293684Y-86769249D02*
G01*
X176582343Y-86826667D01*
X176861038Y-86921271D01*
X177125000Y-87051443D01*
X177369713Y-87214955D01*
X177590990Y-87409010D01*
X177785045Y-87630287D01*
X177948557Y-87875000D01*
X178078729Y-88138962D01*
X178173333Y-88417657D01*
X178230751Y-88706316D01*
X178250000Y-89000000D01*
X178230751Y-89293684D01*
X178173333Y-89582343D01*
X178078729Y-89861038D01*
X177948557Y-90125000D01*
X177785045Y-90369713D01*
X177590990Y-90590990D01*
X177369713Y-90785045D01*
X177125000Y-90948557D01*
X176861038Y-91078729D01*
X176582343Y-91173333D01*
X176293684Y-91230751D01*
X176000000Y-91250000D01*
X175706316Y-91230751D01*
X175417657Y-91173333D01*
X175138962Y-91078729D01*
X174875000Y-90948557D01*
X174630287Y-90785045D01*
X174409010Y-90590990D01*
X174214955Y-90369713D01*
X174051443Y-90125000D01*
X173921271Y-89861038D01*
X173826667Y-89582343D01*
X173769249Y-89293684D01*
X173750000Y-89000000D01*
X173769249Y-88706316D01*
X173826667Y-88417657D01*
X173921271Y-88138962D01*
X174051443Y-87875000D01*
X174214955Y-87630287D01*
X174409010Y-87409010D01*
X174630287Y-87214955D01*
X174875000Y-87051443D01*
X175138962Y-86921271D01*
X175417657Y-86826667D01*
X175706316Y-86769249D01*
X176000000Y-86750000D01*
X176293684Y-86769249D01*
G37*
G36*
X177774716Y-83044511D02*
G01*
X177944500Y-83120103D01*
X178094857Y-83229344D01*
X178219216Y-83367459D01*
X178312142Y-83528411D01*
X178369573Y-83705167D01*
X178389000Y-83890000D01*
X178369573Y-84074833D01*
X178312142Y-84251589D01*
X178219216Y-84412541D01*
X178094857Y-84550656D01*
X177944500Y-84659897D01*
X177774716Y-84735489D01*
X177592926Y-84774130D01*
X177407074Y-84774130D01*
X177225284Y-84735489D01*
X177055500Y-84659897D01*
X176905143Y-84550656D01*
X176780784Y-84412541D01*
X176687858Y-84251589D01*
X176630427Y-84074833D01*
X176611000Y-83890000D01*
X176630427Y-83705167D01*
X176687858Y-83528411D01*
X176780784Y-83367459D01*
X176905143Y-83229344D01*
X177055500Y-83120103D01*
X177225284Y-83044511D01*
X177407074Y-83005870D01*
X177592926Y-83005870D01*
X177774716Y-83044511D01*
G37*
G36*
X177774716Y-77964511D02*
G01*
X177944500Y-78040103D01*
X178094857Y-78149344D01*
X178219216Y-78287459D01*
X178312142Y-78448411D01*
X178369573Y-78625167D01*
X178389000Y-78810000D01*
X178369573Y-78994833D01*
X178312142Y-79171589D01*
X178219216Y-79332541D01*
X178094857Y-79470656D01*
X177944500Y-79579897D01*
X177774716Y-79655489D01*
X177592926Y-79694130D01*
X177407074Y-79694130D01*
X177225284Y-79655489D01*
X177055500Y-79579897D01*
X176905143Y-79470656D01*
X176780784Y-79332541D01*
X176687858Y-79171589D01*
X176630427Y-78994833D01*
X176611000Y-78810000D01*
X176630427Y-78625167D01*
X176687858Y-78448411D01*
X176780784Y-78287459D01*
X176905143Y-78149344D01*
X177055500Y-78040103D01*
X177225284Y-77964511D01*
X177407074Y-77925870D01*
X177592926Y-77925870D01*
X177774716Y-77964511D01*
G37*
G36*
X177774716Y-67804511D02*
G01*
X177944500Y-67880103D01*
X178094857Y-67989344D01*
X178219216Y-68127459D01*
X178312142Y-68288411D01*
X178369573Y-68465167D01*
X178389000Y-68650000D01*
X178369573Y-68834833D01*
X178312142Y-69011589D01*
X178219216Y-69172541D01*
X178094857Y-69310656D01*
X177944500Y-69419897D01*
X177774716Y-69495489D01*
X177592926Y-69534130D01*
X177407074Y-69534130D01*
X177225284Y-69495489D01*
X177055500Y-69419897D01*
X176905143Y-69310656D01*
X176780784Y-69172541D01*
X176687858Y-69011589D01*
X176630427Y-68834833D01*
X176611000Y-68650000D01*
X176630427Y-68465167D01*
X176687858Y-68288411D01*
X176780784Y-68127459D01*
X176905143Y-67989344D01*
X177055500Y-67880103D01*
X177225284Y-67804511D01*
X177407074Y-67765870D01*
X177592926Y-67765870D01*
X177774716Y-67804511D01*
G37*
G36*
X119250000Y-68352500D02*
G01*
X117650000Y-68352500D01*
X117650000Y-66752500D01*
X119250000Y-66752500D01*
X119250000Y-68352500D01*
G37*
G36*
X121031367Y-66757161D02*
G01*
X121073593Y-66757161D01*
X121121228Y-66767286D01*
X121168017Y-66772558D01*
X121202039Y-66784462D01*
X121237127Y-66791921D01*
X121287695Y-66814435D01*
X121337107Y-66831725D01*
X121362823Y-66847883D01*
X121389860Y-66859921D01*
X121440275Y-66896550D01*
X121488792Y-66927035D01*
X121506214Y-66944457D01*
X121525117Y-66958191D01*
X121571844Y-67010087D01*
X121615465Y-67053708D01*
X121625499Y-67069677D01*
X121636986Y-67082435D01*
X121676285Y-67150503D01*
X121710775Y-67205393D01*
X121715080Y-67217697D01*
X121720580Y-67227223D01*
X121748740Y-67313892D01*
X121769942Y-67374483D01*
X121770746Y-67381618D01*
X121772244Y-67386229D01*
X121785820Y-67515404D01*
X121790000Y-67552500D01*
X121785819Y-67589598D01*
X121772244Y-67718770D01*
X121770746Y-67723379D01*
X121769942Y-67730517D01*
X121748736Y-67791120D01*
X121720580Y-67877776D01*
X121715081Y-67887299D01*
X121710775Y-67899607D01*
X121676278Y-67954507D01*
X121636986Y-68022564D01*
X121625501Y-68035318D01*
X121615465Y-68051292D01*
X121571835Y-68094921D01*
X121525117Y-68146808D01*
X121506218Y-68160538D01*
X121488792Y-68177965D01*
X121440265Y-68208456D01*
X121389860Y-68245078D01*
X121362829Y-68257112D01*
X121337107Y-68273275D01*
X121287685Y-68290568D01*
X121237127Y-68313078D01*
X121202045Y-68320535D01*
X121168017Y-68332442D01*
X121121225Y-68337714D01*
X121073593Y-68347839D01*
X121031367Y-68347839D01*
X120990000Y-68352500D01*
X120948633Y-68347839D01*
X120906407Y-68347839D01*
X120858774Y-68337714D01*
X120811983Y-68332442D01*
X120777955Y-68320535D01*
X120742872Y-68313078D01*
X120692309Y-68290566D01*
X120642893Y-68273275D01*
X120617173Y-68257114D01*
X120590139Y-68245078D01*
X120539726Y-68208451D01*
X120491208Y-68177965D01*
X120473784Y-68160541D01*
X120454882Y-68146808D01*
X120408154Y-68094911D01*
X120364535Y-68051292D01*
X120354500Y-68035322D01*
X120343013Y-68022564D01*
X120303709Y-67954487D01*
X120269225Y-67899607D01*
X120264919Y-67887303D01*
X120259419Y-67877776D01*
X120231249Y-67791080D01*
X120210058Y-67730517D01*
X120209254Y-67723384D01*
X120207755Y-67718770D01*
X120194165Y-67589466D01*
X120190000Y-67552500D01*
X120194164Y-67515536D01*
X120207755Y-67386229D01*
X120209254Y-67381613D01*
X120210058Y-67374483D01*
X120231245Y-67313932D01*
X120259419Y-67227223D01*
X120264920Y-67217693D01*
X120269225Y-67205393D01*
X120303701Y-67150523D01*
X120343013Y-67082435D01*
X120354502Y-67069674D01*
X120364535Y-67053708D01*
X120408145Y-67010097D01*
X120454882Y-66958191D01*
X120473787Y-66944455D01*
X120491208Y-66927035D01*
X120539721Y-66896552D01*
X120590140Y-66859921D01*
X120617176Y-66847883D01*
X120642893Y-66831725D01*
X120692301Y-66814436D01*
X120742872Y-66791921D01*
X120777961Y-66784462D01*
X120811983Y-66772558D01*
X120858771Y-66767286D01*
X120906407Y-66757161D01*
X120948633Y-66757161D01*
X120990000Y-66752500D01*
X121031367Y-66757161D01*
G37*
G36*
X123571367Y-66757161D02*
G01*
X123613593Y-66757161D01*
X123661228Y-66767286D01*
X123708017Y-66772558D01*
X123742039Y-66784462D01*
X123777127Y-66791921D01*
X123827695Y-66814435D01*
X123877107Y-66831725D01*
X123902823Y-66847883D01*
X123929860Y-66859921D01*
X123980275Y-66896550D01*
X124028792Y-66927035D01*
X124046214Y-66944457D01*
X124065117Y-66958191D01*
X124111844Y-67010087D01*
X124155465Y-67053708D01*
X124165499Y-67069677D01*
X124176986Y-67082435D01*
X124216285Y-67150503D01*
X124250775Y-67205393D01*
X124255080Y-67217697D01*
X124260580Y-67227223D01*
X124288740Y-67313892D01*
X124309942Y-67374483D01*
X124310746Y-67381618D01*
X124312244Y-67386229D01*
X124325820Y-67515404D01*
X124330000Y-67552500D01*
X124325819Y-67589598D01*
X124312244Y-67718770D01*
X124310746Y-67723379D01*
X124309942Y-67730517D01*
X124288736Y-67791120D01*
X124260580Y-67877776D01*
X124255081Y-67887299D01*
X124250775Y-67899607D01*
X124216278Y-67954507D01*
X124176986Y-68022564D01*
X124165501Y-68035318D01*
X124155465Y-68051292D01*
X124111835Y-68094921D01*
X124065117Y-68146808D01*
X124046218Y-68160538D01*
X124028792Y-68177965D01*
X123980265Y-68208456D01*
X123929860Y-68245078D01*
X123902829Y-68257112D01*
X123877107Y-68273275D01*
X123827685Y-68290568D01*
X123777127Y-68313078D01*
X123742045Y-68320535D01*
X123708017Y-68332442D01*
X123661225Y-68337714D01*
X123613593Y-68347839D01*
X123571367Y-68347839D01*
X123530000Y-68352500D01*
X123488633Y-68347839D01*
X123446407Y-68347839D01*
X123398774Y-68337714D01*
X123351983Y-68332442D01*
X123317955Y-68320535D01*
X123282872Y-68313078D01*
X123232309Y-68290566D01*
X123182893Y-68273275D01*
X123157173Y-68257114D01*
X123130139Y-68245078D01*
X123079726Y-68208451D01*
X123031208Y-68177965D01*
X123013784Y-68160541D01*
X122994882Y-68146808D01*
X122948154Y-68094911D01*
X122904535Y-68051292D01*
X122894500Y-68035322D01*
X122883013Y-68022564D01*
X122843709Y-67954487D01*
X122809225Y-67899607D01*
X122804919Y-67887303D01*
X122799419Y-67877776D01*
X122771249Y-67791080D01*
X122750058Y-67730517D01*
X122749254Y-67723384D01*
X122747755Y-67718770D01*
X122734165Y-67589466D01*
X122730000Y-67552500D01*
X122734164Y-67515536D01*
X122747755Y-67386229D01*
X122749254Y-67381613D01*
X122750058Y-67374483D01*
X122771245Y-67313932D01*
X122799419Y-67227223D01*
X122804920Y-67217693D01*
X122809225Y-67205393D01*
X122843701Y-67150523D01*
X122883013Y-67082435D01*
X122894502Y-67069674D01*
X122904535Y-67053708D01*
X122948145Y-67010097D01*
X122994882Y-66958191D01*
X123013787Y-66944455D01*
X123031208Y-66927035D01*
X123079721Y-66896552D01*
X123130140Y-66859921D01*
X123157176Y-66847883D01*
X123182893Y-66831725D01*
X123232301Y-66814436D01*
X123282872Y-66791921D01*
X123317961Y-66784462D01*
X123351983Y-66772558D01*
X123398771Y-66767286D01*
X123446407Y-66757161D01*
X123488633Y-66757161D01*
X123530000Y-66752500D01*
X123571367Y-66757161D01*
G37*
G36*
X126111367Y-66757161D02*
G01*
X126153593Y-66757161D01*
X126201228Y-66767286D01*
X126248017Y-66772558D01*
X126282039Y-66784462D01*
X126317127Y-66791921D01*
X126367695Y-66814435D01*
X126417107Y-66831725D01*
X126442823Y-66847883D01*
X126469860Y-66859921D01*
X126520275Y-66896550D01*
X126568792Y-66927035D01*
X126586214Y-66944457D01*
X126605117Y-66958191D01*
X126651844Y-67010087D01*
X126695465Y-67053708D01*
X126705499Y-67069677D01*
X126716986Y-67082435D01*
X126756285Y-67150503D01*
X126790775Y-67205393D01*
X126795080Y-67217697D01*
X126800580Y-67227223D01*
X126828740Y-67313892D01*
X126849942Y-67374483D01*
X126850746Y-67381618D01*
X126852244Y-67386229D01*
X126865820Y-67515404D01*
X126870000Y-67552500D01*
X126865819Y-67589598D01*
X126852244Y-67718770D01*
X126850746Y-67723379D01*
X126849942Y-67730517D01*
X126828736Y-67791120D01*
X126800580Y-67877776D01*
X126795081Y-67887299D01*
X126790775Y-67899607D01*
X126756278Y-67954507D01*
X126716986Y-68022564D01*
X126705501Y-68035318D01*
X126695465Y-68051292D01*
X126651835Y-68094921D01*
X126605117Y-68146808D01*
X126586218Y-68160538D01*
X126568792Y-68177965D01*
X126520265Y-68208456D01*
X126469860Y-68245078D01*
X126442829Y-68257112D01*
X126417107Y-68273275D01*
X126367685Y-68290568D01*
X126317127Y-68313078D01*
X126282045Y-68320535D01*
X126248017Y-68332442D01*
X126201225Y-68337714D01*
X126153593Y-68347839D01*
X126111367Y-68347839D01*
X126070000Y-68352500D01*
X126028633Y-68347839D01*
X125986407Y-68347839D01*
X125938774Y-68337714D01*
X125891983Y-68332442D01*
X125857955Y-68320535D01*
X125822872Y-68313078D01*
X125772309Y-68290566D01*
X125722893Y-68273275D01*
X125697173Y-68257114D01*
X125670139Y-68245078D01*
X125619726Y-68208451D01*
X125571208Y-68177965D01*
X125553784Y-68160541D01*
X125534882Y-68146808D01*
X125488154Y-68094911D01*
X125444535Y-68051292D01*
X125434500Y-68035322D01*
X125423013Y-68022564D01*
X125383709Y-67954487D01*
X125349225Y-67899607D01*
X125344919Y-67887303D01*
X125339419Y-67877776D01*
X125311249Y-67791080D01*
X125290058Y-67730517D01*
X125289254Y-67723384D01*
X125287755Y-67718770D01*
X125274165Y-67589466D01*
X125270000Y-67552500D01*
X125274164Y-67515536D01*
X125287755Y-67386229D01*
X125289254Y-67381613D01*
X125290058Y-67374483D01*
X125311245Y-67313932D01*
X125339419Y-67227223D01*
X125344920Y-67217693D01*
X125349225Y-67205393D01*
X125383701Y-67150523D01*
X125423013Y-67082435D01*
X125434502Y-67069674D01*
X125444535Y-67053708D01*
X125488145Y-67010097D01*
X125534882Y-66958191D01*
X125553787Y-66944455D01*
X125571208Y-66927035D01*
X125619721Y-66896552D01*
X125670140Y-66859921D01*
X125697176Y-66847883D01*
X125722893Y-66831725D01*
X125772301Y-66814436D01*
X125822872Y-66791921D01*
X125857961Y-66784462D01*
X125891983Y-66772558D01*
X125938771Y-66767286D01*
X125986407Y-66757161D01*
X126028633Y-66757161D01*
X126070000Y-66752500D01*
X126111367Y-66757161D01*
G37*
G36*
X128651367Y-66757161D02*
G01*
X128693593Y-66757161D01*
X128741228Y-66767286D01*
X128788017Y-66772558D01*
X128822039Y-66784462D01*
X128857127Y-66791921D01*
X128907695Y-66814435D01*
X128957107Y-66831725D01*
X128982823Y-66847883D01*
X129009860Y-66859921D01*
X129060275Y-66896550D01*
X129108792Y-66927035D01*
X129126214Y-66944457D01*
X129145117Y-66958191D01*
X129191844Y-67010087D01*
X129235465Y-67053708D01*
X129245499Y-67069677D01*
X129256986Y-67082435D01*
X129296285Y-67150503D01*
X129330775Y-67205393D01*
X129335080Y-67217697D01*
X129340580Y-67227223D01*
X129368740Y-67313892D01*
X129389942Y-67374483D01*
X129390746Y-67381618D01*
X129392244Y-67386229D01*
X129405820Y-67515404D01*
X129410000Y-67552500D01*
X129405819Y-67589598D01*
X129392244Y-67718770D01*
X129390746Y-67723379D01*
X129389942Y-67730517D01*
X129368736Y-67791120D01*
X129340580Y-67877776D01*
X129335081Y-67887299D01*
X129330775Y-67899607D01*
X129296278Y-67954507D01*
X129256986Y-68022564D01*
X129245501Y-68035318D01*
X129235465Y-68051292D01*
X129191835Y-68094921D01*
X129145117Y-68146808D01*
X129126218Y-68160538D01*
X129108792Y-68177965D01*
X129060265Y-68208456D01*
X129009860Y-68245078D01*
X128982829Y-68257112D01*
X128957107Y-68273275D01*
X128907685Y-68290568D01*
X128857127Y-68313078D01*
X128822045Y-68320535D01*
X128788017Y-68332442D01*
X128741225Y-68337714D01*
X128693593Y-68347839D01*
X128651367Y-68347839D01*
X128610000Y-68352500D01*
X128568633Y-68347839D01*
X128526407Y-68347839D01*
X128478774Y-68337714D01*
X128431983Y-68332442D01*
X128397955Y-68320535D01*
X128362872Y-68313078D01*
X128312309Y-68290566D01*
X128262893Y-68273275D01*
X128237173Y-68257114D01*
X128210139Y-68245078D01*
X128159726Y-68208451D01*
X128111208Y-68177965D01*
X128093784Y-68160541D01*
X128074882Y-68146808D01*
X128028154Y-68094911D01*
X127984535Y-68051292D01*
X127974500Y-68035322D01*
X127963013Y-68022564D01*
X127923709Y-67954487D01*
X127889225Y-67899607D01*
X127884919Y-67887303D01*
X127879419Y-67877776D01*
X127851249Y-67791080D01*
X127830058Y-67730517D01*
X127829254Y-67723384D01*
X127827755Y-67718770D01*
X127814165Y-67589466D01*
X127810000Y-67552500D01*
X127814164Y-67515536D01*
X127827755Y-67386229D01*
X127829254Y-67381613D01*
X127830058Y-67374483D01*
X127851245Y-67313932D01*
X127879419Y-67227223D01*
X127884920Y-67217693D01*
X127889225Y-67205393D01*
X127923701Y-67150523D01*
X127963013Y-67082435D01*
X127974502Y-67069674D01*
X127984535Y-67053708D01*
X128028145Y-67010097D01*
X128074882Y-66958191D01*
X128093787Y-66944455D01*
X128111208Y-66927035D01*
X128159721Y-66896552D01*
X128210140Y-66859921D01*
X128237176Y-66847883D01*
X128262893Y-66831725D01*
X128312301Y-66814436D01*
X128362872Y-66791921D01*
X128397961Y-66784462D01*
X128431983Y-66772558D01*
X128478771Y-66767286D01*
X128526407Y-66757161D01*
X128568633Y-66757161D01*
X128610000Y-66752500D01*
X128651367Y-66757161D01*
G37*
G36*
X131191367Y-66757161D02*
G01*
X131233593Y-66757161D01*
X131281228Y-66767286D01*
X131328017Y-66772558D01*
X131362039Y-66784462D01*
X131397127Y-66791921D01*
X131447695Y-66814435D01*
X131497107Y-66831725D01*
X131522823Y-66847883D01*
X131549860Y-66859921D01*
X131600275Y-66896550D01*
X131648792Y-66927035D01*
X131666214Y-66944457D01*
X131685117Y-66958191D01*
X131731844Y-67010087D01*
X131775465Y-67053708D01*
X131785499Y-67069677D01*
X131796986Y-67082435D01*
X131836285Y-67150503D01*
X131870775Y-67205393D01*
X131875080Y-67217697D01*
X131880580Y-67227223D01*
X131908740Y-67313892D01*
X131929942Y-67374483D01*
X131930746Y-67381618D01*
X131932244Y-67386229D01*
X131945820Y-67515404D01*
X131950000Y-67552500D01*
X131945819Y-67589598D01*
X131932244Y-67718770D01*
X131930746Y-67723379D01*
X131929942Y-67730517D01*
X131908736Y-67791120D01*
X131880580Y-67877776D01*
X131875081Y-67887299D01*
X131870775Y-67899607D01*
X131836278Y-67954507D01*
X131796986Y-68022564D01*
X131785501Y-68035318D01*
X131775465Y-68051292D01*
X131731835Y-68094921D01*
X131685117Y-68146808D01*
X131666218Y-68160538D01*
X131648792Y-68177965D01*
X131600265Y-68208456D01*
X131549860Y-68245078D01*
X131522829Y-68257112D01*
X131497107Y-68273275D01*
X131447685Y-68290568D01*
X131397127Y-68313078D01*
X131362045Y-68320535D01*
X131328017Y-68332442D01*
X131281225Y-68337714D01*
X131233593Y-68347839D01*
X131191367Y-68347839D01*
X131150000Y-68352500D01*
X131108633Y-68347839D01*
X131066407Y-68347839D01*
X131018774Y-68337714D01*
X130971983Y-68332442D01*
X130937955Y-68320535D01*
X130902872Y-68313078D01*
X130852309Y-68290566D01*
X130802893Y-68273275D01*
X130777173Y-68257114D01*
X130750139Y-68245078D01*
X130699726Y-68208451D01*
X130651208Y-68177965D01*
X130633784Y-68160541D01*
X130614882Y-68146808D01*
X130568154Y-68094911D01*
X130524535Y-68051292D01*
X130514500Y-68035322D01*
X130503013Y-68022564D01*
X130463709Y-67954487D01*
X130429225Y-67899607D01*
X130424919Y-67887303D01*
X130419419Y-67877776D01*
X130391249Y-67791080D01*
X130370058Y-67730517D01*
X130369254Y-67723384D01*
X130367755Y-67718770D01*
X130354165Y-67589466D01*
X130350000Y-67552500D01*
X130354164Y-67515536D01*
X130367755Y-67386229D01*
X130369254Y-67381613D01*
X130370058Y-67374483D01*
X130391245Y-67313932D01*
X130419419Y-67227223D01*
X130424920Y-67217693D01*
X130429225Y-67205393D01*
X130463701Y-67150523D01*
X130503013Y-67082435D01*
X130514502Y-67069674D01*
X130524535Y-67053708D01*
X130568145Y-67010097D01*
X130614882Y-66958191D01*
X130633787Y-66944455D01*
X130651208Y-66927035D01*
X130699721Y-66896552D01*
X130750140Y-66859921D01*
X130777176Y-66847883D01*
X130802893Y-66831725D01*
X130852301Y-66814436D01*
X130902872Y-66791921D01*
X130937961Y-66784462D01*
X130971983Y-66772558D01*
X131018771Y-66767286D01*
X131066407Y-66757161D01*
X131108633Y-66757161D01*
X131150000Y-66752500D01*
X131191367Y-66757161D01*
G37*
G36*
X133731367Y-66757161D02*
G01*
X133773593Y-66757161D01*
X133821228Y-66767286D01*
X133868017Y-66772558D01*
X133902039Y-66784462D01*
X133937127Y-66791921D01*
X133987695Y-66814435D01*
X134037107Y-66831725D01*
X134062823Y-66847883D01*
X134089860Y-66859921D01*
X134140275Y-66896550D01*
X134188792Y-66927035D01*
X134206214Y-66944457D01*
X134225117Y-66958191D01*
X134271844Y-67010087D01*
X134315465Y-67053708D01*
X134325499Y-67069677D01*
X134336986Y-67082435D01*
X134376285Y-67150503D01*
X134410775Y-67205393D01*
X134415080Y-67217697D01*
X134420580Y-67227223D01*
X134448740Y-67313892D01*
X134469942Y-67374483D01*
X134470746Y-67381618D01*
X134472244Y-67386229D01*
X134485820Y-67515404D01*
X134490000Y-67552500D01*
X134485819Y-67589598D01*
X134472244Y-67718770D01*
X134470746Y-67723379D01*
X134469942Y-67730517D01*
X134448736Y-67791120D01*
X134420580Y-67877776D01*
X134415081Y-67887299D01*
X134410775Y-67899607D01*
X134376278Y-67954507D01*
X134336986Y-68022564D01*
X134325501Y-68035318D01*
X134315465Y-68051292D01*
X134271835Y-68094921D01*
X134225117Y-68146808D01*
X134206218Y-68160538D01*
X134188792Y-68177965D01*
X134140265Y-68208456D01*
X134089860Y-68245078D01*
X134062829Y-68257112D01*
X134037107Y-68273275D01*
X133987685Y-68290568D01*
X133937127Y-68313078D01*
X133902045Y-68320535D01*
X133868017Y-68332442D01*
X133821225Y-68337714D01*
X133773593Y-68347839D01*
X133731367Y-68347839D01*
X133690000Y-68352500D01*
X133648633Y-68347839D01*
X133606407Y-68347839D01*
X133558774Y-68337714D01*
X133511983Y-68332442D01*
X133477955Y-68320535D01*
X133442872Y-68313078D01*
X133392309Y-68290566D01*
X133342893Y-68273275D01*
X133317173Y-68257114D01*
X133290139Y-68245078D01*
X133239726Y-68208451D01*
X133191208Y-68177965D01*
X133173784Y-68160541D01*
X133154882Y-68146808D01*
X133108154Y-68094911D01*
X133064535Y-68051292D01*
X133054500Y-68035322D01*
X133043013Y-68022564D01*
X133003709Y-67954487D01*
X132969225Y-67899607D01*
X132964919Y-67887303D01*
X132959419Y-67877776D01*
X132931249Y-67791080D01*
X132910058Y-67730517D01*
X132909254Y-67723384D01*
X132907755Y-67718770D01*
X132894165Y-67589466D01*
X132890000Y-67552500D01*
X132894164Y-67515536D01*
X132907755Y-67386229D01*
X132909254Y-67381613D01*
X132910058Y-67374483D01*
X132931245Y-67313932D01*
X132959419Y-67227223D01*
X132964920Y-67217693D01*
X132969225Y-67205393D01*
X133003701Y-67150523D01*
X133043013Y-67082435D01*
X133054502Y-67069674D01*
X133064535Y-67053708D01*
X133108145Y-67010097D01*
X133154882Y-66958191D01*
X133173787Y-66944455D01*
X133191208Y-66927035D01*
X133239721Y-66896552D01*
X133290140Y-66859921D01*
X133317176Y-66847883D01*
X133342893Y-66831725D01*
X133392301Y-66814436D01*
X133442872Y-66791921D01*
X133477961Y-66784462D01*
X133511983Y-66772558D01*
X133558771Y-66767286D01*
X133606407Y-66757161D01*
X133648633Y-66757161D01*
X133690000Y-66752500D01*
X133731367Y-66757161D01*
G37*
G36*
X136271367Y-66757161D02*
G01*
X136313593Y-66757161D01*
X136361228Y-66767286D01*
X136408017Y-66772558D01*
X136442039Y-66784462D01*
X136477127Y-66791921D01*
X136527695Y-66814435D01*
X136577107Y-66831725D01*
X136602823Y-66847883D01*
X136629860Y-66859921D01*
X136680275Y-66896550D01*
X136728792Y-66927035D01*
X136746214Y-66944457D01*
X136765117Y-66958191D01*
X136811844Y-67010087D01*
X136855465Y-67053708D01*
X136865499Y-67069677D01*
X136876986Y-67082435D01*
X136916285Y-67150503D01*
X136950775Y-67205393D01*
X136955080Y-67217697D01*
X136960580Y-67227223D01*
X136988740Y-67313892D01*
X137009942Y-67374483D01*
X137010746Y-67381618D01*
X137012244Y-67386229D01*
X137025820Y-67515404D01*
X137030000Y-67552500D01*
X137025819Y-67589598D01*
X137012244Y-67718770D01*
X137010746Y-67723379D01*
X137009942Y-67730517D01*
X136988736Y-67791120D01*
X136960580Y-67877776D01*
X136955081Y-67887299D01*
X136950775Y-67899607D01*
X136916278Y-67954507D01*
X136876986Y-68022564D01*
X136865501Y-68035318D01*
X136855465Y-68051292D01*
X136811835Y-68094921D01*
X136765117Y-68146808D01*
X136746218Y-68160538D01*
X136728792Y-68177965D01*
X136680265Y-68208456D01*
X136629860Y-68245078D01*
X136602829Y-68257112D01*
X136577107Y-68273275D01*
X136527685Y-68290568D01*
X136477127Y-68313078D01*
X136442045Y-68320535D01*
X136408017Y-68332442D01*
X136361225Y-68337714D01*
X136313593Y-68347839D01*
X136271367Y-68347839D01*
X136230000Y-68352500D01*
X136188633Y-68347839D01*
X136146407Y-68347839D01*
X136098774Y-68337714D01*
X136051983Y-68332442D01*
X136017955Y-68320535D01*
X135982872Y-68313078D01*
X135932309Y-68290566D01*
X135882893Y-68273275D01*
X135857173Y-68257114D01*
X135830139Y-68245078D01*
X135779726Y-68208451D01*
X135731208Y-68177965D01*
X135713784Y-68160541D01*
X135694882Y-68146808D01*
X135648154Y-68094911D01*
X135604535Y-68051292D01*
X135594500Y-68035322D01*
X135583013Y-68022564D01*
X135543709Y-67954487D01*
X135509225Y-67899607D01*
X135504919Y-67887303D01*
X135499419Y-67877776D01*
X135471249Y-67791080D01*
X135450058Y-67730517D01*
X135449254Y-67723384D01*
X135447755Y-67718770D01*
X135434165Y-67589466D01*
X135430000Y-67552500D01*
X135434164Y-67515536D01*
X135447755Y-67386229D01*
X135449254Y-67381613D01*
X135450058Y-67374483D01*
X135471245Y-67313932D01*
X135499419Y-67227223D01*
X135504920Y-67217693D01*
X135509225Y-67205393D01*
X135543701Y-67150523D01*
X135583013Y-67082435D01*
X135594502Y-67069674D01*
X135604535Y-67053708D01*
X135648145Y-67010097D01*
X135694882Y-66958191D01*
X135713787Y-66944455D01*
X135731208Y-66927035D01*
X135779721Y-66896552D01*
X135830140Y-66859921D01*
X135857176Y-66847883D01*
X135882893Y-66831725D01*
X135932301Y-66814436D01*
X135982872Y-66791921D01*
X136017961Y-66784462D01*
X136051983Y-66772558D01*
X136098771Y-66767286D01*
X136146407Y-66757161D01*
X136188633Y-66757161D01*
X136230000Y-66752500D01*
X136271367Y-66757161D01*
G37*
G36*
X138811367Y-66757161D02*
G01*
X138853593Y-66757161D01*
X138901228Y-66767286D01*
X138948017Y-66772558D01*
X138982039Y-66784462D01*
X139017127Y-66791921D01*
X139067695Y-66814435D01*
X139117107Y-66831725D01*
X139142823Y-66847883D01*
X139169860Y-66859921D01*
X139220275Y-66896550D01*
X139268792Y-66927035D01*
X139286214Y-66944457D01*
X139305117Y-66958191D01*
X139351844Y-67010087D01*
X139395465Y-67053708D01*
X139405499Y-67069677D01*
X139416986Y-67082435D01*
X139456285Y-67150503D01*
X139490775Y-67205393D01*
X139495080Y-67217697D01*
X139500580Y-67227223D01*
X139528740Y-67313892D01*
X139549942Y-67374483D01*
X139550746Y-67381618D01*
X139552244Y-67386229D01*
X139565820Y-67515404D01*
X139570000Y-67552500D01*
X139565819Y-67589598D01*
X139552244Y-67718770D01*
X139550746Y-67723379D01*
X139549942Y-67730517D01*
X139528736Y-67791120D01*
X139500580Y-67877776D01*
X139495081Y-67887299D01*
X139490775Y-67899607D01*
X139456278Y-67954507D01*
X139416986Y-68022564D01*
X139405501Y-68035318D01*
X139395465Y-68051292D01*
X139351835Y-68094921D01*
X139305117Y-68146808D01*
X139286218Y-68160538D01*
X139268792Y-68177965D01*
X139220265Y-68208456D01*
X139169860Y-68245078D01*
X139142829Y-68257112D01*
X139117107Y-68273275D01*
X139067685Y-68290568D01*
X139017127Y-68313078D01*
X138982045Y-68320535D01*
X138948017Y-68332442D01*
X138901225Y-68337714D01*
X138853593Y-68347839D01*
X138811367Y-68347839D01*
X138770000Y-68352500D01*
X138728633Y-68347839D01*
X138686407Y-68347839D01*
X138638774Y-68337714D01*
X138591983Y-68332442D01*
X138557955Y-68320535D01*
X138522872Y-68313078D01*
X138472309Y-68290566D01*
X138422893Y-68273275D01*
X138397173Y-68257114D01*
X138370139Y-68245078D01*
X138319726Y-68208451D01*
X138271208Y-68177965D01*
X138253784Y-68160541D01*
X138234882Y-68146808D01*
X138188154Y-68094911D01*
X138144535Y-68051292D01*
X138134500Y-68035322D01*
X138123013Y-68022564D01*
X138083709Y-67954487D01*
X138049225Y-67899607D01*
X138044919Y-67887303D01*
X138039419Y-67877776D01*
X138011249Y-67791080D01*
X137990058Y-67730517D01*
X137989254Y-67723384D01*
X137987755Y-67718770D01*
X137974165Y-67589466D01*
X137970000Y-67552500D01*
X137974164Y-67515536D01*
X137987755Y-67386229D01*
X137989254Y-67381613D01*
X137990058Y-67374483D01*
X138011245Y-67313932D01*
X138039419Y-67227223D01*
X138044920Y-67217693D01*
X138049225Y-67205393D01*
X138083701Y-67150523D01*
X138123013Y-67082435D01*
X138134502Y-67069674D01*
X138144535Y-67053708D01*
X138188145Y-67010097D01*
X138234882Y-66958191D01*
X138253787Y-66944455D01*
X138271208Y-66927035D01*
X138319721Y-66896552D01*
X138370140Y-66859921D01*
X138397176Y-66847883D01*
X138422893Y-66831725D01*
X138472301Y-66814436D01*
X138522872Y-66791921D01*
X138557961Y-66784462D01*
X138591983Y-66772558D01*
X138638771Y-66767286D01*
X138686407Y-66757161D01*
X138728633Y-66757161D01*
X138770000Y-66752500D01*
X138811367Y-66757161D01*
G37*
G36*
X141351367Y-66757161D02*
G01*
X141393593Y-66757161D01*
X141441228Y-66767286D01*
X141488017Y-66772558D01*
X141522039Y-66784462D01*
X141557127Y-66791921D01*
X141607695Y-66814435D01*
X141657107Y-66831725D01*
X141682823Y-66847883D01*
X141709860Y-66859921D01*
X141760275Y-66896550D01*
X141808792Y-66927035D01*
X141826214Y-66944457D01*
X141845117Y-66958191D01*
X141891844Y-67010087D01*
X141935465Y-67053708D01*
X141945499Y-67069677D01*
X141956986Y-67082435D01*
X141996285Y-67150503D01*
X142030775Y-67205393D01*
X142035080Y-67217697D01*
X142040580Y-67227223D01*
X142068740Y-67313892D01*
X142089942Y-67374483D01*
X142090746Y-67381618D01*
X142092244Y-67386229D01*
X142105820Y-67515404D01*
X142110000Y-67552500D01*
X142105819Y-67589598D01*
X142092244Y-67718770D01*
X142090746Y-67723379D01*
X142089942Y-67730517D01*
X142068736Y-67791120D01*
X142040580Y-67877776D01*
X142035081Y-67887299D01*
X142030775Y-67899607D01*
X141996278Y-67954507D01*
X141956986Y-68022564D01*
X141945501Y-68035318D01*
X141935465Y-68051292D01*
X141891835Y-68094921D01*
X141845117Y-68146808D01*
X141826218Y-68160538D01*
X141808792Y-68177965D01*
X141760265Y-68208456D01*
X141709860Y-68245078D01*
X141682829Y-68257112D01*
X141657107Y-68273275D01*
X141607685Y-68290568D01*
X141557127Y-68313078D01*
X141522045Y-68320535D01*
X141488017Y-68332442D01*
X141441225Y-68337714D01*
X141393593Y-68347839D01*
X141351367Y-68347839D01*
X141310000Y-68352500D01*
X141268633Y-68347839D01*
X141226407Y-68347839D01*
X141178774Y-68337714D01*
X141131983Y-68332442D01*
X141097955Y-68320535D01*
X141062872Y-68313078D01*
X141012309Y-68290566D01*
X140962893Y-68273275D01*
X140937173Y-68257114D01*
X140910139Y-68245078D01*
X140859726Y-68208451D01*
X140811208Y-68177965D01*
X140793784Y-68160541D01*
X140774882Y-68146808D01*
X140728154Y-68094911D01*
X140684535Y-68051292D01*
X140674500Y-68035322D01*
X140663013Y-68022564D01*
X140623709Y-67954487D01*
X140589225Y-67899607D01*
X140584919Y-67887303D01*
X140579419Y-67877776D01*
X140551249Y-67791080D01*
X140530058Y-67730517D01*
X140529254Y-67723384D01*
X140527755Y-67718770D01*
X140514165Y-67589466D01*
X140510000Y-67552500D01*
X140514164Y-67515536D01*
X140527755Y-67386229D01*
X140529254Y-67381613D01*
X140530058Y-67374483D01*
X140551245Y-67313932D01*
X140579419Y-67227223D01*
X140584920Y-67217693D01*
X140589225Y-67205393D01*
X140623701Y-67150523D01*
X140663013Y-67082435D01*
X140674502Y-67069674D01*
X140684535Y-67053708D01*
X140728145Y-67010097D01*
X140774882Y-66958191D01*
X140793787Y-66944455D01*
X140811208Y-66927035D01*
X140859721Y-66896552D01*
X140910140Y-66859921D01*
X140937176Y-66847883D01*
X140962893Y-66831725D01*
X141012301Y-66814436D01*
X141062872Y-66791921D01*
X141097961Y-66784462D01*
X141131983Y-66772558D01*
X141178771Y-66767286D01*
X141226407Y-66757161D01*
X141268633Y-66757161D01*
X141310000Y-66752500D01*
X141351367Y-66757161D01*
G37*
G36*
X143891367Y-66757161D02*
G01*
X143933593Y-66757161D01*
X143981228Y-66767286D01*
X144028017Y-66772558D01*
X144062039Y-66784462D01*
X144097127Y-66791921D01*
X144147695Y-66814435D01*
X144197107Y-66831725D01*
X144222823Y-66847883D01*
X144249860Y-66859921D01*
X144300275Y-66896550D01*
X144348792Y-66927035D01*
X144366214Y-66944457D01*
X144385117Y-66958191D01*
X144431844Y-67010087D01*
X144475465Y-67053708D01*
X144485499Y-67069677D01*
X144496986Y-67082435D01*
X144536285Y-67150503D01*
X144570775Y-67205393D01*
X144575080Y-67217697D01*
X144580580Y-67227223D01*
X144608740Y-67313892D01*
X144629942Y-67374483D01*
X144630746Y-67381618D01*
X144632244Y-67386229D01*
X144645820Y-67515404D01*
X144650000Y-67552500D01*
X144645819Y-67589598D01*
X144632244Y-67718770D01*
X144630746Y-67723379D01*
X144629942Y-67730517D01*
X144608736Y-67791120D01*
X144580580Y-67877776D01*
X144575081Y-67887299D01*
X144570775Y-67899607D01*
X144536278Y-67954507D01*
X144496986Y-68022564D01*
X144485501Y-68035318D01*
X144475465Y-68051292D01*
X144431835Y-68094921D01*
X144385117Y-68146808D01*
X144366218Y-68160538D01*
X144348792Y-68177965D01*
X144300265Y-68208456D01*
X144249860Y-68245078D01*
X144222829Y-68257112D01*
X144197107Y-68273275D01*
X144147685Y-68290568D01*
X144097127Y-68313078D01*
X144062045Y-68320535D01*
X144028017Y-68332442D01*
X143981225Y-68337714D01*
X143933593Y-68347839D01*
X143891367Y-68347839D01*
X143850000Y-68352500D01*
X143808633Y-68347839D01*
X143766407Y-68347839D01*
X143718774Y-68337714D01*
X143671983Y-68332442D01*
X143637955Y-68320535D01*
X143602872Y-68313078D01*
X143552309Y-68290566D01*
X143502893Y-68273275D01*
X143477173Y-68257114D01*
X143450139Y-68245078D01*
X143399726Y-68208451D01*
X143351208Y-68177965D01*
X143333784Y-68160541D01*
X143314882Y-68146808D01*
X143268154Y-68094911D01*
X143224535Y-68051292D01*
X143214500Y-68035322D01*
X143203013Y-68022564D01*
X143163709Y-67954487D01*
X143129225Y-67899607D01*
X143124919Y-67887303D01*
X143119419Y-67877776D01*
X143091249Y-67791080D01*
X143070058Y-67730517D01*
X143069254Y-67723384D01*
X143067755Y-67718770D01*
X143054165Y-67589466D01*
X143050000Y-67552500D01*
X143054164Y-67515536D01*
X143067755Y-67386229D01*
X143069254Y-67381613D01*
X143070058Y-67374483D01*
X143091245Y-67313932D01*
X143119419Y-67227223D01*
X143124920Y-67217693D01*
X143129225Y-67205393D01*
X143163701Y-67150523D01*
X143203013Y-67082435D01*
X143214502Y-67069674D01*
X143224535Y-67053708D01*
X143268145Y-67010097D01*
X143314882Y-66958191D01*
X143333787Y-66944455D01*
X143351208Y-66927035D01*
X143399721Y-66896552D01*
X143450140Y-66859921D01*
X143477176Y-66847883D01*
X143502893Y-66831725D01*
X143552301Y-66814436D01*
X143602872Y-66791921D01*
X143637961Y-66784462D01*
X143671983Y-66772558D01*
X143718771Y-66767286D01*
X143766407Y-66757161D01*
X143808633Y-66757161D01*
X143850000Y-66752500D01*
X143891367Y-66757161D01*
G37*
G36*
X146431367Y-66757161D02*
G01*
X146473593Y-66757161D01*
X146521228Y-66767286D01*
X146568017Y-66772558D01*
X146602039Y-66784462D01*
X146637127Y-66791921D01*
X146687695Y-66814435D01*
X146737107Y-66831725D01*
X146762823Y-66847883D01*
X146789860Y-66859921D01*
X146840275Y-66896550D01*
X146888792Y-66927035D01*
X146906214Y-66944457D01*
X146925117Y-66958191D01*
X146971844Y-67010087D01*
X147015465Y-67053708D01*
X147025499Y-67069677D01*
X147036986Y-67082435D01*
X147076285Y-67150503D01*
X147110775Y-67205393D01*
X147115080Y-67217697D01*
X147120580Y-67227223D01*
X147148740Y-67313892D01*
X147169942Y-67374483D01*
X147170746Y-67381618D01*
X147172244Y-67386229D01*
X147185820Y-67515404D01*
X147190000Y-67552500D01*
X147185819Y-67589598D01*
X147172244Y-67718770D01*
X147170746Y-67723379D01*
X147169942Y-67730517D01*
X147148736Y-67791120D01*
X147120580Y-67877776D01*
X147115081Y-67887299D01*
X147110775Y-67899607D01*
X147076278Y-67954507D01*
X147036986Y-68022564D01*
X147025501Y-68035318D01*
X147015465Y-68051292D01*
X146971835Y-68094921D01*
X146925117Y-68146808D01*
X146906218Y-68160538D01*
X146888792Y-68177965D01*
X146840265Y-68208456D01*
X146789860Y-68245078D01*
X146762829Y-68257112D01*
X146737107Y-68273275D01*
X146687685Y-68290568D01*
X146637127Y-68313078D01*
X146602045Y-68320535D01*
X146568017Y-68332442D01*
X146521225Y-68337714D01*
X146473593Y-68347839D01*
X146431367Y-68347839D01*
X146390000Y-68352500D01*
X146348633Y-68347839D01*
X146306407Y-68347839D01*
X146258774Y-68337714D01*
X146211983Y-68332442D01*
X146177955Y-68320535D01*
X146142872Y-68313078D01*
X146092309Y-68290566D01*
X146042893Y-68273275D01*
X146017173Y-68257114D01*
X145990139Y-68245078D01*
X145939726Y-68208451D01*
X145891208Y-68177965D01*
X145873784Y-68160541D01*
X145854882Y-68146808D01*
X145808154Y-68094911D01*
X145764535Y-68051292D01*
X145754500Y-68035322D01*
X145743013Y-68022564D01*
X145703709Y-67954487D01*
X145669225Y-67899607D01*
X145664919Y-67887303D01*
X145659419Y-67877776D01*
X145631249Y-67791080D01*
X145610058Y-67730517D01*
X145609254Y-67723384D01*
X145607755Y-67718770D01*
X145594165Y-67589466D01*
X145590000Y-67552500D01*
X145594164Y-67515536D01*
X145607755Y-67386229D01*
X145609254Y-67381613D01*
X145610058Y-67374483D01*
X145631245Y-67313932D01*
X145659419Y-67227223D01*
X145664920Y-67217693D01*
X145669225Y-67205393D01*
X145703701Y-67150523D01*
X145743013Y-67082435D01*
X145754502Y-67069674D01*
X145764535Y-67053708D01*
X145808145Y-67010097D01*
X145854882Y-66958191D01*
X145873787Y-66944455D01*
X145891208Y-66927035D01*
X145939721Y-66896552D01*
X145990140Y-66859921D01*
X146017176Y-66847883D01*
X146042893Y-66831725D01*
X146092301Y-66814436D01*
X146142872Y-66791921D01*
X146177961Y-66784462D01*
X146211983Y-66772558D01*
X146258771Y-66767286D01*
X146306407Y-66757161D01*
X146348633Y-66757161D01*
X146390000Y-66752500D01*
X146431367Y-66757161D01*
G37*
G36*
X148971367Y-66757161D02*
G01*
X149013593Y-66757161D01*
X149061228Y-66767286D01*
X149108017Y-66772558D01*
X149142039Y-66784462D01*
X149177127Y-66791921D01*
X149227695Y-66814435D01*
X149277107Y-66831725D01*
X149302823Y-66847883D01*
X149329860Y-66859921D01*
X149380275Y-66896550D01*
X149428792Y-66927035D01*
X149446214Y-66944457D01*
X149465117Y-66958191D01*
X149511844Y-67010087D01*
X149555465Y-67053708D01*
X149565499Y-67069677D01*
X149576986Y-67082435D01*
X149616285Y-67150503D01*
X149650775Y-67205393D01*
X149655080Y-67217697D01*
X149660580Y-67227223D01*
X149688740Y-67313892D01*
X149709942Y-67374483D01*
X149710746Y-67381618D01*
X149712244Y-67386229D01*
X149725820Y-67515404D01*
X149730000Y-67552500D01*
X149725819Y-67589598D01*
X149712244Y-67718770D01*
X149710746Y-67723379D01*
X149709942Y-67730517D01*
X149688736Y-67791120D01*
X149660580Y-67877776D01*
X149655081Y-67887299D01*
X149650775Y-67899607D01*
X149616278Y-67954507D01*
X149576986Y-68022564D01*
X149565501Y-68035318D01*
X149555465Y-68051292D01*
X149511835Y-68094921D01*
X149465117Y-68146808D01*
X149446218Y-68160538D01*
X149428792Y-68177965D01*
X149380265Y-68208456D01*
X149329860Y-68245078D01*
X149302829Y-68257112D01*
X149277107Y-68273275D01*
X149227685Y-68290568D01*
X149177127Y-68313078D01*
X149142045Y-68320535D01*
X149108017Y-68332442D01*
X149061225Y-68337714D01*
X149013593Y-68347839D01*
X148971367Y-68347839D01*
X148930000Y-68352500D01*
X148888633Y-68347839D01*
X148846407Y-68347839D01*
X148798774Y-68337714D01*
X148751983Y-68332442D01*
X148717955Y-68320535D01*
X148682872Y-68313078D01*
X148632309Y-68290566D01*
X148582893Y-68273275D01*
X148557173Y-68257114D01*
X148530139Y-68245078D01*
X148479726Y-68208451D01*
X148431208Y-68177965D01*
X148413784Y-68160541D01*
X148394882Y-68146808D01*
X148348154Y-68094911D01*
X148304535Y-68051292D01*
X148294500Y-68035322D01*
X148283013Y-68022564D01*
X148243709Y-67954487D01*
X148209225Y-67899607D01*
X148204919Y-67887303D01*
X148199419Y-67877776D01*
X148171249Y-67791080D01*
X148150058Y-67730517D01*
X148149254Y-67723384D01*
X148147755Y-67718770D01*
X148134165Y-67589466D01*
X148130000Y-67552500D01*
X148134164Y-67515536D01*
X148147755Y-67386229D01*
X148149254Y-67381613D01*
X148150058Y-67374483D01*
X148171245Y-67313932D01*
X148199419Y-67227223D01*
X148204920Y-67217693D01*
X148209225Y-67205393D01*
X148243701Y-67150523D01*
X148283013Y-67082435D01*
X148294502Y-67069674D01*
X148304535Y-67053708D01*
X148348145Y-67010097D01*
X148394882Y-66958191D01*
X148413787Y-66944455D01*
X148431208Y-66927035D01*
X148479721Y-66896552D01*
X148530140Y-66859921D01*
X148557176Y-66847883D01*
X148582893Y-66831725D01*
X148632301Y-66814436D01*
X148682872Y-66791921D01*
X148717961Y-66784462D01*
X148751983Y-66772558D01*
X148798771Y-66767286D01*
X148846407Y-66757161D01*
X148888633Y-66757161D01*
X148930000Y-66752500D01*
X148971367Y-66757161D01*
G37*
G36*
X151511367Y-66757161D02*
G01*
X151553593Y-66757161D01*
X151601228Y-66767286D01*
X151648017Y-66772558D01*
X151682039Y-66784462D01*
X151717127Y-66791921D01*
X151767695Y-66814435D01*
X151817107Y-66831725D01*
X151842823Y-66847883D01*
X151869860Y-66859921D01*
X151920275Y-66896550D01*
X151968792Y-66927035D01*
X151986214Y-66944457D01*
X152005117Y-66958191D01*
X152051844Y-67010087D01*
X152095465Y-67053708D01*
X152105499Y-67069677D01*
X152116986Y-67082435D01*
X152156285Y-67150503D01*
X152190775Y-67205393D01*
X152195080Y-67217697D01*
X152200580Y-67227223D01*
X152228740Y-67313892D01*
X152249942Y-67374483D01*
X152250746Y-67381618D01*
X152252244Y-67386229D01*
X152265820Y-67515404D01*
X152270000Y-67552500D01*
X152265819Y-67589598D01*
X152252244Y-67718770D01*
X152250746Y-67723379D01*
X152249942Y-67730517D01*
X152228736Y-67791120D01*
X152200580Y-67877776D01*
X152195081Y-67887299D01*
X152190775Y-67899607D01*
X152156278Y-67954507D01*
X152116986Y-68022564D01*
X152105501Y-68035318D01*
X152095465Y-68051292D01*
X152051835Y-68094921D01*
X152005117Y-68146808D01*
X151986218Y-68160538D01*
X151968792Y-68177965D01*
X151920265Y-68208456D01*
X151869860Y-68245078D01*
X151842829Y-68257112D01*
X151817107Y-68273275D01*
X151767685Y-68290568D01*
X151717127Y-68313078D01*
X151682045Y-68320535D01*
X151648017Y-68332442D01*
X151601225Y-68337714D01*
X151553593Y-68347839D01*
X151511367Y-68347839D01*
X151470000Y-68352500D01*
X151428633Y-68347839D01*
X151386407Y-68347839D01*
X151338774Y-68337714D01*
X151291983Y-68332442D01*
X151257955Y-68320535D01*
X151222872Y-68313078D01*
X151172309Y-68290566D01*
X151122893Y-68273275D01*
X151097173Y-68257114D01*
X151070139Y-68245078D01*
X151019726Y-68208451D01*
X150971208Y-68177965D01*
X150953784Y-68160541D01*
X150934882Y-68146808D01*
X150888154Y-68094911D01*
X150844535Y-68051292D01*
X150834500Y-68035322D01*
X150823013Y-68022564D01*
X150783709Y-67954487D01*
X150749225Y-67899607D01*
X150744919Y-67887303D01*
X150739419Y-67877776D01*
X150711249Y-67791080D01*
X150690058Y-67730517D01*
X150689254Y-67723384D01*
X150687755Y-67718770D01*
X150674165Y-67589466D01*
X150670000Y-67552500D01*
X150674164Y-67515536D01*
X150687755Y-67386229D01*
X150689254Y-67381613D01*
X150690058Y-67374483D01*
X150711245Y-67313932D01*
X150739419Y-67227223D01*
X150744920Y-67217693D01*
X150749225Y-67205393D01*
X150783701Y-67150523D01*
X150823013Y-67082435D01*
X150834502Y-67069674D01*
X150844535Y-67053708D01*
X150888145Y-67010097D01*
X150934882Y-66958191D01*
X150953787Y-66944455D01*
X150971208Y-66927035D01*
X151019721Y-66896552D01*
X151070140Y-66859921D01*
X151097176Y-66847883D01*
X151122893Y-66831725D01*
X151172301Y-66814436D01*
X151222872Y-66791921D01*
X151257961Y-66784462D01*
X151291983Y-66772558D01*
X151338771Y-66767286D01*
X151386407Y-66757161D01*
X151428633Y-66757161D01*
X151470000Y-66752500D01*
X151511367Y-66757161D01*
G37*
G36*
X154051367Y-66757161D02*
G01*
X154093593Y-66757161D01*
X154141228Y-66767286D01*
X154188017Y-66772558D01*
X154222039Y-66784462D01*
X154257127Y-66791921D01*
X154307695Y-66814435D01*
X154357107Y-66831725D01*
X154382823Y-66847883D01*
X154409860Y-66859921D01*
X154460275Y-66896550D01*
X154508792Y-66927035D01*
X154526214Y-66944457D01*
X154545117Y-66958191D01*
X154591844Y-67010087D01*
X154635465Y-67053708D01*
X154645499Y-67069677D01*
X154656986Y-67082435D01*
X154696285Y-67150503D01*
X154730775Y-67205393D01*
X154735080Y-67217697D01*
X154740580Y-67227223D01*
X154768740Y-67313892D01*
X154789942Y-67374483D01*
X154790746Y-67381618D01*
X154792244Y-67386229D01*
X154805820Y-67515404D01*
X154810000Y-67552500D01*
X154805819Y-67589598D01*
X154792244Y-67718770D01*
X154790746Y-67723379D01*
X154789942Y-67730517D01*
X154768736Y-67791120D01*
X154740580Y-67877776D01*
X154735081Y-67887299D01*
X154730775Y-67899607D01*
X154696278Y-67954507D01*
X154656986Y-68022564D01*
X154645501Y-68035318D01*
X154635465Y-68051292D01*
X154591835Y-68094921D01*
X154545117Y-68146808D01*
X154526218Y-68160538D01*
X154508792Y-68177965D01*
X154460265Y-68208456D01*
X154409860Y-68245078D01*
X154382829Y-68257112D01*
X154357107Y-68273275D01*
X154307685Y-68290568D01*
X154257127Y-68313078D01*
X154222045Y-68320535D01*
X154188017Y-68332442D01*
X154141225Y-68337714D01*
X154093593Y-68347839D01*
X154051367Y-68347839D01*
X154010000Y-68352500D01*
X153968633Y-68347839D01*
X153926407Y-68347839D01*
X153878774Y-68337714D01*
X153831983Y-68332442D01*
X153797955Y-68320535D01*
X153762872Y-68313078D01*
X153712309Y-68290566D01*
X153662893Y-68273275D01*
X153637173Y-68257114D01*
X153610139Y-68245078D01*
X153559726Y-68208451D01*
X153511208Y-68177965D01*
X153493784Y-68160541D01*
X153474882Y-68146808D01*
X153428154Y-68094911D01*
X153384535Y-68051292D01*
X153374500Y-68035322D01*
X153363013Y-68022564D01*
X153323709Y-67954487D01*
X153289225Y-67899607D01*
X153284919Y-67887303D01*
X153279419Y-67877776D01*
X153251249Y-67791080D01*
X153230058Y-67730517D01*
X153229254Y-67723384D01*
X153227755Y-67718770D01*
X153214165Y-67589466D01*
X153210000Y-67552500D01*
X153214164Y-67515536D01*
X153227755Y-67386229D01*
X153229254Y-67381613D01*
X153230058Y-67374483D01*
X153251245Y-67313932D01*
X153279419Y-67227223D01*
X153284920Y-67217693D01*
X153289225Y-67205393D01*
X153323701Y-67150523D01*
X153363013Y-67082435D01*
X153374502Y-67069674D01*
X153384535Y-67053708D01*
X153428145Y-67010097D01*
X153474882Y-66958191D01*
X153493787Y-66944455D01*
X153511208Y-66927035D01*
X153559721Y-66896552D01*
X153610140Y-66859921D01*
X153637176Y-66847883D01*
X153662893Y-66831725D01*
X153712301Y-66814436D01*
X153762872Y-66791921D01*
X153797961Y-66784462D01*
X153831983Y-66772558D01*
X153878771Y-66767286D01*
X153926407Y-66757161D01*
X153968633Y-66757161D01*
X154010000Y-66752500D01*
X154051367Y-66757161D01*
G37*
G36*
X156591367Y-66757161D02*
G01*
X156633593Y-66757161D01*
X156681228Y-66767286D01*
X156728017Y-66772558D01*
X156762039Y-66784462D01*
X156797127Y-66791921D01*
X156847695Y-66814435D01*
X156897107Y-66831725D01*
X156922823Y-66847883D01*
X156949860Y-66859921D01*
X157000275Y-66896550D01*
X157048792Y-66927035D01*
X157066214Y-66944457D01*
X157085117Y-66958191D01*
X157131844Y-67010087D01*
X157175465Y-67053708D01*
X157185499Y-67069677D01*
X157196986Y-67082435D01*
X157236285Y-67150503D01*
X157270775Y-67205393D01*
X157275080Y-67217697D01*
X157280580Y-67227223D01*
X157308740Y-67313892D01*
X157329942Y-67374483D01*
X157330746Y-67381618D01*
X157332244Y-67386229D01*
X157345820Y-67515404D01*
X157350000Y-67552500D01*
X157345819Y-67589598D01*
X157332244Y-67718770D01*
X157330746Y-67723379D01*
X157329942Y-67730517D01*
X157308736Y-67791120D01*
X157280580Y-67877776D01*
X157275081Y-67887299D01*
X157270775Y-67899607D01*
X157236278Y-67954507D01*
X157196986Y-68022564D01*
X157185501Y-68035318D01*
X157175465Y-68051292D01*
X157131835Y-68094921D01*
X157085117Y-68146808D01*
X157066218Y-68160538D01*
X157048792Y-68177965D01*
X157000265Y-68208456D01*
X156949860Y-68245078D01*
X156922829Y-68257112D01*
X156897107Y-68273275D01*
X156847685Y-68290568D01*
X156797127Y-68313078D01*
X156762045Y-68320535D01*
X156728017Y-68332442D01*
X156681225Y-68337714D01*
X156633593Y-68347839D01*
X156591367Y-68347839D01*
X156550000Y-68352500D01*
X156508633Y-68347839D01*
X156466407Y-68347839D01*
X156418774Y-68337714D01*
X156371983Y-68332442D01*
X156337955Y-68320535D01*
X156302872Y-68313078D01*
X156252309Y-68290566D01*
X156202893Y-68273275D01*
X156177173Y-68257114D01*
X156150139Y-68245078D01*
X156099726Y-68208451D01*
X156051208Y-68177965D01*
X156033784Y-68160541D01*
X156014882Y-68146808D01*
X155968154Y-68094911D01*
X155924535Y-68051292D01*
X155914500Y-68035322D01*
X155903013Y-68022564D01*
X155863709Y-67954487D01*
X155829225Y-67899607D01*
X155824919Y-67887303D01*
X155819419Y-67877776D01*
X155791249Y-67791080D01*
X155770058Y-67730517D01*
X155769254Y-67723384D01*
X155767755Y-67718770D01*
X155754165Y-67589466D01*
X155750000Y-67552500D01*
X155754164Y-67515536D01*
X155767755Y-67386229D01*
X155769254Y-67381613D01*
X155770058Y-67374483D01*
X155791245Y-67313932D01*
X155819419Y-67227223D01*
X155824920Y-67217693D01*
X155829225Y-67205393D01*
X155863701Y-67150523D01*
X155903013Y-67082435D01*
X155914502Y-67069674D01*
X155924535Y-67053708D01*
X155968145Y-67010097D01*
X156014882Y-66958191D01*
X156033787Y-66944455D01*
X156051208Y-66927035D01*
X156099721Y-66896552D01*
X156150140Y-66859921D01*
X156177176Y-66847883D01*
X156202893Y-66831725D01*
X156252301Y-66814436D01*
X156302872Y-66791921D01*
X156337961Y-66784462D01*
X156371983Y-66772558D01*
X156418771Y-66767286D01*
X156466407Y-66757161D01*
X156508633Y-66757161D01*
X156550000Y-66752500D01*
X156591367Y-66757161D01*
G37*
G36*
X178389000Y-66999000D02*
G01*
X176611000Y-66999000D01*
X176611000Y-65221000D01*
X178389000Y-65221000D01*
X178389000Y-66999000D01*
G37*
G36*
X99293684Y-58769249D02*
G01*
X99582343Y-58826667D01*
X99861038Y-58921271D01*
X100125000Y-59051443D01*
X100369713Y-59214955D01*
X100590990Y-59409010D01*
X100785045Y-59630287D01*
X100948557Y-59875000D01*
X101078729Y-60138962D01*
X101173333Y-60417657D01*
X101230751Y-60706316D01*
X101250000Y-61000000D01*
X101230751Y-61293684D01*
X101173333Y-61582343D01*
X101078729Y-61861038D01*
X100948557Y-62125000D01*
X100785045Y-62369713D01*
X100590990Y-62590990D01*
X100369713Y-62785045D01*
X100125000Y-62948557D01*
X99861038Y-63078729D01*
X99582343Y-63173333D01*
X99293684Y-63230751D01*
X99000000Y-63250000D01*
X98706316Y-63230751D01*
X98417657Y-63173333D01*
X98138962Y-63078729D01*
X97875000Y-62948557D01*
X97630287Y-62785045D01*
X97409010Y-62590990D01*
X97214955Y-62369713D01*
X97051443Y-62125000D01*
X96921271Y-61861038D01*
X96826667Y-61582343D01*
X96769249Y-61293684D01*
X96750000Y-61000000D01*
X96769249Y-60706316D01*
X96826667Y-60417657D01*
X96921271Y-60138962D01*
X97051443Y-59875000D01*
X97214955Y-59630287D01*
X97409010Y-59409010D01*
X97630287Y-59214955D01*
X97875000Y-59051443D01*
X98138962Y-58921271D01*
X98417657Y-58826667D01*
X98706316Y-58769249D01*
X99000000Y-58750000D01*
X99293684Y-58769249D01*
G37*
G36*
X176293684Y-58769249D02*
G01*
X176582343Y-58826667D01*
X176861038Y-58921271D01*
X177125000Y-59051443D01*
X177369713Y-59214955D01*
X177590990Y-59409010D01*
X177785045Y-59630287D01*
X177948557Y-59875000D01*
X178078729Y-60138962D01*
X178173333Y-60417657D01*
X178230751Y-60706316D01*
X178250000Y-61000000D01*
X178230751Y-61293684D01*
X178173333Y-61582343D01*
X178078729Y-61861038D01*
X177948557Y-62125000D01*
X177785045Y-62369713D01*
X177590990Y-62590990D01*
X177369713Y-62785045D01*
X177125000Y-62948557D01*
X176861038Y-63078729D01*
X176582343Y-63173333D01*
X176293684Y-63230751D01*
X176000000Y-63250000D01*
X175706316Y-63230751D01*
X175417657Y-63173333D01*
X175138962Y-63078729D01*
X174875000Y-62948557D01*
X174630287Y-62785045D01*
X174409010Y-62590990D01*
X174214955Y-62369713D01*
X174051443Y-62125000D01*
X173921271Y-61861038D01*
X173826667Y-61582343D01*
X173769249Y-61293684D01*
X173750000Y-61000000D01*
X173769249Y-60706316D01*
X173826667Y-60417657D01*
X173921271Y-60138962D01*
X174051443Y-59875000D01*
X174214955Y-59630287D01*
X174409010Y-59409010D01*
X174630287Y-59214955D01*
X174875000Y-59051443D01*
X175138962Y-58921271D01*
X175417657Y-58826667D01*
X175706316Y-58769249D01*
X176000000Y-58750000D01*
X176293684Y-58769249D01*
G37*
G36*
X128651367Y-46437161D02*
G01*
X128693593Y-46437161D01*
X128741228Y-46447286D01*
X128788017Y-46452558D01*
X128822039Y-46464462D01*
X128857127Y-46471921D01*
X128907695Y-46494435D01*
X128957107Y-46511725D01*
X128982823Y-46527883D01*
X129009860Y-46539921D01*
X129060275Y-46576550D01*
X129108792Y-46607035D01*
X129126214Y-46624457D01*
X129145117Y-46638191D01*
X129191844Y-46690087D01*
X129235465Y-46733708D01*
X129245499Y-46749677D01*
X129256986Y-46762435D01*
X129296285Y-46830503D01*
X129330775Y-46885393D01*
X129335080Y-46897697D01*
X129340580Y-46907223D01*
X129368740Y-46993892D01*
X129389942Y-47054483D01*
X129390746Y-47061618D01*
X129392244Y-47066229D01*
X129405820Y-47195404D01*
X129410000Y-47232500D01*
X129405819Y-47269598D01*
X129392244Y-47398770D01*
X129390746Y-47403379D01*
X129389942Y-47410517D01*
X129368736Y-47471120D01*
X129340580Y-47557776D01*
X129335081Y-47567299D01*
X129330775Y-47579607D01*
X129296278Y-47634507D01*
X129256986Y-47702564D01*
X129245501Y-47715318D01*
X129235465Y-47731292D01*
X129191835Y-47774921D01*
X129145117Y-47826808D01*
X129126218Y-47840538D01*
X129108792Y-47857965D01*
X129060265Y-47888456D01*
X129009860Y-47925078D01*
X128982829Y-47937112D01*
X128957107Y-47953275D01*
X128907685Y-47970568D01*
X128857127Y-47993078D01*
X128822045Y-48000535D01*
X128788017Y-48012442D01*
X128741225Y-48017714D01*
X128693593Y-48027839D01*
X128651367Y-48027839D01*
X128610000Y-48032500D01*
X128568633Y-48027839D01*
X128526407Y-48027839D01*
X128478774Y-48017714D01*
X128431983Y-48012442D01*
X128397955Y-48000535D01*
X128362872Y-47993078D01*
X128312309Y-47970566D01*
X128262893Y-47953275D01*
X128237173Y-47937114D01*
X128210139Y-47925078D01*
X128159726Y-47888451D01*
X128111208Y-47857965D01*
X128093784Y-47840541D01*
X128074882Y-47826808D01*
X128028154Y-47774911D01*
X127984535Y-47731292D01*
X127974500Y-47715322D01*
X127963013Y-47702564D01*
X127923709Y-47634487D01*
X127889225Y-47579607D01*
X127884919Y-47567303D01*
X127879419Y-47557776D01*
X127851249Y-47471080D01*
X127830058Y-47410517D01*
X127829254Y-47403384D01*
X127827755Y-47398770D01*
X127814165Y-47269466D01*
X127810000Y-47232500D01*
X127814164Y-47195536D01*
X127827755Y-47066229D01*
X127829254Y-47061613D01*
X127830058Y-47054483D01*
X127851245Y-46993932D01*
X127879419Y-46907223D01*
X127884920Y-46897693D01*
X127889225Y-46885393D01*
X127923701Y-46830523D01*
X127963013Y-46762435D01*
X127974502Y-46749674D01*
X127984535Y-46733708D01*
X128028145Y-46690097D01*
X128074882Y-46638191D01*
X128093787Y-46624455D01*
X128111208Y-46607035D01*
X128159721Y-46576552D01*
X128210140Y-46539921D01*
X128237176Y-46527883D01*
X128262893Y-46511725D01*
X128312301Y-46494436D01*
X128362872Y-46471921D01*
X128397961Y-46464462D01*
X128431983Y-46452558D01*
X128478771Y-46447286D01*
X128526407Y-46437161D01*
X128568633Y-46437161D01*
X128610000Y-46432500D01*
X128651367Y-46437161D01*
G37*
G36*
X131191367Y-46437161D02*
G01*
X131233593Y-46437161D01*
X131281228Y-46447286D01*
X131328017Y-46452558D01*
X131362039Y-46464462D01*
X131397127Y-46471921D01*
X131447695Y-46494435D01*
X131497107Y-46511725D01*
X131522823Y-46527883D01*
X131549860Y-46539921D01*
X131600275Y-46576550D01*
X131648792Y-46607035D01*
X131666214Y-46624457D01*
X131685117Y-46638191D01*
X131731844Y-46690087D01*
X131775465Y-46733708D01*
X131785499Y-46749677D01*
X131796986Y-46762435D01*
X131836285Y-46830503D01*
X131870775Y-46885393D01*
X131875080Y-46897697D01*
X131880580Y-46907223D01*
X131908740Y-46993892D01*
X131929942Y-47054483D01*
X131930746Y-47061618D01*
X131932244Y-47066229D01*
X131945820Y-47195404D01*
X131950000Y-47232500D01*
X131945819Y-47269598D01*
X131932244Y-47398770D01*
X131930746Y-47403379D01*
X131929942Y-47410517D01*
X131908736Y-47471120D01*
X131880580Y-47557776D01*
X131875081Y-47567299D01*
X131870775Y-47579607D01*
X131836278Y-47634507D01*
X131796986Y-47702564D01*
X131785501Y-47715318D01*
X131775465Y-47731292D01*
X131731835Y-47774921D01*
X131685117Y-47826808D01*
X131666218Y-47840538D01*
X131648792Y-47857965D01*
X131600265Y-47888456D01*
X131549860Y-47925078D01*
X131522829Y-47937112D01*
X131497107Y-47953275D01*
X131447685Y-47970568D01*
X131397127Y-47993078D01*
X131362045Y-48000535D01*
X131328017Y-48012442D01*
X131281225Y-48017714D01*
X131233593Y-48027839D01*
X131191367Y-48027839D01*
X131150000Y-48032500D01*
X131108633Y-48027839D01*
X131066407Y-48027839D01*
X131018774Y-48017714D01*
X130971983Y-48012442D01*
X130937955Y-48000535D01*
X130902872Y-47993078D01*
X130852309Y-47970566D01*
X130802893Y-47953275D01*
X130777173Y-47937114D01*
X130750139Y-47925078D01*
X130699726Y-47888451D01*
X130651208Y-47857965D01*
X130633784Y-47840541D01*
X130614882Y-47826808D01*
X130568154Y-47774911D01*
X130524535Y-47731292D01*
X130514500Y-47715322D01*
X130503013Y-47702564D01*
X130463709Y-47634487D01*
X130429225Y-47579607D01*
X130424919Y-47567303D01*
X130419419Y-47557776D01*
X130391249Y-47471080D01*
X130370058Y-47410517D01*
X130369254Y-47403384D01*
X130367755Y-47398770D01*
X130354165Y-47269466D01*
X130350000Y-47232500D01*
X130354164Y-47195536D01*
X130367755Y-47066229D01*
X130369254Y-47061613D01*
X130370058Y-47054483D01*
X130391245Y-46993932D01*
X130419419Y-46907223D01*
X130424920Y-46897693D01*
X130429225Y-46885393D01*
X130463701Y-46830523D01*
X130503013Y-46762435D01*
X130514502Y-46749674D01*
X130524535Y-46733708D01*
X130568145Y-46690097D01*
X130614882Y-46638191D01*
X130633787Y-46624455D01*
X130651208Y-46607035D01*
X130699721Y-46576552D01*
X130750140Y-46539921D01*
X130777176Y-46527883D01*
X130802893Y-46511725D01*
X130852301Y-46494436D01*
X130902872Y-46471921D01*
X130937961Y-46464462D01*
X130971983Y-46452558D01*
X131018771Y-46447286D01*
X131066407Y-46437161D01*
X131108633Y-46437161D01*
X131150000Y-46432500D01*
X131191367Y-46437161D01*
G37*
G36*
X133731367Y-46437161D02*
G01*
X133773593Y-46437161D01*
X133821228Y-46447286D01*
X133868017Y-46452558D01*
X133902039Y-46464462D01*
X133937127Y-46471921D01*
X133987695Y-46494435D01*
X134037107Y-46511725D01*
X134062823Y-46527883D01*
X134089860Y-46539921D01*
X134140275Y-46576550D01*
X134188792Y-46607035D01*
X134206214Y-46624457D01*
X134225117Y-46638191D01*
X134271844Y-46690087D01*
X134315465Y-46733708D01*
X134325499Y-46749677D01*
X134336986Y-46762435D01*
X134376285Y-46830503D01*
X134410775Y-46885393D01*
X134415080Y-46897697D01*
X134420580Y-46907223D01*
X134448740Y-46993892D01*
X134469942Y-47054483D01*
X134470746Y-47061618D01*
X134472244Y-47066229D01*
X134485820Y-47195404D01*
X134490000Y-47232500D01*
X134485819Y-47269598D01*
X134472244Y-47398770D01*
X134470746Y-47403379D01*
X134469942Y-47410517D01*
X134448736Y-47471120D01*
X134420580Y-47557776D01*
X134415081Y-47567299D01*
X134410775Y-47579607D01*
X134376278Y-47634507D01*
X134336986Y-47702564D01*
X134325501Y-47715318D01*
X134315465Y-47731292D01*
X134271835Y-47774921D01*
X134225117Y-47826808D01*
X134206218Y-47840538D01*
X134188792Y-47857965D01*
X134140265Y-47888456D01*
X134089860Y-47925078D01*
X134062829Y-47937112D01*
X134037107Y-47953275D01*
X133987685Y-47970568D01*
X133937127Y-47993078D01*
X133902045Y-48000535D01*
X133868017Y-48012442D01*
X133821225Y-48017714D01*
X133773593Y-48027839D01*
X133731367Y-48027839D01*
X133690000Y-48032500D01*
X133648633Y-48027839D01*
X133606407Y-48027839D01*
X133558774Y-48017714D01*
X133511983Y-48012442D01*
X133477955Y-48000535D01*
X133442872Y-47993078D01*
X133392309Y-47970566D01*
X133342893Y-47953275D01*
X133317173Y-47937114D01*
X133290139Y-47925078D01*
X133239726Y-47888451D01*
X133191208Y-47857965D01*
X133173784Y-47840541D01*
X133154882Y-47826808D01*
X133108154Y-47774911D01*
X133064535Y-47731292D01*
X133054500Y-47715322D01*
X133043013Y-47702564D01*
X133003709Y-47634487D01*
X132969225Y-47579607D01*
X132964919Y-47567303D01*
X132959419Y-47557776D01*
X132931249Y-47471080D01*
X132910058Y-47410517D01*
X132909254Y-47403384D01*
X132907755Y-47398770D01*
X132894165Y-47269466D01*
X132890000Y-47232500D01*
X132894164Y-47195536D01*
X132907755Y-47066229D01*
X132909254Y-47061613D01*
X132910058Y-47054483D01*
X132931245Y-46993932D01*
X132959419Y-46907223D01*
X132964920Y-46897693D01*
X132969225Y-46885393D01*
X133003701Y-46830523D01*
X133043013Y-46762435D01*
X133054502Y-46749674D01*
X133064535Y-46733708D01*
X133108145Y-46690097D01*
X133154882Y-46638191D01*
X133173787Y-46624455D01*
X133191208Y-46607035D01*
X133239721Y-46576552D01*
X133290140Y-46539921D01*
X133317176Y-46527883D01*
X133342893Y-46511725D01*
X133392301Y-46494436D01*
X133442872Y-46471921D01*
X133477961Y-46464462D01*
X133511983Y-46452558D01*
X133558771Y-46447286D01*
X133606407Y-46437161D01*
X133648633Y-46437161D01*
X133690000Y-46432500D01*
X133731367Y-46437161D01*
G37*
G36*
X136271367Y-46437161D02*
G01*
X136313593Y-46437161D01*
X136361228Y-46447286D01*
X136408017Y-46452558D01*
X136442039Y-46464462D01*
X136477127Y-46471921D01*
X136527695Y-46494435D01*
X136577107Y-46511725D01*
X136602823Y-46527883D01*
X136629860Y-46539921D01*
X136680275Y-46576550D01*
X136728792Y-46607035D01*
X136746214Y-46624457D01*
X136765117Y-46638191D01*
X136811844Y-46690087D01*
X136855465Y-46733708D01*
X136865499Y-46749677D01*
X136876986Y-46762435D01*
X136916285Y-46830503D01*
X136950775Y-46885393D01*
X136955080Y-46897697D01*
X136960580Y-46907223D01*
X136988740Y-46993892D01*
X137009942Y-47054483D01*
X137010746Y-47061618D01*
X137012244Y-47066229D01*
X137025820Y-47195404D01*
X137030000Y-47232500D01*
X137025819Y-47269598D01*
X137012244Y-47398770D01*
X137010746Y-47403379D01*
X137009942Y-47410517D01*
X136988736Y-47471120D01*
X136960580Y-47557776D01*
X136955081Y-47567299D01*
X136950775Y-47579607D01*
X136916278Y-47634507D01*
X136876986Y-47702564D01*
X136865501Y-47715318D01*
X136855465Y-47731292D01*
X136811835Y-47774921D01*
X136765117Y-47826808D01*
X136746218Y-47840538D01*
X136728792Y-47857965D01*
X136680265Y-47888456D01*
X136629860Y-47925078D01*
X136602829Y-47937112D01*
X136577107Y-47953275D01*
X136527685Y-47970568D01*
X136477127Y-47993078D01*
X136442045Y-48000535D01*
X136408017Y-48012442D01*
X136361225Y-48017714D01*
X136313593Y-48027839D01*
X136271367Y-48027839D01*
X136230000Y-48032500D01*
X136188633Y-48027839D01*
X136146407Y-48027839D01*
X136098774Y-48017714D01*
X136051983Y-48012442D01*
X136017955Y-48000535D01*
X135982872Y-47993078D01*
X135932309Y-47970566D01*
X135882893Y-47953275D01*
X135857173Y-47937114D01*
X135830139Y-47925078D01*
X135779726Y-47888451D01*
X135731208Y-47857965D01*
X135713784Y-47840541D01*
X135694882Y-47826808D01*
X135648154Y-47774911D01*
X135604535Y-47731292D01*
X135594500Y-47715322D01*
X135583013Y-47702564D01*
X135543709Y-47634487D01*
X135509225Y-47579607D01*
X135504919Y-47567303D01*
X135499419Y-47557776D01*
X135471249Y-47471080D01*
X135450058Y-47410517D01*
X135449254Y-47403384D01*
X135447755Y-47398770D01*
X135434165Y-47269466D01*
X135430000Y-47232500D01*
X135434164Y-47195536D01*
X135447755Y-47066229D01*
X135449254Y-47061613D01*
X135450058Y-47054483D01*
X135471245Y-46993932D01*
X135499419Y-46907223D01*
X135504920Y-46897693D01*
X135509225Y-46885393D01*
X135543701Y-46830523D01*
X135583013Y-46762435D01*
X135594502Y-46749674D01*
X135604535Y-46733708D01*
X135648145Y-46690097D01*
X135694882Y-46638191D01*
X135713787Y-46624455D01*
X135731208Y-46607035D01*
X135779721Y-46576552D01*
X135830140Y-46539921D01*
X135857176Y-46527883D01*
X135882893Y-46511725D01*
X135932301Y-46494436D01*
X135982872Y-46471921D01*
X136017961Y-46464462D01*
X136051983Y-46452558D01*
X136098771Y-46447286D01*
X136146407Y-46437161D01*
X136188633Y-46437161D01*
X136230000Y-46432500D01*
X136271367Y-46437161D01*
G37*
G36*
X138811367Y-46437161D02*
G01*
X138853593Y-46437161D01*
X138901228Y-46447286D01*
X138948017Y-46452558D01*
X138982039Y-46464462D01*
X139017127Y-46471921D01*
X139067695Y-46494435D01*
X139117107Y-46511725D01*
X139142823Y-46527883D01*
X139169860Y-46539921D01*
X139220275Y-46576550D01*
X139268792Y-46607035D01*
X139286214Y-46624457D01*
X139305117Y-46638191D01*
X139351844Y-46690087D01*
X139395465Y-46733708D01*
X139405499Y-46749677D01*
X139416986Y-46762435D01*
X139456285Y-46830503D01*
X139490775Y-46885393D01*
X139495080Y-46897697D01*
X139500580Y-46907223D01*
X139528740Y-46993892D01*
X139549942Y-47054483D01*
X139550746Y-47061618D01*
X139552244Y-47066229D01*
X139565820Y-47195404D01*
X139570000Y-47232500D01*
X139565819Y-47269598D01*
X139552244Y-47398770D01*
X139550746Y-47403379D01*
X139549942Y-47410517D01*
X139528736Y-47471120D01*
X139500580Y-47557776D01*
X139495081Y-47567299D01*
X139490775Y-47579607D01*
X139456278Y-47634507D01*
X139416986Y-47702564D01*
X139405501Y-47715318D01*
X139395465Y-47731292D01*
X139351835Y-47774921D01*
X139305117Y-47826808D01*
X139286218Y-47840538D01*
X139268792Y-47857965D01*
X139220265Y-47888456D01*
X139169860Y-47925078D01*
X139142829Y-47937112D01*
X139117107Y-47953275D01*
X139067685Y-47970568D01*
X139017127Y-47993078D01*
X138982045Y-48000535D01*
X138948017Y-48012442D01*
X138901225Y-48017714D01*
X138853593Y-48027839D01*
X138811367Y-48027839D01*
X138770000Y-48032500D01*
X138728633Y-48027839D01*
X138686407Y-48027839D01*
X138638774Y-48017714D01*
X138591983Y-48012442D01*
X138557955Y-48000535D01*
X138522872Y-47993078D01*
X138472309Y-47970566D01*
X138422893Y-47953275D01*
X138397173Y-47937114D01*
X138370139Y-47925078D01*
X138319726Y-47888451D01*
X138271208Y-47857965D01*
X138253784Y-47840541D01*
X138234882Y-47826808D01*
X138188154Y-47774911D01*
X138144535Y-47731292D01*
X138134500Y-47715322D01*
X138123013Y-47702564D01*
X138083709Y-47634487D01*
X138049225Y-47579607D01*
X138044919Y-47567303D01*
X138039419Y-47557776D01*
X138011249Y-47471080D01*
X137990058Y-47410517D01*
X137989254Y-47403384D01*
X137987755Y-47398770D01*
X137974165Y-47269466D01*
X137970000Y-47232500D01*
X137974164Y-47195536D01*
X137987755Y-47066229D01*
X137989254Y-47061613D01*
X137990058Y-47054483D01*
X138011245Y-46993932D01*
X138039419Y-46907223D01*
X138044920Y-46897693D01*
X138049225Y-46885393D01*
X138083701Y-46830523D01*
X138123013Y-46762435D01*
X138134502Y-46749674D01*
X138144535Y-46733708D01*
X138188145Y-46690097D01*
X138234882Y-46638191D01*
X138253787Y-46624455D01*
X138271208Y-46607035D01*
X138319721Y-46576552D01*
X138370140Y-46539921D01*
X138397176Y-46527883D01*
X138422893Y-46511725D01*
X138472301Y-46494436D01*
X138522872Y-46471921D01*
X138557961Y-46464462D01*
X138591983Y-46452558D01*
X138638771Y-46447286D01*
X138686407Y-46437161D01*
X138728633Y-46437161D01*
X138770000Y-46432500D01*
X138811367Y-46437161D01*
G37*
G36*
X141351367Y-46437161D02*
G01*
X141393593Y-46437161D01*
X141441228Y-46447286D01*
X141488017Y-46452558D01*
X141522039Y-46464462D01*
X141557127Y-46471921D01*
X141607695Y-46494435D01*
X141657107Y-46511725D01*
X141682823Y-46527883D01*
X141709860Y-46539921D01*
X141760275Y-46576550D01*
X141808792Y-46607035D01*
X141826214Y-46624457D01*
X141845117Y-46638191D01*
X141891844Y-46690087D01*
X141935465Y-46733708D01*
X141945499Y-46749677D01*
X141956986Y-46762435D01*
X141996285Y-46830503D01*
X142030775Y-46885393D01*
X142035080Y-46897697D01*
X142040580Y-46907223D01*
X142068740Y-46993892D01*
X142089942Y-47054483D01*
X142090746Y-47061618D01*
X142092244Y-47066229D01*
X142105820Y-47195404D01*
X142110000Y-47232500D01*
X142105819Y-47269598D01*
X142092244Y-47398770D01*
X142090746Y-47403379D01*
X142089942Y-47410517D01*
X142068736Y-47471120D01*
X142040580Y-47557776D01*
X142035081Y-47567299D01*
X142030775Y-47579607D01*
X141996278Y-47634507D01*
X141956986Y-47702564D01*
X141945501Y-47715318D01*
X141935465Y-47731292D01*
X141891835Y-47774921D01*
X141845117Y-47826808D01*
X141826218Y-47840538D01*
X141808792Y-47857965D01*
X141760265Y-47888456D01*
X141709860Y-47925078D01*
X141682829Y-47937112D01*
X141657107Y-47953275D01*
X141607685Y-47970568D01*
X141557127Y-47993078D01*
X141522045Y-48000535D01*
X141488017Y-48012442D01*
X141441225Y-48017714D01*
X141393593Y-48027839D01*
X141351367Y-48027839D01*
X141310000Y-48032500D01*
X141268633Y-48027839D01*
X141226407Y-48027839D01*
X141178774Y-48017714D01*
X141131983Y-48012442D01*
X141097955Y-48000535D01*
X141062872Y-47993078D01*
X141012309Y-47970566D01*
X140962893Y-47953275D01*
X140937173Y-47937114D01*
X140910139Y-47925078D01*
X140859726Y-47888451D01*
X140811208Y-47857965D01*
X140793784Y-47840541D01*
X140774882Y-47826808D01*
X140728154Y-47774911D01*
X140684535Y-47731292D01*
X140674500Y-47715322D01*
X140663013Y-47702564D01*
X140623709Y-47634487D01*
X140589225Y-47579607D01*
X140584919Y-47567303D01*
X140579419Y-47557776D01*
X140551249Y-47471080D01*
X140530058Y-47410517D01*
X140529254Y-47403384D01*
X140527755Y-47398770D01*
X140514165Y-47269466D01*
X140510000Y-47232500D01*
X140514164Y-47195536D01*
X140527755Y-47066229D01*
X140529254Y-47061613D01*
X140530058Y-47054483D01*
X140551245Y-46993932D01*
X140579419Y-46907223D01*
X140584920Y-46897693D01*
X140589225Y-46885393D01*
X140623701Y-46830523D01*
X140663013Y-46762435D01*
X140674502Y-46749674D01*
X140684535Y-46733708D01*
X140728145Y-46690097D01*
X140774882Y-46638191D01*
X140793787Y-46624455D01*
X140811208Y-46607035D01*
X140859721Y-46576552D01*
X140910140Y-46539921D01*
X140937176Y-46527883D01*
X140962893Y-46511725D01*
X141012301Y-46494436D01*
X141062872Y-46471921D01*
X141097961Y-46464462D01*
X141131983Y-46452558D01*
X141178771Y-46447286D01*
X141226407Y-46437161D01*
X141268633Y-46437161D01*
X141310000Y-46432500D01*
X141351367Y-46437161D01*
G37*
G36*
X143891367Y-46437161D02*
G01*
X143933593Y-46437161D01*
X143981228Y-46447286D01*
X144028017Y-46452558D01*
X144062039Y-46464462D01*
X144097127Y-46471921D01*
X144147695Y-46494435D01*
X144197107Y-46511725D01*
X144222823Y-46527883D01*
X144249860Y-46539921D01*
X144300275Y-46576550D01*
X144348792Y-46607035D01*
X144366214Y-46624457D01*
X144385117Y-46638191D01*
X144431844Y-46690087D01*
X144475465Y-46733708D01*
X144485499Y-46749677D01*
X144496986Y-46762435D01*
X144536285Y-46830503D01*
X144570775Y-46885393D01*
X144575080Y-46897697D01*
X144580580Y-46907223D01*
X144608740Y-46993892D01*
X144629942Y-47054483D01*
X144630746Y-47061618D01*
X144632244Y-47066229D01*
X144645820Y-47195404D01*
X144650000Y-47232500D01*
X144645819Y-47269598D01*
X144632244Y-47398770D01*
X144630746Y-47403379D01*
X144629942Y-47410517D01*
X144608736Y-47471120D01*
X144580580Y-47557776D01*
X144575081Y-47567299D01*
X144570775Y-47579607D01*
X144536278Y-47634507D01*
X144496986Y-47702564D01*
X144485501Y-47715318D01*
X144475465Y-47731292D01*
X144431835Y-47774921D01*
X144385117Y-47826808D01*
X144366218Y-47840538D01*
X144348792Y-47857965D01*
X144300265Y-47888456D01*
X144249860Y-47925078D01*
X144222829Y-47937112D01*
X144197107Y-47953275D01*
X144147685Y-47970568D01*
X144097127Y-47993078D01*
X144062045Y-48000535D01*
X144028017Y-48012442D01*
X143981225Y-48017714D01*
X143933593Y-48027839D01*
X143891367Y-48027839D01*
X143850000Y-48032500D01*
X143808633Y-48027839D01*
X143766407Y-48027839D01*
X143718774Y-48017714D01*
X143671983Y-48012442D01*
X143637955Y-48000535D01*
X143602872Y-47993078D01*
X143552309Y-47970566D01*
X143502893Y-47953275D01*
X143477173Y-47937114D01*
X143450139Y-47925078D01*
X143399726Y-47888451D01*
X143351208Y-47857965D01*
X143333784Y-47840541D01*
X143314882Y-47826808D01*
X143268154Y-47774911D01*
X143224535Y-47731292D01*
X143214500Y-47715322D01*
X143203013Y-47702564D01*
X143163709Y-47634487D01*
X143129225Y-47579607D01*
X143124919Y-47567303D01*
X143119419Y-47557776D01*
X143091249Y-47471080D01*
X143070058Y-47410517D01*
X143069254Y-47403384D01*
X143067755Y-47398770D01*
X143054165Y-47269466D01*
X143050000Y-47232500D01*
X143054164Y-47195536D01*
X143067755Y-47066229D01*
X143069254Y-47061613D01*
X143070058Y-47054483D01*
X143091245Y-46993932D01*
X143119419Y-46907223D01*
X143124920Y-46897693D01*
X143129225Y-46885393D01*
X143163701Y-46830523D01*
X143203013Y-46762435D01*
X143214502Y-46749674D01*
X143224535Y-46733708D01*
X143268145Y-46690097D01*
X143314882Y-46638191D01*
X143333787Y-46624455D01*
X143351208Y-46607035D01*
X143399721Y-46576552D01*
X143450140Y-46539921D01*
X143477176Y-46527883D01*
X143502893Y-46511725D01*
X143552301Y-46494436D01*
X143602872Y-46471921D01*
X143637961Y-46464462D01*
X143671983Y-46452558D01*
X143718771Y-46447286D01*
X143766407Y-46437161D01*
X143808633Y-46437161D01*
X143850000Y-46432500D01*
X143891367Y-46437161D01*
G37*
G36*
X146431367Y-46437161D02*
G01*
X146473593Y-46437161D01*
X146521228Y-46447286D01*
X146568017Y-46452558D01*
X146602039Y-46464462D01*
X146637127Y-46471921D01*
X146687695Y-46494435D01*
X146737107Y-46511725D01*
X146762823Y-46527883D01*
X146789860Y-46539921D01*
X146840275Y-46576550D01*
X146888792Y-46607035D01*
X146906214Y-46624457D01*
X146925117Y-46638191D01*
X146971844Y-46690087D01*
X147015465Y-46733708D01*
X147025499Y-46749677D01*
X147036986Y-46762435D01*
X147076285Y-46830503D01*
X147110775Y-46885393D01*
X147115080Y-46897697D01*
X147120580Y-46907223D01*
X147148740Y-46993892D01*
X147169942Y-47054483D01*
X147170746Y-47061618D01*
X147172244Y-47066229D01*
X147185820Y-47195404D01*
X147190000Y-47232500D01*
X147185819Y-47269598D01*
X147172244Y-47398770D01*
X147170746Y-47403379D01*
X147169942Y-47410517D01*
X147148736Y-47471120D01*
X147120580Y-47557776D01*
X147115081Y-47567299D01*
X147110775Y-47579607D01*
X147076278Y-47634507D01*
X147036986Y-47702564D01*
X147025501Y-47715318D01*
X147015465Y-47731292D01*
X146971835Y-47774921D01*
X146925117Y-47826808D01*
X146906218Y-47840538D01*
X146888792Y-47857965D01*
X146840265Y-47888456D01*
X146789860Y-47925078D01*
X146762829Y-47937112D01*
X146737107Y-47953275D01*
X146687685Y-47970568D01*
X146637127Y-47993078D01*
X146602045Y-48000535D01*
X146568017Y-48012442D01*
X146521225Y-48017714D01*
X146473593Y-48027839D01*
X146431367Y-48027839D01*
X146390000Y-48032500D01*
X146348633Y-48027839D01*
X146306407Y-48027839D01*
X146258774Y-48017714D01*
X146211983Y-48012442D01*
X146177955Y-48000535D01*
X146142872Y-47993078D01*
X146092309Y-47970566D01*
X146042893Y-47953275D01*
X146017173Y-47937114D01*
X145990139Y-47925078D01*
X145939726Y-47888451D01*
X145891208Y-47857965D01*
X145873784Y-47840541D01*
X145854882Y-47826808D01*
X145808154Y-47774911D01*
X145764535Y-47731292D01*
X145754500Y-47715322D01*
X145743013Y-47702564D01*
X145703709Y-47634487D01*
X145669225Y-47579607D01*
X145664919Y-47567303D01*
X145659419Y-47557776D01*
X145631249Y-47471080D01*
X145610058Y-47410517D01*
X145609254Y-47403384D01*
X145607755Y-47398770D01*
X145594165Y-47269466D01*
X145590000Y-47232500D01*
X145594164Y-47195536D01*
X145607755Y-47066229D01*
X145609254Y-47061613D01*
X145610058Y-47054483D01*
X145631245Y-46993932D01*
X145659419Y-46907223D01*
X145664920Y-46897693D01*
X145669225Y-46885393D01*
X145703701Y-46830523D01*
X145743013Y-46762435D01*
X145754502Y-46749674D01*
X145764535Y-46733708D01*
X145808145Y-46690097D01*
X145854882Y-46638191D01*
X145873787Y-46624455D01*
X145891208Y-46607035D01*
X145939721Y-46576552D01*
X145990140Y-46539921D01*
X146017176Y-46527883D01*
X146042893Y-46511725D01*
X146092301Y-46494436D01*
X146142872Y-46471921D01*
X146177961Y-46464462D01*
X146211983Y-46452558D01*
X146258771Y-46447286D01*
X146306407Y-46437161D01*
X146348633Y-46437161D01*
X146390000Y-46432500D01*
X146431367Y-46437161D01*
G37*
G36*
X148971367Y-46437161D02*
G01*
X149013593Y-46437161D01*
X149061228Y-46447286D01*
X149108017Y-46452558D01*
X149142039Y-46464462D01*
X149177127Y-46471921D01*
X149227695Y-46494435D01*
X149277107Y-46511725D01*
X149302823Y-46527883D01*
X149329860Y-46539921D01*
X149380275Y-46576550D01*
X149428792Y-46607035D01*
X149446214Y-46624457D01*
X149465117Y-46638191D01*
X149511844Y-46690087D01*
X149555465Y-46733708D01*
X149565499Y-46749677D01*
X149576986Y-46762435D01*
X149616285Y-46830503D01*
X149650775Y-46885393D01*
X149655080Y-46897697D01*
X149660580Y-46907223D01*
X149688740Y-46993892D01*
X149709942Y-47054483D01*
X149710746Y-47061618D01*
X149712244Y-47066229D01*
X149725820Y-47195404D01*
X149730000Y-47232500D01*
X149725819Y-47269598D01*
X149712244Y-47398770D01*
X149710746Y-47403379D01*
X149709942Y-47410517D01*
X149688736Y-47471120D01*
X149660580Y-47557776D01*
X149655081Y-47567299D01*
X149650775Y-47579607D01*
X149616278Y-47634507D01*
X149576986Y-47702564D01*
X149565501Y-47715318D01*
X149555465Y-47731292D01*
X149511835Y-47774921D01*
X149465117Y-47826808D01*
X149446218Y-47840538D01*
X149428792Y-47857965D01*
X149380265Y-47888456D01*
X149329860Y-47925078D01*
X149302829Y-47937112D01*
X149277107Y-47953275D01*
X149227685Y-47970568D01*
X149177127Y-47993078D01*
X149142045Y-48000535D01*
X149108017Y-48012442D01*
X149061225Y-48017714D01*
X149013593Y-48027839D01*
X148971367Y-48027839D01*
X148930000Y-48032500D01*
X148888633Y-48027839D01*
X148846407Y-48027839D01*
X148798774Y-48017714D01*
X148751983Y-48012442D01*
X148717955Y-48000535D01*
X148682872Y-47993078D01*
X148632309Y-47970566D01*
X148582893Y-47953275D01*
X148557173Y-47937114D01*
X148530139Y-47925078D01*
X148479726Y-47888451D01*
X148431208Y-47857965D01*
X148413784Y-47840541D01*
X148394882Y-47826808D01*
X148348154Y-47774911D01*
X148304535Y-47731292D01*
X148294500Y-47715322D01*
X148283013Y-47702564D01*
X148243709Y-47634487D01*
X148209225Y-47579607D01*
X148204919Y-47567303D01*
X148199419Y-47557776D01*
X148171249Y-47471080D01*
X148150058Y-47410517D01*
X148149254Y-47403384D01*
X148147755Y-47398770D01*
X148134165Y-47269466D01*
X148130000Y-47232500D01*
X148134164Y-47195536D01*
X148147755Y-47066229D01*
X148149254Y-47061613D01*
X148150058Y-47054483D01*
X148171245Y-46993932D01*
X148199419Y-46907223D01*
X148204920Y-46897693D01*
X148209225Y-46885393D01*
X148243701Y-46830523D01*
X148283013Y-46762435D01*
X148294502Y-46749674D01*
X148304535Y-46733708D01*
X148348145Y-46690097D01*
X148394882Y-46638191D01*
X148413787Y-46624455D01*
X148431208Y-46607035D01*
X148479721Y-46576552D01*
X148530140Y-46539921D01*
X148557176Y-46527883D01*
X148582893Y-46511725D01*
X148632301Y-46494436D01*
X148682872Y-46471921D01*
X148717961Y-46464462D01*
X148751983Y-46452558D01*
X148798771Y-46447286D01*
X148846407Y-46437161D01*
X148888633Y-46437161D01*
X148930000Y-46432500D01*
X148971367Y-46437161D01*
G37*
G36*
X151511367Y-46437161D02*
G01*
X151553593Y-46437161D01*
X151601228Y-46447286D01*
X151648017Y-46452558D01*
X151682039Y-46464462D01*
X151717127Y-46471921D01*
X151767695Y-46494435D01*
X151817107Y-46511725D01*
X151842823Y-46527883D01*
X151869860Y-46539921D01*
X151920275Y-46576550D01*
X151968792Y-46607035D01*
X151986214Y-46624457D01*
X152005117Y-46638191D01*
X152051844Y-46690087D01*
X152095465Y-46733708D01*
X152105499Y-46749677D01*
X152116986Y-46762435D01*
X152156285Y-46830503D01*
X152190775Y-46885393D01*
X152195080Y-46897697D01*
X152200580Y-46907223D01*
X152228740Y-46993892D01*
X152249942Y-47054483D01*
X152250746Y-47061618D01*
X152252244Y-47066229D01*
X152265820Y-47195404D01*
X152270000Y-47232500D01*
X152265819Y-47269598D01*
X152252244Y-47398770D01*
X152250746Y-47403379D01*
X152249942Y-47410517D01*
X152228736Y-47471120D01*
X152200580Y-47557776D01*
X152195081Y-47567299D01*
X152190775Y-47579607D01*
X152156278Y-47634507D01*
X152116986Y-47702564D01*
X152105501Y-47715318D01*
X152095465Y-47731292D01*
X152051835Y-47774921D01*
X152005117Y-47826808D01*
X151986218Y-47840538D01*
X151968792Y-47857965D01*
X151920265Y-47888456D01*
X151869860Y-47925078D01*
X151842829Y-47937112D01*
X151817107Y-47953275D01*
X151767685Y-47970568D01*
X151717127Y-47993078D01*
X151682045Y-48000535D01*
X151648017Y-48012442D01*
X151601225Y-48017714D01*
X151553593Y-48027839D01*
X151511367Y-48027839D01*
X151470000Y-48032500D01*
X151428633Y-48027839D01*
X151386407Y-48027839D01*
X151338774Y-48017714D01*
X151291983Y-48012442D01*
X151257955Y-48000535D01*
X151222872Y-47993078D01*
X151172309Y-47970566D01*
X151122893Y-47953275D01*
X151097173Y-47937114D01*
X151070139Y-47925078D01*
X151019726Y-47888451D01*
X150971208Y-47857965D01*
X150953784Y-47840541D01*
X150934882Y-47826808D01*
X150888154Y-47774911D01*
X150844535Y-47731292D01*
X150834500Y-47715322D01*
X150823013Y-47702564D01*
X150783709Y-47634487D01*
X150749225Y-47579607D01*
X150744919Y-47567303D01*
X150739419Y-47557776D01*
X150711249Y-47471080D01*
X150690058Y-47410517D01*
X150689254Y-47403384D01*
X150687755Y-47398770D01*
X150674165Y-47269466D01*
X150670000Y-47232500D01*
X150674164Y-47195536D01*
X150687755Y-47066229D01*
X150689254Y-47061613D01*
X150690058Y-47054483D01*
X150711245Y-46993932D01*
X150739419Y-46907223D01*
X150744920Y-46897693D01*
X150749225Y-46885393D01*
X150783701Y-46830523D01*
X150823013Y-46762435D01*
X150834502Y-46749674D01*
X150844535Y-46733708D01*
X150888145Y-46690097D01*
X150934882Y-46638191D01*
X150953787Y-46624455D01*
X150971208Y-46607035D01*
X151019721Y-46576552D01*
X151070140Y-46539921D01*
X151097176Y-46527883D01*
X151122893Y-46511725D01*
X151172301Y-46494436D01*
X151222872Y-46471921D01*
X151257961Y-46464462D01*
X151291983Y-46452558D01*
X151338771Y-46447286D01*
X151386407Y-46437161D01*
X151428633Y-46437161D01*
X151470000Y-46432500D01*
X151511367Y-46437161D01*
G37*
G36*
X154051367Y-46437161D02*
G01*
X154093593Y-46437161D01*
X154141228Y-46447286D01*
X154188017Y-46452558D01*
X154222039Y-46464462D01*
X154257127Y-46471921D01*
X154307695Y-46494435D01*
X154357107Y-46511725D01*
X154382823Y-46527883D01*
X154409860Y-46539921D01*
X154460275Y-46576550D01*
X154508792Y-46607035D01*
X154526214Y-46624457D01*
X154545117Y-46638191D01*
X154591844Y-46690087D01*
X154635465Y-46733708D01*
X154645499Y-46749677D01*
X154656986Y-46762435D01*
X154696285Y-46830503D01*
X154730775Y-46885393D01*
X154735080Y-46897697D01*
X154740580Y-46907223D01*
X154768740Y-46993892D01*
X154789942Y-47054483D01*
X154790746Y-47061618D01*
X154792244Y-47066229D01*
X154805820Y-47195404D01*
X154810000Y-47232500D01*
X154805819Y-47269598D01*
X154792244Y-47398770D01*
X154790746Y-47403379D01*
X154789942Y-47410517D01*
X154768736Y-47471120D01*
X154740580Y-47557776D01*
X154735081Y-47567299D01*
X154730775Y-47579607D01*
X154696278Y-47634507D01*
X154656986Y-47702564D01*
X154645501Y-47715318D01*
X154635465Y-47731292D01*
X154591835Y-47774921D01*
X154545117Y-47826808D01*
X154526218Y-47840538D01*
X154508792Y-47857965D01*
X154460265Y-47888456D01*
X154409860Y-47925078D01*
X154382829Y-47937112D01*
X154357107Y-47953275D01*
X154307685Y-47970568D01*
X154257127Y-47993078D01*
X154222045Y-48000535D01*
X154188017Y-48012442D01*
X154141225Y-48017714D01*
X154093593Y-48027839D01*
X154051367Y-48027839D01*
X154010000Y-48032500D01*
X153968633Y-48027839D01*
X153926407Y-48027839D01*
X153878774Y-48017714D01*
X153831983Y-48012442D01*
X153797955Y-48000535D01*
X153762872Y-47993078D01*
X153712309Y-47970566D01*
X153662893Y-47953275D01*
X153637173Y-47937114D01*
X153610139Y-47925078D01*
X153559726Y-47888451D01*
X153511208Y-47857965D01*
X153493784Y-47840541D01*
X153474882Y-47826808D01*
X153428154Y-47774911D01*
X153384535Y-47731292D01*
X153374500Y-47715322D01*
X153363013Y-47702564D01*
X153323709Y-47634487D01*
X153289225Y-47579607D01*
X153284919Y-47567303D01*
X153279419Y-47557776D01*
X153251249Y-47471080D01*
X153230058Y-47410517D01*
X153229254Y-47403384D01*
X153227755Y-47398770D01*
X153214165Y-47269466D01*
X153210000Y-47232500D01*
X153214164Y-47195536D01*
X153227755Y-47066229D01*
X153229254Y-47061613D01*
X153230058Y-47054483D01*
X153251245Y-46993932D01*
X153279419Y-46907223D01*
X153284920Y-46897693D01*
X153289225Y-46885393D01*
X153323701Y-46830523D01*
X153363013Y-46762435D01*
X153374502Y-46749674D01*
X153384535Y-46733708D01*
X153428145Y-46690097D01*
X153474882Y-46638191D01*
X153493787Y-46624455D01*
X153511208Y-46607035D01*
X153559721Y-46576552D01*
X153610140Y-46539921D01*
X153637176Y-46527883D01*
X153662893Y-46511725D01*
X153712301Y-46494436D01*
X153762872Y-46471921D01*
X153797961Y-46464462D01*
X153831983Y-46452558D01*
X153878771Y-46447286D01*
X153926407Y-46437161D01*
X153968633Y-46437161D01*
X154010000Y-46432500D01*
X154051367Y-46437161D01*
G37*
G36*
X156591367Y-46437161D02*
G01*
X156633593Y-46437161D01*
X156681228Y-46447286D01*
X156728017Y-46452558D01*
X156762039Y-46464462D01*
X156797127Y-46471921D01*
X156847695Y-46494435D01*
X156897107Y-46511725D01*
X156922823Y-46527883D01*
X156949860Y-46539921D01*
X157000275Y-46576550D01*
X157048792Y-46607035D01*
X157066214Y-46624457D01*
X157085117Y-46638191D01*
X157131844Y-46690087D01*
X157175465Y-46733708D01*
X157185499Y-46749677D01*
X157196986Y-46762435D01*
X157236285Y-46830503D01*
X157270775Y-46885393D01*
X157275080Y-46897697D01*
X157280580Y-46907223D01*
X157308740Y-46993892D01*
X157329942Y-47054483D01*
X157330746Y-47061618D01*
X157332244Y-47066229D01*
X157345820Y-47195404D01*
X157350000Y-47232500D01*
X157345819Y-47269598D01*
X157332244Y-47398770D01*
X157330746Y-47403379D01*
X157329942Y-47410517D01*
X157308736Y-47471120D01*
X157280580Y-47557776D01*
X157275081Y-47567299D01*
X157270775Y-47579607D01*
X157236278Y-47634507D01*
X157196986Y-47702564D01*
X157185501Y-47715318D01*
X157175465Y-47731292D01*
X157131835Y-47774921D01*
X157085117Y-47826808D01*
X157066218Y-47840538D01*
X157048792Y-47857965D01*
X157000265Y-47888456D01*
X156949860Y-47925078D01*
X156922829Y-47937112D01*
X156897107Y-47953275D01*
X156847685Y-47970568D01*
X156797127Y-47993078D01*
X156762045Y-48000535D01*
X156728017Y-48012442D01*
X156681225Y-48017714D01*
X156633593Y-48027839D01*
X156591367Y-48027839D01*
X156550000Y-48032500D01*
X156508633Y-48027839D01*
X156466407Y-48027839D01*
X156418774Y-48017714D01*
X156371983Y-48012442D01*
X156337955Y-48000535D01*
X156302872Y-47993078D01*
X156252309Y-47970566D01*
X156202893Y-47953275D01*
X156177173Y-47937114D01*
X156150139Y-47925078D01*
X156099726Y-47888451D01*
X156051208Y-47857965D01*
X156033784Y-47840541D01*
X156014882Y-47826808D01*
X155968154Y-47774911D01*
X155924535Y-47731292D01*
X155914500Y-47715322D01*
X155903013Y-47702564D01*
X155863709Y-47634487D01*
X155829225Y-47579607D01*
X155824919Y-47567303D01*
X155819419Y-47557776D01*
X155791249Y-47471080D01*
X155770058Y-47410517D01*
X155769254Y-47403384D01*
X155767755Y-47398770D01*
X155754165Y-47269466D01*
X155750000Y-47232500D01*
X155754164Y-47195536D01*
X155767755Y-47066229D01*
X155769254Y-47061613D01*
X155770058Y-47054483D01*
X155791245Y-46993932D01*
X155819419Y-46907223D01*
X155824920Y-46897693D01*
X155829225Y-46885393D01*
X155863701Y-46830523D01*
X155903013Y-46762435D01*
X155914502Y-46749674D01*
X155924535Y-46733708D01*
X155968145Y-46690097D01*
X156014882Y-46638191D01*
X156033787Y-46624455D01*
X156051208Y-46607035D01*
X156099721Y-46576552D01*
X156150140Y-46539921D01*
X156177176Y-46527883D01*
X156202893Y-46511725D01*
X156252301Y-46494436D01*
X156302872Y-46471921D01*
X156337961Y-46464462D01*
X156371983Y-46452558D01*
X156418771Y-46447286D01*
X156466407Y-46437161D01*
X156508633Y-46437161D01*
X156550000Y-46432500D01*
X156591367Y-46437161D01*
G37*
M02*
